<svg width="160" height="64" viewBox="0 0 160 64" fill="none" xmlns="http://www.w3.org/2000/svg">
<path d="M20.5036 56.079H23.8491V54.6734L20.766 54.6312C19.7352 54.6312 19.3557 53.4036 19.2901 52.3166C19.2198 51.1312 19.5431 49.6646 20.6817 49.6646H23.821V48.1606H20.7988C20.2178 48.1606 19.8617 48.2355 19.3323 48.4604C16.7553 49.5568 16.8396 55.0717 19.5009 55.9057C19.8711 56.0275 20.1101 56.0837 20.5036 56.079ZM0 56.0743L2.71289 49.1586C2.71289 49.1586 3.11116 48.1653 4.03419 48.1653C4.94318 48.1653 5.34613 49.1445 5.34613 49.1445L8.21832 56.0743H6.33008L5.65068 54.2798H3.30795L3.81398 52.8882H5.10717L4.05294 50.1519L3.06899 52.9023L2.92374 53.2912L2.66604 53.9753L2.52079 54.3969L1.86482 56.0837L0 56.0743ZM9.1273 48.1465H14.5484C14.5484 48.1465 16.4882 48.2168 16.6334 50.5174C16.6334 50.5174 16.7693 52.4244 14.7452 52.8601L16.8583 56.0743H14.7358L12.782 53.01H11.6903L12.1588 51.745H13.3114C13.3114 51.745 14.7311 51.7075 14.7358 50.5783C14.7358 49.4538 13.3817 49.4772 13.3817 49.4772H10.9265V56.0743H9.13199V48.1418M24.7862 56.0556L27.4944 49.1398C27.4944 49.1398 27.8926 48.1465 28.8157 48.1465C29.7247 48.1465 30.1276 49.1258 30.1276 49.1258L32.9998 56.0556H31.1069L30.4275 54.2611H28.0847L28.5908 52.8695H29.884L28.8344 50.1238L27.8505 52.8742L27.7052 53.2631L27.4475 53.9518L27.3023 54.3735L26.6463 56.0603L24.7862 56.0556ZM40.7074 24.2225L49.6754 14.8843C50.7718 13.7411 51.9151 14.8843 51.9151 14.8843L54.403 17.4707L58.8402 12.8462C57.2987 11.2437 55.9352 9.81934 55.2324 9.0884C50.7484 4.41699 46.3112 9.04155 46.3112 9.04155L35.1036 20.7224C30.5774 25.436 35.0614 30.1074 35.0614 30.1074L45.7068 41.1933C45.7068 41.1933 46.2644 41.779 46.9391 41.0808C47.1874 40.8231 47.4029 40.5982 47.4029 39.4315C47.4029 38.6725 47.4029 33.5232 47.4029 33.5232L40.7027 26.5605C39.5595 25.3657 40.7074 24.2225 40.7074 24.2225ZM64.8235 19.0778L60.3864 23.7024L60.8877 24.2225C61.9841 25.3657 60.8877 26.5559 60.8877 26.5559L54.1079 33.6262C54.1079 33.6262 54.1079 38.3914 54.1079 39.1551C54.0844 40.3593 54.3421 40.7528 54.6092 41.034C55.2839 41.7321 55.8696 41.123 55.8696 41.123C55.8696 41.123 64.2941 32.3518 66.4916 30.0606C70.9287 25.436 66.4494 20.7646 66.4494 20.7646C66.4494 20.7646 65.8028 20.0946 64.8235 19.0778Z" fill="white"/>
<path d="M112.611 48.2636H110.666V53.2771C110.666 53.8253 110.718 54.1533 110.929 54.6359C111.505 55.9056 112.789 56.1727 114.18 56.1727H116.907V54.8889H114.489C113.857 54.8889 113.342 54.8139 112.953 54.3079C112.7 53.9658 112.615 53.6707 112.615 53.2208L112.611 48.2636ZM95.5039 49.5474H98.2777V56.079H100.035V49.5474H102.855V48.198H95.5086V49.5474H95.5039ZM86.6015 56.0602H88.4008L88.368 50.2924L92.0414 56.093H94.4544V48.1512H92.613V54.083L89.0239 48.1512H86.5922L86.6015 56.0602ZM81.8786 56.0181H85.566V54.6452H82.2487C81.7333 54.6452 81.3866 54.4156 81.0586 54.0221C80.7447 53.6613 80.6135 53.3239 80.6135 52.8179H85.5614V51.4263H80.5901C80.5666 50.8641 80.7213 50.4705 81.0727 50.0769C81.4428 49.6786 81.8177 49.5381 82.3565 49.5381H85.5145V48.1465H82.0941C81.3585 48.1465 80.8946 48.2355 80.234 48.5822C77.91 49.852 77.8772 54.4156 80.234 55.6104C80.829 55.9056 81.2273 56.0181 81.8786 56.0181ZM69.687 56.0602H71.4862L71.4534 50.2924L75.1268 56.093H77.5351V48.1512H75.6937V54.083L72.1047 48.1512H69.6729L69.687 56.0602ZM66.5992 56.004H68.6234V48.0996H66.5992V56.004ZM58.32 49.5474H61.0891V56.079H62.8462V49.5474H65.6668V48.198H58.32V49.5474ZM49.3989 56.0602H51.1981L51.17 50.2924L54.8434 56.093H57.2564V48.1512H55.415V54.083L51.8259 48.1512H49.3942L49.3989 56.0602ZM48.4852 52.1151C48.4149 49.5709 47.6324 47.9684 44.3479 47.9684C41.4008 47.9684 40.1591 49.6833 40.1591 52.0307C40.1591 55.1091 41.6959 56.2945 44.3807 56.2852C46.5782 56.2805 48.5789 55.4277 48.4852 52.1151ZM44.4416 54.8655C42.3051 54.8889 42.0755 53.4411 42.0614 52.0589C42.0614 50.775 42.619 49.4162 44.273 49.3694C45.9129 49.3366 46.5688 50.611 46.5688 52.0589C46.5688 53.4832 46.2315 54.8561 44.4416 54.8655ZM36.0968 56.079H39.4422V54.6733L36.3592 54.6312C35.3284 54.6312 34.9489 53.4036 34.8833 52.3166C34.813 51.1311 35.1363 49.6646 36.2702 49.6646H39.4094V48.1605H36.3873C35.8063 48.1605 35.4502 48.2355 34.9207 48.4604C32.3437 49.5568 32.4281 55.0716 35.0894 55.9056C35.4643 56.0275 35.7079 56.0837 36.0968 56.079ZM102.101 56.0556L104.809 49.1398C104.809 49.1398 105.208 48.1465 106.131 48.1465C107.04 48.1465 107.443 49.1257 107.443 49.1257L110.319 56.0556H108.426L107.747 54.261H105.404L105.91 52.8694H107.204L106.154 50.1238L105.17 52.8741L105.025 53.263L104.767 53.9518L104.627 54.3735L103.971 56.0602L102.101 56.0556ZM83.4951 29.4093C83.2467 29.1516 83.0312 28.922 81.9114 28.922C81.1804 28.922 76.2419 28.922 76.2419 28.922L69.5558 35.8986C68.4125 37.0888 67.3161 35.8986 67.3161 35.8986L64.875 33.3498L60.391 38.0212L63.9566 41.7368C68.4828 46.4503 72.9668 41.7789 72.9668 41.7789L83.6122 30.6884C83.6028 30.6884 84.1651 30.1074 83.4951 29.4093ZM58.8401 27.0806L58.3434 26.5605C57.2423 25.4172 58.3434 24.2271 58.3434 24.2271L59.6132 22.9011L64.055 18.2766L67.3114 14.8843C68.4078 13.741 69.5511 14.8843 69.5511 14.8843L76.3403 21.9453C76.3403 21.9453 80.9134 21.9266 81.6443 21.9453C82.8016 21.964 83.1811 21.7017 83.4482 21.4205C84.1182 20.7224 83.5325 20.1086 83.5325 20.1086C83.5325 20.1086 75.1127 11.3374 72.9153 9.04619C68.4781 4.42163 63.9941 9.08836 63.9941 9.08836C63.9941 9.08836 61.9794 11.1875 59.6179 13.652C58.1373 15.1982 56.5161 16.8803 55.1807 18.2766L52.7865 20.7693C48.3025 25.4407 52.7443 30.0605 52.7443 30.0605L54.3655 31.752L58.8401 27.0806Z" fill="white"/>
</svg>
