<?xml version="1.0" encoding="UTF-8" standalone="no"?>
<!DOCTYPE svg PUBLIC "-//W3C//DTD SVG 1.1//EN" "http://www.w3.org/Graphics/SVG/1.1/DTD/svg11.dtd">
<svg width="100%" height="100%" viewBox="0 0 3639 1973" version="1.1" xmlns="http://www.w3.org/2000/svg" xmlns:xlink="http://www.w3.org/1999/xlink" xml:space="preserve" xmlns:serif="http://www.serif.com/" style="fill-rule:evenodd;clip-rule:evenodd;stroke-linejoin:round;stroke-miterlimit:2;">
    <g transform="matrix(1,0,0,1,-680.879167,-1513.546667)">
        <g transform="matrix(4.166667,0,0,4.166667,0,0)">
            <g transform="matrix(1,0,0,1,590.4404,422.9267)">
                <path d="M0,90.335C-9.827,90.335 -17.793,82.369 -17.793,72.542L-17.793,17.793C-17.793,7.966 -9.827,0 0,0C9.827,0 17.794,7.966 17.794,17.793L17.794,72.542C17.794,82.369 9.827,90.335 0,90.335" style="fill:rgb(33,121,255);fill-rule:nonzero;"/>
            </g>
        </g>
        <g transform="matrix(4.166667,0,0,4.166667,0,0)">
            <g transform="matrix(1,0,0,1,724.0273,384.6035)">
                <path d="M0,110.044C-9.827,110.044 -17.794,102.078 -17.794,92.251L-17.794,17.793C-17.794,7.966 -9.827,0 0,0C9.826,0 17.793,7.966 17.793,17.793L17.793,92.251C17.793,102.078 9.826,110.044 0,110.044" style="fill:rgb(33,121,255);fill-rule:nonzero;"/>
            </g>
        </g>
        <g transform="matrix(4.166667,0,0,4.166667,0,0)">
            <g transform="matrix(1,0,0,1,679.6807,363.2512)">
                <path d="M0,179.575C-9.827,179.575 -17.793,171.609 -17.793,161.782L-17.793,17.793C-17.793,7.966 -9.827,0 0,0C9.827,0 17.793,7.966 17.793,17.793L17.793,161.782C17.793,171.609 9.827,179.575 0,179.575" style="fill:rgb(33,121,255);fill-rule:nonzero;"/>
            </g>
        </g>
        <g transform="matrix(4.166667,0,0,4.166667,0,0)">
            <g transform="matrix(1,0,0,1,635.0605,388.9826)">
                <path d="M0,138.514C-9.827,138.514 -17.793,130.548 -17.793,120.721L-17.793,17.793C-17.793,7.967 -9.827,0 0,0C9.827,0 17.793,7.967 17.793,17.793L17.793,120.721C17.793,130.548 9.827,138.514 0,138.514" style="fill:rgb(33,121,255);fill-rule:nonzero;"/>
            </g>
        </g>
        <g transform="matrix(4.166667,0,0,4.166667,0,0)">
            <g transform="matrix(1,0,0,1,192.582,425.8551)">
                <path d="M0,87.412L43.706,87.412C45.738,87.412 47.635,87.041 49.397,86.294C51.159,85.549 52.701,84.515 54.022,83.194C55.344,81.872 56.376,80.332 57.123,78.569C57.867,76.808 58.24,74.91 58.24,72.877C58.24,70.844 57.867,68.949 57.123,67.186C56.376,65.424 55.344,63.882 54.022,62.56C52.701,61.239 51.159,60.207 49.397,59.461C47.635,58.716 45.738,58.343 43.706,58.343L0,58.343L0,87.412ZM0,29.171L43.706,29.171C45.738,29.171 47.635,28.8 49.397,28.054C51.159,27.308 52.701,26.275 54.022,24.954C55.344,23.632 56.376,22.075 57.123,20.278C57.867,18.483 58.24,16.568 58.24,14.536C58.24,12.502 57.867,10.607 57.123,8.843C56.376,7.082 55.344,5.54 54.022,4.219C52.701,2.897 51.159,1.865 49.397,1.119C47.635,0.373 45.738,-0 43.706,-0L0,-0L0,29.171ZM87.411,72.877C87.411,78.909 86.258,84.566 83.956,89.851C81.651,95.137 78.518,99.762 74.554,103.726C70.59,107.69 65.965,110.825 60.68,113.128C55.395,115.432 49.736,116.583 43.706,116.583L-29.171,116.583L-29.171,-29.171L43.706,-29.171C49.736,-29.171 55.395,-28.018 60.68,-25.714C65.965,-23.41 70.59,-20.276 74.554,-16.313C78.518,-12.349 81.651,-7.724 83.956,-2.439C86.258,2.847 87.411,8.505 87.411,14.536C87.411,17.246 87.038,20.024 86.293,22.87C85.547,25.716 84.497,28.46 83.142,31.103C81.786,33.745 80.16,36.151 78.264,38.32C76.366,40.488 74.265,42.283 71.962,43.706C74.333,44.994 76.468,46.74 78.365,48.941C80.262,51.143 81.888,53.565 83.244,56.208C84.599,58.851 85.632,61.612 86.344,64.492C87.056,67.373 87.411,70.168 87.411,72.877" style="fill-rule:nonzero;"/>
            </g>
        </g>
        <g transform="matrix(4.166667,0,0,4.166667,0,0)">
            <g transform="matrix(1,0,0,1,406.5898,396.685)">
                <path d="M0,145.753L-99.913,145.753L-99.913,0L0,0L0,29.17L-70.742,29.17L-70.742,58.341L-22.869,58.341L-22.869,87.513L-70.742,87.513L-70.742,116.582L0,116.582L0,145.753Z" style="fill-rule:nonzero;"/>
            </g>
        </g>
        <g transform="matrix(4.166667,0,0,4.166667,0,0)">
            <g transform="matrix(1,0,0,1,500.1357,396.685)">
                <path d="M0,145.753L-29.069,145.753L-29.069,100.116C-35.507,98.49 -41.418,95.883 -46.806,92.29C-52.192,88.699 -56.817,84.412 -60.68,79.433C-64.542,74.452 -67.541,68.93 -69.675,62.865C-71.81,56.801 -72.877,50.414 -72.877,43.706L-72.877,0L-43.706,0L-43.706,43.706C-43.706,47.704 -42.944,51.481 -41.418,55.039C-39.894,58.596 -37.811,61.696 -35.168,64.338C-32.525,66.981 -29.425,69.065 -25.868,70.59C-22.311,72.114 -18.534,72.877 -14.535,72.877C-10.537,72.877 -6.759,72.114 -3.202,70.59C0.355,69.065 3.456,66.981 6.098,64.338C8.741,61.696 10.825,58.596 12.35,55.039C13.874,51.481 14.636,47.704 14.636,43.706L14.636,0L43.706,0L43.706,43.706C43.706,50.414 42.639,56.801 40.504,62.865C38.37,68.93 35.371,74.452 31.509,79.433C27.646,84.412 23.038,88.699 17.686,92.29C12.332,95.883 6.437,98.49 0,100.116L0,145.753Z" style="fill-rule:nonzero;"/>
            </g>
        </g>
        <g transform="matrix(4.166667,0,0,4.166667,0,0)">
            <g transform="matrix(1,0,0,1,887.6689,396.685)">
                <path d="M0,145.753L-31.203,145.753L-87.411,49.803L-87.411,145.753L-116.582,145.753L-116.582,0L-85.378,0L-29.171,96.05L-29.171,0L0,0L0,145.753Z" style="fill-rule:nonzero;"/>
            </g>
        </g>
        <g transform="matrix(4.166667,0,0,4.166667,0,0)">
            <g transform="matrix(1,0,0,1,1007.418,469.5605)">
                <path d="M0,0.001C0,-6.029 -1.135,-11.687 -3.405,-16.973C-5.676,-22.258 -8.792,-26.883 -12.755,-30.847C-16.72,-34.811 -21.361,-37.945 -26.681,-40.249C-32,-42.552 -37.676,-43.705 -43.705,-43.705L-58.239,-43.705L-58.239,43.707L-43.705,43.707C-37.676,43.707 -32,42.572 -26.681,40.302C-21.361,38.032 -16.72,34.915 -12.755,30.95C-8.792,26.986 -5.676,22.346 -3.405,17.026C-1.135,11.707 0,6.032 0,0.001M29.171,0.001C29.171,6.709 28.308,13.164 26.579,19.364C24.852,25.564 22.395,31.357 19.211,36.745C16.024,42.131 12.231,47.045 7.827,51.482C3.421,55.92 -1.491,59.732 -6.911,62.917C-12.333,66.103 -18.143,68.558 -24.343,70.285C-30.543,72.014 -36.996,72.877 -43.705,72.877L-87.614,72.877L-87.614,-72.876L-43.705,-72.876C-36.996,-72.876 -30.543,-72.012 -24.343,-70.284C-18.143,-68.556 -12.333,-66.099 -6.911,-62.915C-1.491,-59.729 3.421,-55.917 7.827,-51.48C12.231,-47.041 16.024,-42.129 19.211,-36.742C22.395,-31.355 24.852,-25.561 26.579,-19.361C28.308,-13.162 29.171,-6.707 29.171,0.001" style="fill-rule:nonzero;"/>
            </g>
        </g>
        <g transform="matrix(4.166667,0,0,4.166667,0,0)">
            <g transform="matrix(1,0,0,1,748.9844,701.0487)">
                <path d="M0,-140.703L-141.799,-140.703L-141.799,-99.641L-91.43,-99.641L-91.43,0L-50.368,0L-50.368,-99.641L0,-99.641L0,-140.703Z" style="fill-rule:nonzero;"/>
            </g>
        </g>
        <g transform="matrix(4.166667,0,0,4.166667,0,0)">
            <g transform="matrix(1,0,0,1,454.9849,560.3458)">
                <path d="M0,140.703L50.916,140.703L101.893,61.866L101.893,140.703L139.061,140.703L139.061,0L89.24,0L0,140.703Z" style="fill-rule:nonzero;"/>
            </g>
        </g>
        <g transform="matrix(4.166667,0,0,4.166667,0,0)">
            <g transform="matrix(1,0,0,1,719.9678,560.3458)">
                <path d="M0,140.703L50.916,140.703L101.893,61.866L101.893,140.703L139.062,140.703L139.062,0L89.24,0L0,140.703Z" style="fill-rule:nonzero;"/>
            </g>
        </g>
        <g transform="matrix(4.166667,0,0,4.166667,0,0)">
            <g transform="matrix(1,0,0,1,429.8691,627.0518)">
                <path d="M0,7.291C0,22.21 -12.095,34.305 -27.014,34.305L-49.547,34.305L-49.547,-24.742L-29.43,-24.742C-13.176,-24.742 0,-11.566 0,4.687L0,7.291ZM-33.74,-66.706L-88.898,-66.706L-88.898,73.997L-27.74,73.997C9.313,73.997 39.35,43.96 39.35,6.907L39.35,6.384C39.35,-33.982 6.626,-66.706 -33.74,-66.706" style="fill-rule:nonzero;"/>
            </g>
        </g>
        <g transform="matrix(4.166667,0,0,4.166667,0,0)">
            <g transform="matrix(1,0,0,1,547.0171,827.6075)">
                <path d="M0,-55.918L-9.812,-55.918L-9.812,-42.271L-14.606,-42.271L-14.606,-33.565L-9.812,-33.565L-9.812,0L0,0L0,-33.565L5.901,-33.565L5.901,-42.271L0,-42.271L0,-55.918Z" style="fill-rule:nonzero;"/>
            </g>
        </g>
        <g transform="matrix(4.166667,0,0,4.166667,0,0)">
            <g transform="matrix(1,0,0,1,697.2793,780.6894)">
                <path d="M0,37.918C-6.197,37.918 -12.024,32.901 -12.024,25.155C-12.024,16.599 -5.09,12.246 0,12.246C6.123,12.246 11.877,17.778 11.877,25.23C11.877,31.721 7.155,37.918 0,37.918M0,3.246C-4.366,3.246 -8.506,4.566 -11.984,6.86L-11.984,-9L-21.796,-9L-21.796,23.847L-21.795,23.847C-21.82,24.279 -21.836,24.715 -21.836,25.155C-21.836,36.885 -12.172,46.918 0,46.918C11.36,46.918 21.688,38.435 21.688,25.008C21.688,12.467 11.582,3.246 0,3.246" style="fill-rule:nonzero;"/>
            </g>
        </g>
        <g transform="matrix(4.166667,0,0,4.166667,0,0)">
            <g transform="matrix(1,0,0,1,733.1289,809.0177)">
                <path d="M0,-6.714C1.844,-14.312 7.967,-16.304 11.581,-16.304C16.45,-16.304 21.54,-13.279 22.647,-6.714L0,-6.714ZM11.508,-25.304C-1.106,-25.304 -10.033,-14.681 -10.033,-3.099C-10.033,8.852 -0.591,18.59 11.581,18.59C21.171,18.59 28.991,11.729 31.352,4.351L21.023,4.351C19.18,7.745 15.934,9.59 11.581,9.59C4.573,9.59 0.737,3.836 0.295,1.18L32.09,1.18C32.385,-0.149 32.68,-1.845 32.68,-3.763C32.68,-14.091 24.491,-25.304 11.508,-25.304" style="fill-rule:nonzero;"/>
            </g>
        </g>
        <g transform="matrix(4.166667,0,0,4.166667,0,0)">
            <g transform="matrix(1,0,0,1,638.7354,809.0177)">
                <path d="M0,-6.714C1.845,-14.312 7.968,-16.304 11.582,-16.304C16.451,-16.304 21.541,-13.279 22.648,-6.714L0,-6.714ZM11.509,-25.304C-1.105,-25.304 -10.032,-14.681 -10.032,-3.099C-10.032,8.852 -0.59,18.59 11.582,18.59C21.172,18.59 28.992,11.729 31.353,4.351L21.024,4.351C19.181,7.745 15.935,9.59 11.582,9.59C4.574,9.59 0.738,3.836 0.295,1.18L32.091,1.18C32.386,-0.149 32.681,-1.845 32.681,-3.763C32.681,-14.091 24.492,-25.304 11.509,-25.304" style="fill-rule:nonzero;"/>
            </g>
        </g>
        <g transform="matrix(4.166667,0,0,4.166667,0,0)">
            <g transform="matrix(1,0,0,1,0,399.296)">
                <rect x="772.002" y="372.393" width="9.812" height="55.918"/>
            </g>
        </g>
        <g transform="matrix(4.166667,0,0,4.166667,0,0)">
            <g transform="matrix(1,0,0,1,461.5825,780.6894)">
                <path d="M0,37.918C-6.197,37.918 -12.025,32.901 -12.025,25.155C-12.025,16.599 -5.09,12.246 0,12.246C6.123,12.246 11.876,17.778 11.876,25.23C11.876,31.721 7.155,37.918 0,37.918M11.876,6.778C8.419,4.526 4.312,3.246 0,3.246C-11.73,3.246 -21.836,12.762 -21.836,25.155C-21.836,36.885 -12.172,46.918 0,46.918C11.36,46.918 21.688,38.435 21.688,25.008C21.688,24.618 21.678,24.23 21.659,23.847L21.688,23.847L21.688,-9L11.876,-9L11.876,6.778Z" style="fill-rule:nonzero;"/>
            </g>
        </g>
        <g transform="matrix(4.166667,0,0,4.166667,0,0)">
            <g transform="matrix(1,0,0,1,626.123,827.6077)">
                <path d="M0,-43.927C-12.363,-43.763 -21.108,-33.38 -21.241,-21.991L-21.247,-21.988L-21.247,0L-11.436,0L-11.436,-25.344C-9.615,-32.844 -3.631,-34.878 0,-34.93L0,-43.927Z" style="fill-rule:nonzero;"/>
            </g>
        </g>
        <g transform="matrix(4.166667,0,0,4.166667,0,0)">
            <g transform="matrix(1,0,0,1,588.5479,805.92)">
                <path d="M0,-0.297C0,7.154 -5.754,12.687 -11.876,12.687C-16.967,12.687 -23.901,8.335 -23.901,-0.223C-23.901,-7.968 -18.074,-12.985 -11.876,-12.985C-4.721,-12.985 0,-6.788 0,-0.297M0,21.687L9.812,21.687L9.812,-0.075C9.812,-13.501 -0.517,-21.984 -11.876,-21.984C-24.049,-21.984 -33.713,-11.952 -33.713,-0.223C-33.713,12.171 -23.606,21.687 -11.876,21.687C-7.564,21.687 -3.458,20.407 0,18.155L0,21.687Z" style="fill-rule:nonzero;"/>
            </g>
        </g>
        <g transform="matrix(4.166667,0,0,4.166667,0,0)">
            <g transform="matrix(1,0,0,1,520.2754,805.92)">
                <path d="M0,-0.297C0,7.154 -5.754,12.687 -11.876,12.687C-16.967,12.687 -23.901,8.335 -23.901,-0.223C-23.901,-7.968 -18.074,-12.985 -11.876,-12.985C-4.721,-12.985 0,-6.788 0,-0.297M0,21.687L9.812,21.687L9.812,-0.075C9.812,-13.501 -0.516,-21.984 -11.876,-21.984C-24.049,-21.984 -33.713,-11.952 -33.713,-0.223C-33.713,12.171 -23.606,21.687 -11.876,21.687C-7.564,21.687 -3.458,20.407 0,18.155L0,21.687Z" style="fill-rule:nonzero;"/>
            </g>
        </g>
        <g transform="matrix(4.166667,0,0,4.166667,0,0)">
            <g transform="matrix(1,0,0,1,811.8652,784.0037)">
                <path d="M0,21.801C0,15.276 4.745,9.047 11.938,9.047C18.147,9.047 23.986,14.058 24.023,21.801L33.885,21.801C33.844,10.043 24.147,0 11.938,0C0.582,0 -9.74,8.436 -9.855,21.801L0,21.801Z" style="fill-rule:nonzero;"/>
            </g>
        </g>
        <g transform="matrix(4.166667,0,0,4.166667,0,0)">
            <g transform="matrix(1,0,0,1,818.877,827.6076)">
                <path d="M0,-21.801C0,-15.276 -4.745,-9.047 -11.938,-9.047C-18.147,-9.047 -23.986,-14.058 -24.024,-21.801L-33.886,-21.801C-33.845,-10.043 -24.148,0 -11.938,0C-0.583,0 9.74,-8.436 9.854,-21.801L0,-21.801Z" style="fill-rule:nonzero;"/>
            </g>
        </g>
        <g transform="matrix(4.166667,0,0,4.166667,0,0)">
            <g transform="matrix(1,0,0,1,369.0342,800.6149)">
                <path d="M0,-5.736C-2.549,-5.736 -4.631,-4.801 -6.246,-2.932C-7.86,-1.062 -8.666,1.593 -8.666,5.034C-8.666,8.476 -7.86,11.12 -6.246,12.968C-4.631,14.817 -2.549,15.741 0,15.741C1.317,15.741 2.506,15.475 3.57,14.944C4.631,14.413 5.534,13.669 6.278,12.713C7.021,11.757 7.594,10.621 7.999,9.303C8.402,7.988 8.604,6.563 8.604,5.034C8.604,3.462 8.402,2.007 7.999,0.668C7.594,-0.67 7.021,-1.806 6.278,-2.741C5.534,-3.674 4.631,-4.408 3.57,-4.94C2.506,-5.47 1.317,-5.736 0,-5.736M0.575,21.349C-0.998,21.349 -2.612,21.008 -4.27,20.328C-5.926,19.65 -7.307,18.715 -8.412,17.525L-8.921,20.711L-14.785,20.711L-14.785,-27.085L-8.285,-27.085L-8.285,-7.966C-6.16,-10.218 -3.186,-11.344 0.638,-11.344C2.889,-11.344 4.918,-10.909 6.724,-10.038C8.529,-9.167 10.059,-7.977 11.313,-6.469C12.565,-4.961 13.532,-3.218 14.212,-1.244C14.891,0.733 15.232,2.826 15.232,5.034C15.232,7.286 14.871,9.41 14.148,11.408C13.426,13.405 12.417,15.135 11.121,16.601C9.824,18.067 8.275,19.225 6.469,20.075C4.663,20.923 2.698,21.349 0.575,21.349" style="fill-rule:nonzero;"/>
            </g>
        </g>
        <g transform="matrix(4.166667,0,0,4.166667,0,0)">
            <g transform="matrix(1,0,0,1,418.105,836.7492)">
                <path d="M0,-46.841L-19.437,0L-26.318,0L-19.181,-17.08L-32.247,-46.841L-25.044,-46.841L-15.803,-24.6L-7.201,-46.841L0,-46.841Z" style="fill-rule:nonzero;"/>
            </g>
        </g>
    </g>
</svg>
