<svg width="86" height="86" viewBox="0 0 86 86" fill="none" xmlns="http://www.w3.org/2000/svg">
<circle cx="42.5188" cy="42.5188" r="40.5188" fill="white" stroke="#2179FF" stroke-width="4"/>
<path d="M22.2394 59.4879C19.3497 59.4879 17.0073 57.1417 17.0073 54.2475V38.1227C17.0073 35.2285 19.3497 32.8823 22.2394 32.8823C25.1291 32.8823 27.4718 35.2285 27.4718 38.1227V54.2475C27.4718 57.1417 25.1291 59.4879 22.2394 59.4879Z" fill="#2179FF"/>
<path d="M61.5214 54.005C58.6318 54.005 56.2891 51.6589 56.2891 48.7646V26.8351C56.2891 23.9409 58.6318 21.5947 61.5214 21.5947C64.4108 21.5947 66.7535 23.9409 66.7535 26.8351V48.7646C66.7535 51.6589 64.4108 54.005 61.5214 54.005Z" fill="#2179FF"/>
<path d="M48.4816 68.1953C45.5919 68.1953 43.2495 65.8491 43.2495 62.9549V20.5471C43.2495 17.6528 45.5919 15.3066 48.4816 15.3066C51.3712 15.3066 53.7137 17.6528 53.7137 20.5471V62.9549C53.7137 65.8491 51.3712 68.1953 48.4816 68.1953Z" fill="#2179FF"/>
<path d="M35.3605 63.6806C32.4708 63.6806 30.1284 61.3344 30.1284 58.4401V28.1257C30.1284 25.2317 32.4708 22.8853 35.3605 22.8853C38.2501 22.8853 40.5926 25.2317 40.5926 28.1257V58.4401C40.5926 61.3344 38.2501 63.6806 35.3605 63.6806Z" fill="#2179FF"/>
</svg>
