<svg width="78" height="36" viewBox="0 0 78 36" fill="none" xmlns="http://www.w3.org/2000/svg">
<path d="M75.4647 1.84615L70.0493 0.0615385C69.9878 0.0615385 69.9262 0.0615385 69.8647 0.0615385L69.6801 0C65.2493 4 57.1878 4.36923 48.0801 3.69231C44.0801 3.38462 39.8955 2.89231 35.7108 2.33846C32.757 2.03077 29.7416 1.66154 26.7878 1.41538C26.6647 1.41538 26.4801 1.41538 26.2955 1.35385C25.9878 1.35385 25.6185 1.29231 25.3108 1.29231C21.9878 0.984615 18.8493 0.8 15.957 0.8C7.83392 0.984615 1.74162 4.92308 0.264692 16.1846C0.264692 16.2462 0.264692 16.3077 0.264692 16.3077C0.264692 16.3692 0.264692 16.4308 0.264692 16.4308C-0.843 25.4154 1.86469 34.8923 2.17238 35.0769C2.23392 35.0769 2.23392 35.1385 2.29546 35.1385L6.78777 36H6.84931C6.91085 36 6.97238 36 7.03392 35.9385C13.1878 30.3385 27.5878 31.8154 41.4339 33.2308C48.5724 34.0308 55.8955 34.7692 61.9262 34.5231C62.9108 34.4615 63.8339 34.4 64.757 34.2769C72.4493 33.1077 76.5108 28.2462 77.4339 19.2615C78.4801 9.96923 75.6493 1.96923 75.4647 1.84615ZM8.20315 3.56923C20.1416 -3.75385 55.2801 12.6154 74.4801 2.95385C74.4801 2.95385 81.4339 24.6769 68.9416 31.3231C56.3262 38.0923 18.4185 23.4462 2.72623 33.8462C2.84931 33.3538 -4.10454 11.0769 8.20315 3.56923Z" fill="#B8B8BB"/>
<path d="M18.7882 18.3384C19.7728 17.6614 20.3266 16.6768 20.3266 15.3845C20.3266 12.7999 18.6651 11.446 15.4036 11.446H8.38818V26.5845H15.6497C18.1113 26.5845 21.0036 25.4153 21.0036 22.0922C21.0036 20.246 20.2651 19.0153 18.7882 18.3384ZM15.219 23.446H12.142V14.523H14.7882C16.4497 14.523 16.6343 15.1999 16.6343 15.8768C16.6343 16.7999 16.0805 17.2922 15.0343 17.2922H14.1113L12.819 20.0614H15.2805C16.6343 20.0614 17.1882 20.6153 17.1882 21.7845C17.3113 22.523 17.0036 23.446 15.219 23.446Z" fill="#B8B8BB"/>
<path d="M25.7412 11.446H21.9258V26.5845H25.7412V11.446Z" fill="#B8B8BB"/>
<path d="M34.8496 19.9384L32.9419 11.3845H26.9727V26.4614H30.7265V17.2307L32.9419 26.4614H36.7573L38.9727 17.1076V26.4614H42.7265V11.3845H36.7573L34.8496 19.9384Z" fill="#B8B8BB"/>
<path d="M54.5421 18.3999C55.5267 17.723 56.0806 16.7383 56.0806 15.446C56.0806 12.8614 54.419 11.5076 51.1575 11.5076H44.1421V26.646H51.4036C53.8652 26.646 56.7575 25.4768 56.7575 22.1537C56.7575 20.3691 55.9575 19.0768 54.5421 18.3999ZM50.9729 23.5076H47.8959V14.7076H50.5421C52.2036 14.7076 52.3882 15.3845 52.3882 16.0614C52.3882 16.9845 51.8344 17.4768 50.7882 17.4768H49.9267L48.5113 20.246H50.9729C52.3267 20.246 52.8806 20.7999 52.8806 21.9691C53.0036 22.646 52.7575 23.5076 50.9729 23.5076Z" fill="#B8B8BB"/>
<path d="M64.8183 11.2615C60.6336 11.2615 57.249 14.6461 57.249 18.8307C57.249 23.0153 60.6336 26.3999 64.8183 26.3999C69.0029 26.3999 72.3875 23.0153 72.3875 18.8307C72.449 14.7076 69.0644 11.2615 64.8183 11.2615ZM64.8183 22.8307C62.6644 22.8307 60.8183 21.0461 60.8183 18.8307C60.8183 16.6153 62.6029 14.8307 64.8183 14.8307C67.0336 14.8307 68.7567 16.6153 68.7567 18.8307C68.8183 21.1076 66.9721 22.8307 64.8183 22.8307Z" fill="#B8B8BB"/>
<path d="M13.3728 9.4767C13.0651 9.66131 12.6958 9.78439 12.3266 9.84593C11.9574 9.90747 11.5882 9.96901 11.2189 9.96901C10.8497 9.96901 10.4805 9.90747 10.1112 9.78439C9.80354 9.66131 9.49585 9.4767 9.24969 9.29208C9.00354 9.04593 8.81892 8.79977 8.69585 8.49208C8.57277 8.18439 8.51123 7.81516 8.51123 7.44593C8.51123 7.0767 8.57277 6.70747 8.69585 6.39977C8.81892 6.09208 9.00354 5.84593 9.24969 5.59977C9.49585 5.35362 9.80354 5.23054 10.1112 5.10747C10.542 4.98439 10.9112 4.92285 11.2805 4.92285C11.7112 4.92285 12.0805 4.98439 12.3882 5.04593C12.6958 5.16901 13.0035 5.29208 13.2497 5.53824L12.5112 6.33824C12.3882 6.21516 12.2035 6.09208 12.0189 6.03054C11.8343 5.96901 11.5882 5.90747 11.2805 5.90747C11.0343 5.90747 10.8497 5.96901 10.6651 6.03054C10.4805 6.09208 10.2958 6.21516 10.1728 6.33824C10.0497 6.46131 9.92662 6.64593 9.86508 6.83054C9.80354 7.01516 9.742 7.19977 9.742 7.44593C9.742 7.69208 9.80354 7.8767 9.86508 8.06131C9.92662 8.24593 10.0497 8.43054 10.1728 8.55362C10.2958 8.6767 10.4805 8.79977 10.6651 8.86131C10.8497 8.92285 11.0958 8.98439 11.2805 8.98439C11.5266 8.98439 11.7112 8.98439 11.8958 8.92285C12.0805 8.86131 12.2035 8.79977 12.3266 8.73824V7.93824H11.4035V6.95362H13.3728V9.4767Z" fill="#B8B8BB"/>
<path d="M14.0493 5.0459H16.0185C16.2647 5.0459 16.5109 5.0459 16.757 5.10744C17.0032 5.16898 17.1878 5.23051 17.3724 5.35359C17.557 5.47667 17.6801 5.59974 17.8032 5.78436C17.9262 5.96898 17.9262 6.21513 17.9262 6.46128C17.9262 6.76898 17.8647 7.07667 17.6801 7.32282C17.4955 7.56898 17.2493 7.69205 16.8801 7.75359L18.1724 9.78436H16.8185L15.7724 7.87667H15.2185V9.78436H14.1109V5.0459H14.0493ZM15.157 7.01513H15.8339C15.957 7.01513 16.0185 7.01513 16.1416 7.01513C16.2647 7.01513 16.3262 7.01513 16.4493 6.95359C16.5109 6.89205 16.6339 6.89205 16.6955 6.76898C16.757 6.70744 16.757 6.58436 16.757 6.46128C16.757 6.33821 16.757 6.21513 16.6955 6.15359C16.6339 6.09205 16.5724 6.03051 16.5109 5.96898C16.4493 5.90744 16.3262 5.90744 16.2647 5.90744C16.1416 5.90744 16.0801 5.90744 15.957 5.90744H15.2185V7.01513H15.157Z" fill="#B8B8BB"/>
<path d="M22.6031 7.99974C22.6031 8.30744 22.5415 8.55359 22.48 8.79974C22.4185 9.0459 22.2338 9.23051 22.1108 9.41513C21.9262 9.59975 21.7415 9.72282 21.4338 9.8459C21.1261 9.90744 20.8185 9.96898 20.5108 9.96898C20.1415 9.96898 19.8338 9.90744 19.5877 9.8459C19.3415 9.72282 19.0954 9.59975 18.9108 9.41513C18.7262 9.23051 18.6031 9.0459 18.5415 8.79974C18.48 8.55359 18.4185 8.30744 18.4185 7.99974V5.0459H19.5262V7.93821C19.5262 8.06128 19.5261 8.2459 19.5877 8.36898C19.6492 8.49205 19.7108 8.61513 19.7723 8.67667C19.8338 8.73821 19.9569 8.86128 20.08 8.86128C20.2031 8.92282 20.3261 8.92282 20.5108 8.92282C20.6338 8.92282 20.8185 8.92282 20.9415 8.86128C21.0646 8.79974 21.1877 8.73821 21.2492 8.67667C21.3108 8.55359 21.4338 8.49205 21.4338 8.36898C21.4954 8.2459 21.4954 8.12282 21.4954 7.93821V5.0459H22.6031V7.99974Z" fill="#B8B8BB"/>
<path d="M23.3418 5.0459H25.188C25.4341 5.0459 25.6803 5.0459 25.9264 5.10744C26.1726 5.16898 26.3572 5.23051 26.5418 5.35359C26.7264 5.47667 26.8495 5.59974 26.9726 5.78436C27.0956 5.96898 27.0956 6.21513 27.0956 6.46128C27.0956 6.76898 27.0341 6.95359 26.9726 7.13821C26.8495 7.32282 26.7264 7.50744 26.6033 7.56898C26.4187 7.69205 26.2341 7.75359 25.988 7.81513C25.7418 7.87667 25.4956 7.87667 25.2495 7.87667H24.4495V9.72282H23.3418V5.0459ZM24.4495 7.07667H25.188C25.311 7.07667 25.3726 7.07667 25.4956 7.07667C25.5572 7.07667 25.6803 7.01513 25.7418 7.01513C25.8033 6.95359 25.8649 6.89205 25.9264 6.83051C25.9879 6.76898 25.988 6.6459 25.988 6.52282C25.988 6.39975 25.9879 6.27667 25.9264 6.21513C25.8649 6.15359 25.8033 6.09205 25.6803 6.03051C25.5572 5.96898 25.4956 5.96898 25.3726 5.96898C25.2495 5.96898 25.1264 5.96898 25.0649 5.96898H24.511L24.4495 7.07667Z" fill="#B8B8BB"/>
<path d="M27.5264 7.44593C27.5264 7.0767 27.5879 6.70747 27.711 6.39977C27.8341 6.09208 28.0187 5.84593 28.2648 5.59977C28.511 5.35362 28.8187 5.23054 29.1264 5.10747C29.4341 4.98439 29.8033 4.92285 30.2341 4.92285C30.6033 4.92285 30.9725 4.98439 31.3418 5.10747C31.6494 5.23054 31.9571 5.41516 32.2033 5.59977C32.4494 5.84593 32.6341 6.09208 32.7571 6.39977C32.8802 6.70747 32.9418 7.0767 32.9418 7.44593C32.9418 7.81516 32.8802 8.18439 32.7571 8.49208C32.6341 8.79977 32.4494 9.04593 32.2033 9.29208C31.9571 9.53824 31.6494 9.66131 31.3418 9.78439C31.0341 9.90747 30.6648 9.96901 30.2341 9.96901C29.8648 9.96901 29.4956 9.90747 29.1264 9.78439C28.8187 9.66131 28.511 9.4767 28.2648 9.29208C28.0187 9.04593 27.8341 8.79977 27.711 8.49208C27.5879 8.18439 27.5264 7.81516 27.5264 7.44593ZM28.6956 7.44593C28.6956 7.69208 28.7571 7.8767 28.8187 8.06131C28.8802 8.24593 29.0033 8.43054 29.1264 8.55362C29.2494 8.6767 29.4341 8.79977 29.6187 8.86131C29.8033 8.92285 30.0494 8.98439 30.2341 8.98439C30.4802 8.98439 30.6648 8.92285 30.8494 8.86131C31.0341 8.79977 31.2187 8.6767 31.3418 8.55362C31.4648 8.43054 31.5879 8.24593 31.6494 8.06131C31.711 7.8767 31.7725 7.69208 31.7725 7.44593C31.7725 7.19977 31.711 7.01516 31.6494 6.83054C31.5879 6.64593 31.4648 6.46131 31.3418 6.33824C31.2187 6.21516 31.0341 6.09208 30.8494 6.03054C30.6648 5.96901 30.4187 5.90747 30.2341 5.90747C29.9879 5.90747 29.8033 5.96901 29.6187 6.03054C29.4341 6.09208 29.2494 6.21516 29.1264 6.33824C29.0033 6.46131 28.8802 6.64593 28.8187 6.83054C28.6956 7.01516 28.6956 7.19977 28.6956 7.44593Z" fill="#B8B8BB"/>
<path d="M74.1719 33.9694C74.1719 33.7232 74.2334 33.5386 74.295 33.354C74.3565 33.1694 74.4796 32.9848 74.6642 32.8617C74.7873 32.7386 74.9719 32.6155 75.1565 32.4925C75.3411 32.4309 75.5873 32.3694 75.7719 32.3694C76.018 32.3694 76.2026 32.4309 76.3873 32.4925C76.5719 32.554 76.7565 32.6771 76.8796 32.8002C77.0026 32.9232 77.1257 33.1078 77.2488 33.2925C77.3103 33.4771 77.3719 33.7232 77.3719 33.9078C77.3719 34.154 77.3103 34.3386 77.2488 34.5232C77.1873 34.7078 77.0642 34.8925 76.8796 35.0155C76.7565 35.1386 76.5719 35.2617 76.3873 35.3848C76.2026 35.4463 75.9565 35.5078 75.7719 35.5078C75.5257 35.5078 75.3411 35.4463 75.1565 35.3848C74.9719 35.3232 74.7873 35.2002 74.6642 35.0771C74.5411 34.954 74.418 34.7694 74.295 34.5848C74.2334 34.4002 74.1719 34.2155 74.1719 33.9694ZM74.4796 33.9694C74.4796 34.154 74.5411 34.3386 74.6026 34.5232C74.6642 34.7078 74.7873 34.8309 74.9103 34.954C75.0334 35.0771 75.1565 35.2002 75.3411 35.2617C75.5257 35.3232 75.7103 35.3848 75.895 35.3848C76.0796 35.3848 76.2642 35.3232 76.4488 35.2617C76.6334 35.2002 76.7565 35.0771 76.8796 34.954C77.0026 34.8309 77.1257 34.7078 77.1873 34.5232C77.2488 34.3386 77.3103 34.154 77.3103 33.9694C77.3103 33.7848 77.2488 33.6002 77.1873 33.4155C77.1257 33.2309 77.0026 33.1078 76.8796 32.9848C76.7565 32.8617 76.6334 32.7386 76.4488 32.6771C76.2642 32.6155 76.0796 32.554 75.895 32.554C75.7103 32.554 75.5257 32.6155 75.3411 32.6771C75.1565 32.7386 75.0334 32.8617 74.9103 32.9848C74.7873 33.1078 74.6642 33.2309 74.6026 33.4155C74.4796 33.6002 74.4796 33.7848 74.4796 33.9694ZM75.218 33.0463H75.895C76.1411 33.0463 76.2642 33.1078 76.3873 33.1694C76.5103 33.2309 76.5719 33.4155 76.5719 33.6002C76.5719 33.7848 76.5103 33.9078 76.4488 33.9694C76.3257 34.0309 76.2642 34.0925 76.0796 34.0925L76.6334 34.8925H76.3257L75.8334 34.0925H75.5257V34.8925H75.2796V33.0463H75.218ZM75.4642 33.9078H75.7719C75.8334 33.9078 75.895 33.9078 75.9565 33.9078C76.018 33.9078 76.0796 33.9078 76.1411 33.8463C76.2026 33.8463 76.2026 33.7848 76.2642 33.7848C76.2642 33.7232 76.3257 33.6617 76.3257 33.6002C76.3257 33.5386 76.3257 33.4771 76.2642 33.4155C76.2642 33.354 76.2026 33.354 76.1411 33.354C76.0796 33.354 76.0796 33.2925 76.018 33.2925C75.9565 33.2925 75.895 33.2925 75.895 33.2925H75.4642V33.9078Z" fill="#B8B8BB"/>
</svg>
