<svg width="153" height="32" viewBox="0 0 153 32" fill="none" xmlns="http://www.w3.org/2000/svg">
<path d="M48.5153 6.302V18.7797H55.0993C55.0241 19.0642 54.2722 21.7199 54.2185 21.8886H43.7144V6.302H48.5153Z" fill="#B8B8BB"/>
<path d="M96.2133 6.30208C96.2348 6.52339 97.9103 21.6146 97.9426 21.8886H93.4423C93.4316 21.6568 93.163 14.3957 93.163 14.3957C93.0771 13.2786 92.9268 12.288 92.9268 10.6018L92.8086 10.5807C92.7656 11.2658 92.2286 13.4683 91.9171 14.4589C91.9171 14.4589 89.8765 21.0139 89.5972 21.8781H85.6232C85.5695 21.6989 83.6148 14.7329 83.6148 14.7329C83.314 13.6685 82.777 11.7505 82.7233 10.6861L82.6266 10.6967C82.6266 12.3618 82.5407 13.3735 82.444 14.5432C82.444 14.5538 82.2722 20.9402 82.2507 21.8676H77.5894C77.6216 21.5936 79.3938 6.50232 79.426 6.28101H85.2151C85.2688 6.46016 86.9658 12.1299 86.9658 12.1299C87.2665 13.0995 87.6532 14.5538 87.7498 15.4496H87.9002C88.0721 14.4906 88.3835 13.4051 88.738 12.151C88.738 12.151 90.3813 7.00817 90.6176 6.29154H96.2133" fill="#B8B8BB"/>
<path d="M100.703 14.4906C100.703 9.26342 104.011 6.02808 109.338 6.02808C116.996 6.02808 117.587 11.74 117.587 13.4894C117.587 19.2434 114.751 22.1626 109.177 22.1626C103.871 22.1626 100.703 19.2961 100.703 14.4906ZM105.923 14.0374C105.923 17.7575 106.857 19.2118 109.252 19.2118C111.583 19.2118 112.367 17.8945 112.367 13.9952C112.367 10.233 111.572 8.9578 109.198 8.9578C107.05 8.9578 105.923 10.7072 105.923 14.0374Z" fill="#B8B8BB"/>
<path d="M128.66 17.494C128.66 16.6826 127.994 16.3664 126.759 16.0713L124.643 15.5971C121.733 14.9121 120.369 13.4894 120.369 11.1287C120.369 8.12525 123.172 6.02808 127.178 6.02808C129.562 6.02808 131.807 6.55501 133.386 7.4824C133.225 7.69317 131.442 10.0222 131.324 10.1697C130.153 9.51635 128.606 9.0948 127.328 9.0948C126.136 9.0948 125.374 9.59011 125.374 10.3594C125.374 11.055 125.997 11.5503 127.221 11.8243L129.047 12.2353C131.431 12.7728 133.654 13.658 133.654 16.5034C133.654 20.0549 130.765 22.1732 125.943 22.1732C123.591 22.1732 121.55 21.7306 119.509 20.8032C119.617 20.5924 120.906 18.0631 121.013 17.8524C122.237 18.4531 124.138 19.0854 125.997 19.0854C128.198 19.0748 128.66 18.2107 128.66 17.494Z" fill="#B8B8BB"/>
<path d="M69.0182 6.302C69.0827 6.47062 74.7 21.5619 74.8181 21.8886H69.6734C69.6197 21.7305 68.8034 19.2539 68.8034 19.2539H63.7232C63.7232 19.2539 62.8639 21.7305 62.8102 21.8886H57.8374C57.9663 21.5513 63.938 6.46008 63.9917 6.302H69.0182ZM65.6135 13.1837L64.5395 16.9776H68.0623L66.9346 12.8359C66.6983 11.9612 66.4298 10.8547 66.419 10.2118L66.3439 10.2013C66.3116 10.8441 66.0216 11.8769 65.6135 13.1837Z" fill="#B8B8BB"/>
<path d="M146.436 6.302C146.5 6.47062 152.117 21.5619 152.236 21.8886H147.102C147.048 21.7305 146.232 19.2539 146.232 19.2539H141.151C141.151 19.2539 140.292 21.7305 140.238 21.8886H135.266C135.395 21.5513 141.366 6.46008 141.42 6.302H146.436ZM143.031 13.1837L141.957 16.9776H145.48L144.352 12.8359C144.116 11.9612 143.837 10.8547 143.837 10.2118L143.761 10.2013C143.729 10.8441 143.439 11.8769 143.031 13.1837Z" fill="#B8B8BB"/>
<path d="M1.95533 5.26924C1.88015 5.3114 1.8157 5.34302 1.74052 5.38517C1.66534 5.43786 1.59015 5.48002 1.52571 5.53271C1.48275 5.55379 1.45053 5.5854 1.4183 5.61702C0.687952 6.21772 0.473143 7.05026 0.462402 7.47181L0.494624 17.3359L6.97113 13.658V6.44956L6.96039 6.43903C6.45559 6.16502 6.13337 5.99641 6.13337 5.99641C4.21083 4.93201 3.19048 4.66855 1.95533 5.26924Z" fill="#B8B8BB"/>
<mask id="mask0_3880_416" style="mask-type:luminance" maskUnits="userSpaceOnUse" x="1" y="4" width="1" height="1">
<path d="M1.66553 4.92159L1.88034 4.80566C1.74071 4.8689 1.66553 4.92159 1.66553 4.92159Z" fill="white"/>
</mask>
<g mask="url(#mask0_3880_416)">
<path d="M1.72898 4.71094L1.93305 4.8374L1.81491 5.01656L1.61084 4.89009L1.72898 4.71094Z" fill="#B8B8BB"/>
</g>
<mask id="mask1_3880_416" style="mask-type:luminance" maskUnits="userSpaceOnUse" x="1" y="1" width="19" height="9">
<path d="M7.48592 1.87589L1.87939 4.80561C1.94384 4.77399 2.02976 4.74238 2.12643 4.71076C2.13717 4.71076 2.14791 4.70022 2.15865 4.70022C2.24457 4.66861 2.33049 4.64753 2.4379 4.61591C2.91048 4.48945 3.37232 4.47891 3.88786 4.5843C4.01675 4.60538 4.13489 4.63699 4.26378 4.67915C4.28526 4.67915 4.296 4.68968 4.31748 4.70022C4.44637 4.74238 4.586 4.79507 4.72562 4.84776C5.20894 5.03746 5.74597 5.29038 6.35817 5.63816L13.8121 9.75874L19.7301 6.39693L11.7929 1.98127C10.9981 1.50704 10.2677 1.26465 9.5481 1.26465C8.87145 1.26465 8.1948 1.46488 7.48592 1.87589Z" fill="white"/>
</mask>
<g mask="url(#mask1_3880_416)">
<path d="M7.36714 -6.82886L23.7249 3.87833L14.241 17.8419L-2.1167 7.14529L7.36714 -6.82886Z" fill="#B8B8BB"/>
</g>
<path d="M19.7303 6.3864L13.8123 9.74821L6.35836 5.63816C5.74616 5.29039 5.20913 5.03746 4.72581 4.84777C4.58618 4.79508 4.44656 4.74238 4.31767 4.70023C4.29619 4.68969 4.01694 4.61592 3.88805 4.58431C3.37251 4.47892 2.89993 4.48946 2.43809 4.61592C2.34142 4.64754 2.2555 4.66861 2.15884 4.70023C2.1481 4.70023 1.79366 4.85831 1.61107 4.95316C0.332955 5.66978 0.0322214 6.82902 0 7.48241L0.0107405 16.8828L0.483321 17.336L0.4511 7.47187C0.46184 7.05033 0.67665 6.20725 1.407 5.61709C1.43922 5.58547 1.66477 5.43793 1.73996 5.38524C1.77218 5.36416 1.9118 5.29039 1.95477 5.26931C3.18992 4.66861 4.21027 4.93208 6.13281 5.99647L13.8123 10.1908L19.7303 6.75525V6.3864Z" fill="#B8B8BB"/>
<path d="M31.4589 7.47165C31.4589 7.38734 31.4696 7.31357 31.4589 7.2398C31.4589 7.14495 31.4589 7.06064 31.4481 6.97633C31.4481 6.92364 31.4374 6.88149 31.4267 6.83933C31.2655 5.91194 30.6319 5.3007 30.2667 5.08993L21.5562 0.178955V7.52434L27.9145 11.1285H27.9253C28.4193 10.844 28.7201 10.6543 28.7308 10.6543C30.6319 9.54775 31.3729 8.82059 31.4589 7.47165Z" fill="#B8B8BB"/>
<mask id="mask2_3880_416" style="mask-type:luminance" maskUnits="userSpaceOnUse" x="31" y="7" width="1" height="1">
<path d="M31.9097 7.63008C31.9204 7.472 31.9204 7.3877 31.9204 7.3877L31.9097 7.63008Z" fill="white"/>
</mask>
<g mask="url(#mask2_3880_416)">
<path d="M32.0171 7.58793L31.9096 7.64062L31.8022 7.44039L31.9204 7.3877L32.0171 7.58793Z" fill="#B8B8BB"/>
</g>
<mask id="mask3_3880_416" style="mask-type:luminance" maskUnits="userSpaceOnUse" x="21" y="7" width="11" height="16">
<path d="M31.8675 7.89355C31.8675 7.90409 31.8675 7.91463 31.8675 7.92517C31.846 8.00948 31.8245 8.10432 31.8031 8.19917C31.6849 8.66287 31.4594 9.06333 31.1049 9.45326C31.019 9.54811 30.9331 9.63242 30.8364 9.72726C30.8257 9.7378 30.8042 9.74834 30.7935 9.76942C30.6968 9.86426 30.5786 9.94857 30.4605 10.0434C30.0524 10.3596 29.5583 10.6757 28.9461 11.034L21.5781 15.3022V22.0152L29.4509 17.4837C31.0297 16.6511 31.7064 15.5551 31.6957 13.8689L31.9105 7.64062C31.8997 7.70386 31.8782 7.7987 31.8675 7.89355Z" fill="white"/>
</mask>
<g mask="url(#mask3_3880_416)">
<path d="M37.7109 19.191L23.5871 26.0305L15.7573 10.444L29.8811 3.61499L37.7109 19.191Z" fill="#B8B8BB"/>
</g>
<path d="M21.5663 22.0045V15.2915L28.9343 11.0233C29.5465 10.665 30.0406 10.3489 30.4487 10.0327C30.5669 9.93788 30.685 9.85357 30.7817 9.75872C30.7924 9.74818 31.0072 9.53741 31.0932 9.4531C31.4476 9.07371 31.6731 8.66271 31.7913 8.19901C31.8128 8.10416 31.845 8.01985 31.8557 7.92501C31.8557 7.91447 31.9094 7.53508 31.9094 7.33485C31.9202 5.89106 31.0502 5.05851 30.4809 4.7002L22.1893 0L21.5556 0.179155L30.2661 5.09013C30.6313 5.31144 31.265 5.91214 31.4261 6.829C31.4368 6.87115 31.4583 7.13461 31.4583 7.22946C31.4583 7.27162 31.4583 7.41916 31.4583 7.47185C31.3724 8.82079 30.642 9.54795 28.7302 10.6545L21.1797 15.0807L21.2549 21.8359L21.5663 22.0045Z" fill="#B8B8BB"/>
<path d="M14.8538 31.0889C14.929 31.1311 14.9934 31.1732 15.0578 31.2154C15.133 31.2575 15.219 31.2997 15.2941 31.3418C15.3371 31.3629 15.3801 31.3734 15.423 31.3945C16.3145 31.7212 17.163 31.4999 17.5389 31.2997L26.2709 26.4098L19.8159 22.7002L13.4253 26.2517C13.4253 26.2517 13.4253 26.2622 13.4146 26.2728C13.4253 26.8313 13.4253 27.1896 13.4253 27.1896C13.4468 29.3395 13.7045 30.3301 14.8538 31.0889Z" fill="#B8B8BB"/>
<mask id="mask4_3880_416" style="mask-type:luminance" maskUnits="userSpaceOnUse" x="14" y="31" width="1" height="1">
<path d="M14.478 31.3838C14.6069 31.4786 14.6928 31.5103 14.6928 31.5103L14.478 31.3838Z" fill="white"/>
</mask>
<g mask="url(#mask4_3880_416)">
<path d="M14.4673 31.5101L14.478 31.3625L14.7036 31.3836L14.6928 31.5312L14.4673 31.5101Z" fill="#B8B8BB"/>
</g>
<mask id="mask5_3880_416" style="mask-type:luminance" maskUnits="userSpaceOnUse" x="7" y="15" width="8" height="17">
<path d="M7.08905 24.3231C7.02461 26.0725 7.63682 27.2001 9.12975 28.0537L14.4892 31.3839C14.4248 31.3418 14.3604 31.2891 14.2852 31.2153C14.2744 31.2153 14.2744 31.2047 14.2637 31.1942C14.1993 31.1415 14.1241 31.0677 14.0596 30.994C13.7159 30.6567 13.4689 30.2563 13.3185 29.7715C13.2756 29.6556 13.2433 29.5291 13.2111 29.4027C13.2111 29.3816 13.2004 29.371 13.2004 29.35C13.1682 29.213 13.1467 29.076 13.1359 28.9284C13.0608 28.4226 13.0285 27.8429 13.0285 27.1474L13.0071 18.7482L7.11054 15.3547L7.08905 24.3231Z" fill="white"/>
</mask>
<g mask="url(#mask5_3880_416)">
<path d="M5.84326 31.2999L7.05694 14.8386L15.6493 15.4499L14.4356 31.9111L5.84326 31.2999Z" fill="#B8B8BB"/>
</g>
<path d="M7.07812 15.3654L12.9854 18.7589L13.0069 27.1581C13.0069 27.8536 13.0391 28.4333 13.1143 28.9391C13.1358 29.0867 13.1572 29.2342 13.1787 29.3607C13.1787 29.3817 13.2539 29.6663 13.2969 29.7822C13.458 30.2775 13.6943 30.6674 14.038 31.0047C14.1024 31.0679 14.1668 31.1417 14.242 31.2049C14.2528 31.2155 14.5642 31.4473 14.7361 31.5421C16.0035 32.2904 17.1742 31.9637 17.7756 31.6686L26.1103 27.0316L26.2821 26.3993L17.5501 31.2892C17.1742 31.4895 16.3257 31.7108 15.4342 31.3841C15.3913 31.363 15.1442 31.2576 15.069 31.2155C15.0368 31.1944 14.8972 31.1206 14.865 31.089C13.7157 30.3407 13.4472 29.3396 13.4472 27.1686L13.3828 18.5375L7.41108 15.1863L7.07812 15.3654Z" fill="#B8B8BB"/>
</svg>
