<svg width="132" height="24" viewBox="0 0 132 24" fill="none" xmlns="http://www.w3.org/2000/svg">
<path d="M47.2287 17.0507H51.9772C51.3002 19.0633 50.0283 20.8146 48.3362 22.0654C46.6807 23.2384 44.7306 23.9038 42.7154 23.9851C40.2115 24.0885 37.7168 23.689 36.1012 21.5358C34.6912 19.6568 34.3772 17.3608 34.6695 15.0741C34.9481 12.9047 35.6799 10.7586 36.9747 8.99565C37.2807 8.57873 37.6163 8.18619 37.9806 7.82153C39.0618 6.73451 40.3611 5.89602 41.7883 5.36297C42.849 4.97856 43.9656 4.77533 45.0913 4.76139C45.3973 4.73236 49.2096 4.43041 51.5 7.39299C52.8381 9.12339 52.9351 11.0361 52.9374 11.7376H48.2026C48.0804 11.0849 47.7733 10.4833 47.3189 10.006C46.2262 8.87603 44.7328 8.99565 44.5136 9.01655C43.945 9.02236 43.3822 9.12688 42.849 9.32547C40.6716 10.1384 39.7765 12.309 39.5322 13.0011C39.233 13.8826 39.1143 14.8175 39.1828 15.7477C39.2547 16.7662 39.3541 18.1505 40.4136 19.0401C41.2813 19.7683 42.3546 19.7915 42.849 19.7648C44.6986 19.7857 46.3986 18.7335 47.2287 17.0519V17.0507Z" fill="#B8B8BB"/>
<path d="M53.7607 23.9759L56.4347 8.10967C56.5238 7.2317 56.9211 6.4176 57.5536 5.8137C57.8196 5.56517 58.1211 5.35845 58.4487 5.20399C58.9306 4.98334 59.4535 4.87185 59.981 4.87766H70.4987L69.9279 8.56376H60.7402L60.1694 12.5565H67.5542L66.9993 15.9383H59.377L58.7022 20.2074H68.02L67.4971 23.9725L53.7607 23.9759Z" fill="#B8B8BB"/>
<path d="M94.9053 23.9482L97.5792 8.08305C97.6683 7.20508 98.0656 6.39097 98.6982 5.78708C98.9642 5.53855 99.2656 5.33183 99.5933 5.17737C100.074 4.95556 100.597 4.8429 101.126 4.84755H111.643L111.072 8.53365H101.881L101.317 12.5298H108.702L108.147 15.9105H100.522L99.8468 20.1831H109.165L108.642 23.947H94.9053V23.9482Z" fill="#B8B8BB"/>
<path d="M70.6274 23.9607L73.475 7.66477C73.6348 7.00861 73.9591 6.40703 74.4146 5.91579C74.4865 5.83914 74.5573 5.7683 74.6304 5.7021C75.239 5.15394 76.0268 4.85316 76.8397 4.86013H79.2248L82.0061 18.0309L88.4398 6.55452C88.6682 6.1318 89.1249 5.47215 89.9081 5.1133C90.399 4.89032 90.8215 4.8729 91.2599 4.86013C92.1368 4.83458 93.2842 4.8218 94.6589 4.86013L91.4335 23.9607H86.9338L88.868 12.2927L82.9845 23.9607H79.2099L77.1959 11.985L75.1408 23.9607H70.6274Z" fill="#B8B8BB"/>
<path d="M110.32 23.9515L117.855 14.1405L113.288 4.84972H118.634L121.428 10.6297L125.296 5.87519C125.916 5.17374 126.815 4.7963 127.741 4.84972H131.428L124.101 14.4006L128.749 23.9515H123.402L120.433 18.0077L116.74 22.7344C116.452 23.0735 116.103 23.3546 115.712 23.5613L115.598 23.6205C115.125 23.8435 114.609 23.9561 114.089 23.9515H110.32Z" fill="#B8B8BB"/>
<path d="M0 23.9515L15.8097 2.46669C17.1113 0.996432 18.9313 0.109166 20.8734 0H26.1528L9.74137 22.134C8.64529 23.3302 7.09823 23.9922 5.49065 23.9515H0Z" fill="#B8B8BB"/>
<path d="M11.3789 23.9515L27.1887 2.46669C28.4902 0.996432 30.3102 0.109166 32.2523 0H37.5317L21.1226 22.134C20.0265 23.3302 18.4794 23.9922 16.8718 23.9515H11.3789Z" fill="#B8B8BB"/>
</svg>
