<svg width="69" height="32" viewBox="0 0 69 32" fill="none" xmlns="http://www.w3.org/2000/svg">
<path d="M23.0179 0V31.899H28.8177V13.2107H26.3206L28.7976 8.53861L28.8177 0H23.0179ZM33.6509 7.91432C33.6509 8.98621 33.6084 9.02193 32.4325 9.02193C31.2518 9.02193 31.1798 9.09289 30.1771 11.1264C29.6074 12.2816 29.1196 13.4187 29.1196 13.5039C30.6904 13.5062 31.8314 13.5023 33.6509 13.5329V31.8989H36.5508H39.4507V13.5329H42.26L44.2436 9.02191H39.3601C39.4934 7.80081 39.6903 6.60099 40.1153 5.44738C42.0313 3.02435 43.5952 3.9838 45.1597 4.48044L45.0894 0.161093C38.6662 -0.251792 34.6746 0.629511 33.6509 7.91432ZM54.6148 7.29004C52.2978 7.24099 49.9231 7.94835 48.0397 9.38441C48.0246 9.39592 48.0144 9.41309 47.9994 9.42469C47.0593 10.0887 46.3473 10.8754 45.754 11.9218C45.6745 12.0517 45.6062 12.1894 45.5325 12.3246C45.4162 12.5377 45.3015 12.7527 45.2002 12.9791L44.9182 13.5329H47.949C49.1535 13.5329 49.9128 13.5046 50.3958 13.4322C50.4017 13.4312 50.4102 13.4332 50.416 13.4322C50.6424 13.4306 50.7164 13.4345 50.9899 13.4322C51.0312 13.3275 51.0698 13.2238 51.1208 13.1301C51.2229 12.9427 51.3473 12.7826 51.4833 12.6367C51.4898 12.6298 51.4969 12.6235 51.5034 12.6166C52.1438 12.0803 53.488 11.6695 54.4839 11.7507C54.4906 11.7513 54.4974 11.75 54.504 11.7507C54.5345 11.7536 54.5643 11.7574 54.5947 11.7607C54.6455 11.767 54.6972 11.7717 54.7457 11.7808C54.7661 11.7837 54.7857 11.788 54.8061 11.7909C56.2296 12.0801 57.0907 13.0539 57.3637 14.6807C57.3693 14.7145 57.3686 14.7471 57.3737 14.7814C57.3903 14.9695 57.3939 15.1605 57.3939 15.3654V16.6744H54.6953C49.9611 16.6744 46.7527 18.0713 44.9585 20.9135C44.1243 22.3863 43.8866 24.198 44.153 25.938C44.1572 25.9748 44.1583 26.0121 44.163 26.0488C44.1726 26.1062 44.1826 26.1627 44.1932 26.2199C44.5003 28.2766 45.5365 30.0674 47.1636 31.1639C47.9168 31.6715 48.4957 31.8479 49.842 31.8888C49.9439 31.8921 50.053 31.8973 50.1642 31.8989C50.3175 31.9039 50.4735 31.9035 50.6274 31.8989C50.6712 31.8976 50.7144 31.9008 50.7583 31.8989C53.2899 31.886 54.269 31.5073 56.1654 29.8045C56.1862 29.7858 56.2047 29.7732 56.2258 29.7542C56.2847 29.7081 56.3495 29.6704 56.407 29.6233L57.3938 28.8782V30.3483V31.8183H57.4945V31.8989H60.3944H63.2943L63.2843 22.9575C63.2757 17.57 63.1931 14.852 62.9923 13.5328C62.9531 13.1484 62.9057 12.845 62.8513 12.7072C62.5373 11.911 62.1307 11.2012 61.643 10.5826C61.6296 10.5656 61.6162 10.5491 61.6027 10.5322C61.5745 10.4964 61.541 10.4668 61.5121 10.4316C61.4205 10.3211 61.3267 10.2139 61.2302 10.1093C61.2189 10.0971 61.2113 10.0812 61.2 10.0691C61.1806 10.0485 61.1592 10.029 61.1396 10.0086C61.0167 9.87993 60.8869 9.75557 60.7569 9.63609C59.0993 8.11215 56.884 7.33807 54.6148 7.29004ZM10.5725 7.37059C6.63352 7.28722 2.53756 9.3893 0.946429 13.543C4.07971 13.5234 4.07773 13.5366 6.93755 13.5128C7.59886 11.8371 9.55441 11.6001 11.1666 11.942C12.6136 12.3316 13.3516 13.5236 13.3516 15.4561V16.755H10.643C5.90874 16.755 2.71046 18.1519 0.916222 20.9941C-0.842702 24.0995 0.0131724 28.7468 2.77901 30.9424C5.76381 32.9609 9.75946 31.8351 12.3648 29.7039L13.3516 28.9588V30.4289V31.899H19.1514V22.9576C19.1504 17.6484 19.0872 13.4932 18.809 12.7878C17.4022 9.22003 14.0481 7.44416 10.5725 7.37059ZM11.076 20.6215H13.3516V22.6857C13.3516 24.6346 13.292 24.7976 12.2339 25.7266C10.7785 26.8258 8.99059 27.779 7.16914 27.0255C5.60265 26.4523 5.24039 23.6196 6.54486 22.1218C7.48714 21.0399 8.74331 20.6215 11.076 20.6215ZM55.229 20.6215H57.3939V22.6052C57.3939 24.5541 57.3343 24.717 56.2762 25.646C54.8208 26.7453 53.0329 27.6884 51.2114 26.9349C50.1371 26.5418 49.6331 25.0911 49.842 23.7329C49.8427 23.7296 49.8414 23.7261 49.842 23.7228C49.92 23.3246 50.0564 22.9177 50.2649 22.5146C50.3071 22.4331 50.3569 22.3589 50.4059 22.283C50.4645 22.1989 50.5298 22.1187 50.5972 22.0413C50.7101 21.9117 50.8163 21.7797 50.9396 21.6687C50.9451 21.664 50.9541 21.6633 50.9597 21.6587C51.0243 21.6012 51.0931 21.5501 51.1611 21.4976C52.0201 20.9002 53.3411 20.6215 55.229 20.6215Z" fill="#B8B8BB"/>
<path d="M57.3682 0.0788574L62.8357 5.55646C65.8445 8.56914 68.3476 11.0341 68.3938 11.0341C68.4401 11.0341 68.4744 8.56914 68.4744 5.55646V0.0788574H62.9162H57.3682Z" fill="#B8B8BB"/>
</svg>
