<svg width="100" height="32" viewBox="0 0 100 32" fill="none" xmlns="http://www.w3.org/2000/svg">
<path d="M20.777 13.6673L0 19.9361V31.9998H28.7874V23.6305" fill="#B8B8BB"/>
<path d="M31.2275 32L99.8216 31.9975V-9.71072e-07L31.2275 0.00584055V32ZM69.9497 26.7242H68.28V16.4606H69.9497V26.7242ZM83.9761 16.4598V17.745H84.0095C84.5096 16.6451 85.382 16.2579 86.5825 16.2579C87.5184 16.2579 88.5987 16.6451 88.9627 17.5797C89.5371 16.4798 90.4746 16.2579 91.4105 16.2579C92.4941 16.2579 94.2231 16.5007 94.2231 18.9216V26.7242H92.5517V19.6151C92.5517 18.5736 92.2695 17.624 90.9254 17.624C90.2959 17.624 90.1048 17.6406 89.6606 18.0053C89.1739 18.4151 89.0938 19.4348 89.0938 19.8237V26.7242H87.4374V19.6151C87.4374 18.5736 87.1536 17.624 85.8153 17.624C85.2985 17.624 84.6047 17.9244 84.366 18.3141C84.0554 18.824 83.9761 19.4348 83.9761 19.8237V26.7242H82.3047V18.5978C82.3047 17.881 82.2672 17.1742 82.2045 16.4598H83.9761ZM72.6981 16.4598H74.3427V23.5882C74.3427 24.8091 74.9146 25.6461 76.1043 25.6461C77.0009 25.6461 78.1104 24.981 78.1104 23.2802V16.4598H79.7876V24.5837C79.7876 25.3056 79.8235 26.0166 79.8903 26.7242H78.1104V25.4808H78.0495C77.506 26.4213 76.5175 26.932 75.4497 26.932C73.649 26.932 72.6981 26.0358 72.6981 24.2833V16.4598ZM68.1748 12.0511H70.0466V13.8328H68.1748V12.0511ZM60.0993 16.4598V17.7825H60.1844C60.8373 16.6309 61.6112 16.2579 62.9378 16.2579C65.1418 16.2579 65.6978 17.5797 65.6978 19.6151V26.7242H64.0223V19.6151C64.0223 18.5127 63.6299 17.624 62.2081 17.624C60.3673 17.624 60.0993 19.2479 60.0993 20.6549V26.7242H58.4404V18.5978C58.4404 17.881 58.4004 17.1742 58.3486 16.4598H60.0993ZM52.0438 16.4598H53.7177V18.0053H53.7577C54.4482 16.444 55.3081 16.2579 56.9402 16.2579V17.987C56.7974 17.9669 56.6313 17.9436 56.4835 17.9244C56.3383 17.9068 56.2047 17.881 56.0394 17.881C54.1802 17.881 53.7177 19.2855 53.7177 20.6774V26.7242H52.0438V16.4598ZM46.1614 16.2579C49.0901 16.2579 49.8239 17.8651 49.8239 21.2674V22.1428H44.0534C44.0534 24.9985 44.8273 25.5651 46.1188 25.5651C47.2642 25.5651 47.8537 24.6472 47.9146 23.6307H49.7471C49.7229 25.8906 48.3178 26.932 46.1614 26.932C43.9925 26.932 42.2635 26.2778 42.2635 21.7589C42.2635 18.7422 42.6099 16.2579 46.1614 16.2579ZM34.506 12.0511H43.3488V13.6726H39.8541V26.7242H37.9957V13.6726H34.506V12.0511Z" fill="#B8B8BB"/>
<path d="M46.0036 17.5221C44.945 17.5221 44.0717 18.0245 44.0542 20.8818H48.0573C48.0573 17.8809 47.2208 17.5221 46.0036 17.5221Z" fill="#B8B8BB"/>
<path d="M0.000488281 17.8408L10.9746 6.37553L28.7879 16.4146V0.00908132H0.000488281" fill="#B8B8BB"/>
</svg>
