<svg width="176" height="80" viewBox="0 0 176 80" fill="none" xmlns="http://www.w3.org/2000/svg">
<path fill-rule="evenodd" clip-rule="evenodd" d="M25.0043 25.033H27.0354V45.7868C27.0354 45.7868 27.0354 47.2845 28.3732 47.2845H39.2814V49.5357H27.4182C27.4182 49.5357 25 49.5306 25 46.8536L25.0043 25.033Z" fill="#B8B8BB"/>
<path fill-rule="evenodd" clip-rule="evenodd" d="M27.8076 25.033H29.833V42.8345C29.833 42.8345 29.691 44.2182 31.008 44.2146C37.5242 44.2038 39.2714 44.2146 39.2714 44.2146V46.4371H28.9963C28.9963 46.4371 27.7969 46.346 27.8083 45.1179C27.8148 44.2447 27.8076 25.033 27.8076 25.033Z" fill="#B8B8BB"/>
<path fill-rule="evenodd" clip-rule="evenodd" d="M30.5957 25.033H32.6311L32.634 40.0907C32.634 40.0907 32.5164 41.1153 33.4842 41.1153H39.2821L39.2721 43.3535H31.4625C31.4625 43.3535 30.5957 43.1807 30.5957 42.1405V25.033Z" fill="#B8B8BB"/>
<path fill-rule="evenodd" clip-rule="evenodd" d="M33.3916 25.033H35.4277V37.1857C35.4277 37.1857 35.2994 38.0482 36.1898 38.0482H39.2812V40.2707H34.5753C33.7343 40.2707 33.3923 40.0176 33.3923 39.1638L33.3916 25.033Z" fill="#B8B8BB"/>
<path fill-rule="evenodd" clip-rule="evenodd" d="M50.4452 49.5091L48.4134 49.5077L48.4235 28.7539C48.4235 28.7539 48.4242 27.2569 47.0871 27.2562L36.1782 27.2512L36.1789 25L48.0421 25.0057C48.0421 25.0057 50.4603 25.0122 50.4596 27.6885L50.4452 49.5091Z" fill="#B8B8BB"/>
<path fill-rule="evenodd" clip-rule="evenodd" d="M47.641 49.5078L45.6157 49.507L45.6243 31.7055C45.6243 31.7055 45.7669 30.3211 44.4499 30.3247C37.9337 30.3326 36.1865 30.3211 36.1865 30.3211L36.1872 28.0986L46.4631 28.1037C46.4631 28.1037 47.6625 28.1947 47.6503 29.4228C47.6431 30.2968 47.641 49.5078 47.641 49.5078Z" fill="#B8B8BB"/>
<path fill-rule="evenodd" clip-rule="evenodd" d="M44.854 49.5063L42.8179 49.5055L42.8222 34.447C42.8222 34.447 42.9398 33.4233 41.9727 33.4225L36.1748 33.4197L36.1856 31.1814L43.9944 31.185C43.9944 31.185 44.8619 31.3585 44.8612 32.398L44.854 49.5063Z" fill="#B8B8BB"/>
<path fill-rule="evenodd" clip-rule="evenodd" d="M42.0565 49.5048L40.0204 49.5041L40.0261 37.3513C40.0261 37.3513 40.1552 36.4888 39.2648 36.4881C38.2343 36.4879 37.2038 36.4874 36.1733 36.4867L36.1741 34.2649L40.8807 34.267C41.7217 34.267 42.0637 34.5208 42.063 35.374L42.0565 49.5048Z" fill="#B8B8BB"/>
<path fill-rule="evenodd" clip-rule="evenodd" d="M71.0625 30.0873H73.1409V32.4231H71.0625V30.0873ZM71.0625 35.1826H73.1409V49.532H71.0625V35.1826ZM144.693 30.0608H146.772V49.532H144.693V30.0608ZM84.7417 35.1826L80.5512 46.7324L76.3621 35.1826H73.9898L79.1955 49.532H81.9076L87.1133 35.1826H84.7417ZM65.1973 47.2522C64.4968 47.2522 63.9663 46.6313 63.9663 45.8642L63.9678 30.0873H61.8894L61.8872 46.2384C61.8872 48.0501 63.1985 49.5191 64.856 49.5191H70.3076V47.2522H65.1973ZM104.623 37.4925C103.921 37.4925 103.391 38.1134 103.391 38.8798L103.393 49.5886H101.314V38.5063C101.314 36.6938 102.623 35.2249 104.282 35.2249H106.465V37.4918L104.623 37.4925ZM100.215 42.5189V42.0773C100.215 37.9399 97.136 34.5732 93.3528 34.5732C89.5681 34.5732 86.4888 37.9392 86.4888 42.0773C86.4888 46.2155 89.5681 49.5815 93.3528 49.5815C96.5439 49.5815 99.2704 47.2335 100.02 43.856H98.0071C97.3138 46.0212 95.452 47.4737 93.3528 47.4737C90.8012 47.4737 88.6798 45.3731 88.4303 42.5197L100.215 42.5189ZM88.6576 40.4076C89.3494 38.1356 91.2579 36.6809 93.3528 36.6809C95.4462 36.6809 97.349 38.1356 98.0423 40.4076H88.6576ZM136.73 34.4929C134.235 34.4929 132.049 35.9339 130.827 38.0962C129.605 35.9332 127.419 34.4929 124.922 34.4929C122.427 34.4929 120.241 35.9339 119.019 38.0962C117.797 35.9339 115.609 34.4929 113.114 34.4929C109.283 34.4929 106.179 37.8883 106.179 42.0766V54.4H108.275V47.5067C109.524 48.838 111.231 49.6603 113.114 49.6603C115.609 49.6603 117.797 48.2193 119.019 46.057C120.241 48.22 122.427 49.6603 124.922 49.6603C127.419 49.6603 129.605 48.2193 130.827 46.0577C132.049 48.22 134.235 49.6603 136.73 49.6603C140.562 49.6603 143.667 46.2649 143.667 42.0766C143.667 37.8883 140.561 34.4929 136.73 34.4929ZM113.113 47.392C110.433 47.392 108.251 45.0074 108.251 42.0766C108.251 39.1458 110.433 36.7612 113.113 36.7612C115.794 36.7612 117.976 39.1458 117.976 42.0766C117.976 45.0074 115.794 47.392 113.113 47.392ZM124.922 47.392C122.242 47.392 120.06 45.0074 120.06 42.0766C120.06 39.1458 122.242 36.7612 124.922 36.7612C127.603 36.7612 129.783 39.1458 129.783 42.0766C129.783 45.0074 127.603 47.392 124.922 47.392ZM136.73 47.392C134.05 47.392 131.869 45.0074 131.869 42.0766C131.869 39.1458 134.05 36.7612 136.73 36.7612C139.412 36.7612 141.592 39.1458 141.592 42.0766C141.592 45.0074 139.412 47.392 136.73 47.392ZM149.338 33.4741C148.42 33.4741 147.681 32.6618 147.681 31.6567C147.681 30.6515 148.42 29.845 149.338 29.845C150.257 29.845 151 30.6522 151 31.6567C151 32.6611 150.257 33.4741 149.338 33.4741ZM149.338 30.1446C148.573 30.1446 147.956 30.82 147.956 31.6567C147.956 32.4933 148.572 33.173 149.338 33.173C150.105 33.173 150.726 32.4933 150.726 31.6567C150.726 30.82 150.104 30.1446 149.338 30.1446ZM148.613 30.711H149.401C149.842 30.711 149.991 31.0121 149.991 31.2236C149.991 31.5391 149.785 31.7656 149.482 31.785V31.795C149.635 31.8538 149.748 32.0216 149.897 32.2825L150.114 32.6618H149.763L149.604 32.3564C149.379 31.9183 149.293 31.8337 149.072 31.8337H148.902V32.6611H148.613V30.711H148.613ZM149.315 31.5627C149.537 31.5627 149.685 31.4695 149.685 31.2674C149.685 31.0903 149.555 30.977 149.366 30.977H148.902V31.5627H149.315Z" fill="#B8B8BB"/>
</svg>
