<svg width="85" height="44" viewBox="0 0 85 44" fill="none" xmlns="http://www.w3.org/2000/svg">
<path d="M0.0585938 4.7315C0.0585938 2.11907 2.15887 0 4.74781 0H80.3132C82.9022 0 85.0001 2.11907 85.0001 4.7315V4.88186H0.0585938V4.7315Z" fill="#B8B8BB"/>
<path d="M85.0001 38.2256V38.343C85.0001 40.9555 82.9022 43.0745 80.3132 43.0745H4.74781C2.15887 43.0745 0.0585938 40.9555 0.0585938 38.343V38.2256H85.0001Z" fill="#B8B8BB"/>
<path d="M58.8453 21.4867C58.8453 28.1 64.1571 33.4611 70.7116 33.4611C77.2638 33.4611 82.578 28.1 82.578 21.4867C82.578 14.8711 77.2638 9.50998 70.7116 9.50998C64.1571 9.50998 58.8453 14.8711 58.8453 21.4867ZM2.26929 21.4867C2.26929 28.1 7.58342 33.4611 14.138 33.4611C20.6902 33.4611 26.0043 28.1 26.0043 21.4867C26.0043 14.8711 20.6902 9.50998 14.138 9.50998C7.58342 9.50998 2.26929 14.8711 2.26929 21.4867ZM85.0001 35.9585H26.4906C27.5455 35.2114 28.5275 34.1894 29.5988 32.8104L35.559 25.1352L38.162 28.4548L41.0587 24.5667L38.5261 21.3129L44.592 13.4991C46.5185 11.0206 42.8348 8.10744 40.9083 10.586L35.5472 17.4929L30.0968 10.4943C28.168 8.02287 24.4914 10.9431 26.4202 13.4169L32.58 21.3152L25.915 29.8973C23.5469 32.9467 21.1836 35.7423 16.492 35.9585H0.0585938V7.14893H58.2603C57.2595 7.88661 56.3151 8.87566 55.2908 10.196L49.3329 17.8688L46.7276 14.5516L43.8332 18.4397L46.3658 21.6911L40.2975 29.5049C38.3734 31.9834 42.0571 34.8966 43.9812 32.4181L49.3447 25.5134L54.7951 32.5097C56.7238 34.9835 60.4005 32.0633 58.4717 29.5895L52.3119 21.6888L58.9768 13.1091C61.1523 10.304 63.3254 7.71511 67.3051 7.14893H85.0001V35.9585ZM63.6073 21.4867C63.6073 17.5258 66.7883 14.3167 70.7116 14.3167C74.635 14.3167 77.8136 17.5258 77.8136 21.4867C77.8136 25.4453 74.635 28.6545 70.7116 28.6545C66.7883 28.6545 63.6073 25.4453 63.6073 21.4867ZM7.03368 21.4867C7.03368 17.5258 10.2146 14.3167 14.138 14.3167C18.059 14.3167 21.2399 17.5258 21.2399 21.4867C21.2399 25.4453 18.059 28.6545 14.138 28.6545C10.2146 28.6545 7.03368 25.4453 7.03368 21.4867Z" fill="#B8B8BB"/>
</svg>
