<svg width="96" height="40" viewBox="0 0 96 40" fill="none" xmlns="http://www.w3.org/2000/svg">
<path d="M16.715 39.8326H19.4423V38.6918L16.9289 38.6576C16.0886 38.6576 15.7792 37.6612 15.7257 36.779C15.6684 35.8169 15.932 34.6267 16.8601 34.6267H19.4193V33.406H16.9556C16.482 33.406 16.1917 33.4668 15.7601 33.6494C13.6592 34.5392 13.728 39.015 15.8976 39.6919C16.1993 39.7908 16.3941 39.8364 16.715 39.8326ZM0 39.8288L2.2116 34.216C2.2116 34.216 2.53628 33.4098 3.28876 33.4098C4.02978 33.4098 4.35827 34.2046 4.35827 34.2046L6.69975 39.8288H5.16041L4.60655 38.3724H2.69671L3.10923 37.2429H4.16347L3.30404 35.0221L2.5019 37.2544L2.38349 37.57L2.17341 38.1252L2.055 38.4674L1.52024 39.8364L0 39.8288ZM7.44077 33.3946H11.8602C11.8602 33.3946 13.4415 33.4516 13.5599 35.3188C13.5599 35.3188 13.6707 36.8665 12.0206 37.2201L13.7433 39.8288H12.0129L10.4201 37.3418H9.53014L9.91211 36.3151H10.8518C10.8518 36.3151 12.0091 36.2847 12.0129 35.3682C12.0129 34.4555 10.9091 34.4746 10.9091 34.4746H8.90753V39.8288H7.44459V33.3908M20.2062 39.8136L22.414 34.2008C22.414 34.2008 22.7387 33.3946 23.4911 33.3946C24.2322 33.3946 24.5607 34.1893 24.5607 34.1893L26.9021 39.8136H25.359L24.8051 38.3572H22.8953L23.3078 37.2277H24.362L23.5064 34.9993L22.7043 37.2315L22.5859 37.5472L22.3758 38.1062L22.2574 38.4484L21.7226 39.8174L20.2062 39.8136ZM33.1855 13.9778L40.4964 6.39894C41.3902 5.47107 42.3222 6.39894 42.3222 6.39894L44.3505 8.49805L47.9678 4.74475C46.7111 3.44421 45.5995 2.28818 45.0266 1.69495C41.3711 -2.09638 37.7539 1.65692 37.7539 1.65692L28.6172 11.1371C24.9273 14.9627 28.5828 18.754 28.5828 18.754L37.2611 27.7513C37.2611 27.7513 37.7157 28.2267 38.2657 27.66C38.4682 27.4509 38.6439 27.2684 38.6439 26.3215C38.6439 25.7054 38.6439 21.5262 38.6439 21.5262L33.1817 15.8754C32.2497 14.9057 33.1855 13.9778 33.1855 13.9778ZM52.8455 9.80239L49.2283 13.5557L49.637 13.9778C50.5308 14.9057 49.637 15.8716 49.637 15.8716L44.1099 21.6099C44.1099 21.6099 44.1099 25.4773 44.1099 26.0971C44.0908 27.0744 44.3008 27.3939 44.5186 27.622C45.0686 28.1886 45.5461 27.6943 45.5461 27.6943C45.5461 27.6943 52.4139 20.5755 54.2053 18.716C57.8226 14.9627 54.1709 11.1714 54.1709 11.1714C54.1709 11.1714 53.6438 10.6276 52.8455 9.80239Z" fill="#B8B8BB"/>
<path d="M91.8025 33.4897H90.2174V37.5586C90.2174 38.0035 90.2594 38.2697 90.4313 38.6614C90.9011 39.692 91.9477 39.9087 93.0821 39.9087H95.3052V38.8668H93.3342C92.8186 38.8668 92.3984 38.8059 92.0814 38.3952C91.8751 38.1176 91.8064 37.8781 91.8064 37.513L91.8025 33.4897ZM77.8568 34.5316H80.1181V39.8327H81.5505V34.5316H83.8499V33.4365H77.8607V34.5316H77.8568ZM70.5994 39.8174H72.0662L72.0394 35.1363L75.0341 39.8441H77.0012V33.3984H75.5001V38.2127L72.5742 33.3984H70.5918L70.5994 39.8174ZM66.7492 39.7832H69.7553V38.669H67.0509C66.6307 38.669 66.3481 38.4827 66.0807 38.1633C65.8248 37.8704 65.7178 37.5967 65.7178 37.186H69.7514V36.0565H65.6987C65.6796 35.6002 65.8057 35.2808 66.0922 34.9614C66.3939 34.6381 66.6995 34.524 67.1388 34.524H69.7132V33.3946H66.9249C66.3252 33.3946 65.947 33.4669 65.4084 33.7483C63.5139 34.7788 63.4871 38.4827 65.4084 39.4524C65.8935 39.692 66.2182 39.7832 66.7492 39.7832ZM56.8103 39.8174H58.2771L58.2503 35.1363L61.245 39.8441H63.2083V33.3984H61.7072V38.2127L58.7813 33.3984H56.7988L56.8103 39.8174ZM54.2931 39.7718H55.9432V33.3566H54.2931V39.7718ZM47.5437 34.5316H49.8012V39.8327H51.2336V34.5316H53.533V33.4365H47.5437V34.5316ZM40.271 39.8174H41.7378L41.7149 35.1363L44.7095 39.8441H46.6767V33.3984H45.1755V38.2127L42.2496 33.3984H40.2672L40.271 39.8174ZM39.5262 36.6155C39.4689 34.5507 38.831 33.2501 36.1534 33.2501C33.7508 33.2501 32.7386 34.6419 32.7386 36.5471C32.7386 39.0455 33.9914 40.0076 36.1801 40C37.9716 39.9962 39.6026 39.3041 39.5262 36.6155ZM36.2298 38.8478C34.488 38.8668 34.3008 37.6917 34.2894 36.5699C34.2894 35.528 34.7439 34.4252 36.0923 34.3871C37.4292 34.3605 37.9639 35.3949 37.9639 36.5699C37.9639 37.7259 37.6889 38.8401 36.2298 38.8478ZM29.4269 39.8327H32.1542V38.6918L29.6408 38.6576C28.8005 38.6576 28.4911 37.6613 28.4376 36.7791C28.3803 35.817 28.6439 34.6267 29.5682 34.6267H32.1274V33.406H29.6637C29.1901 33.406 28.8998 33.4669 28.4682 33.6494C26.3673 34.5392 26.4361 39.0151 28.6057 39.692C28.9112 39.7908 29.1099 39.8365 29.4269 39.8327ZM83.235 39.8136L85.4428 34.2008C85.4428 34.2008 85.7674 33.3946 86.5199 33.3946C87.2609 33.3946 87.5894 34.1894 87.5894 34.1894L89.9347 39.8136H88.3916L87.8377 38.3572H85.9279L86.3404 37.2278H87.3946L86.539 34.9994L85.7369 37.2316L85.6185 37.5472L85.4084 38.1062L85.2938 38.4485L84.759 39.8174L83.235 39.8136ZM68.067 18.1875C67.8645 17.9783 67.6888 17.792 66.7759 17.792C66.18 17.792 62.1541 17.792 62.1541 17.792L56.7034 23.4543C55.7713 24.4202 54.8775 23.4543 54.8775 23.4543L52.8875 21.3856L49.232 25.1769L52.1388 28.1925C55.8286 32.018 59.4841 28.2267 59.4841 28.2267L68.1624 19.2256C68.1548 19.2256 68.6132 18.7541 68.067 18.1875ZM47.9677 16.2975L47.5628 15.8754C46.6652 14.9475 47.5628 13.9816 47.5628 13.9816L48.598 12.9055L52.219 9.15217L54.8737 6.39898C55.7675 5.47112 56.6995 6.39898 56.6995 6.39898L62.2343 12.1297C62.2343 12.1297 65.9623 12.1145 66.5582 12.1297C67.5016 12.1449 67.811 11.932 68.0288 11.7038C68.575 11.1372 68.0975 10.639 68.0975 10.639C68.0975 10.639 61.2335 3.52031 59.4421 1.66077C55.8248 -2.09253 52.1694 1.695 52.1694 1.695C52.1694 1.695 50.5269 3.39862 48.6018 5.39886C47.3948 6.65377 46.0731 8.01895 44.9845 9.15217L43.0327 11.1752C39.3772 14.9666 42.9983 18.7161 42.9983 18.7161L44.3199 20.0888L47.9677 16.2975Z" fill="#B8B8BB"/>
</svg>
