<svg width="71" height="40" viewBox="0 0 71 40" fill="none" xmlns="http://www.w3.org/2000/svg">
<path d="M18.6892 0C18.8181 0 18.9471 0 19.0877 0C19.205 0.0234467 19.3222 0.0468928 19.4394 0.0937861C19.6856 0.164126 19.8732 0.316529 20.0256 0.515826C20.2015 0.762016 20.3187 1.03165 20.3773 1.32474C20.4828 1.79367 20.4828 2.27433 20.4477 2.74326C20.389 3.52872 20.2484 4.30246 20.1311 5.0762C20.096 5.28722 20.0725 5.50997 20.0491 5.72099C20.0373 5.79133 20.0725 5.81477 20.1428 5.79132C20.2601 5.74443 20.389 5.69754 20.5063 5.65064C23.4605 4.56038 26.4617 3.64596 29.5215 2.91911C30.7056 2.63775 31.9013 2.39156 33.0971 2.18054C33.8826 2.03986 34.6798 1.92263 35.4652 1.81712C36.0866 1.73505 36.7079 1.66471 37.3292 1.6061C37.8802 1.5592 38.4312 1.51231 38.994 1.47714C40.2366 1.39508 41.4793 1.38335 42.7103 1.4068C43.3199 1.41852 43.9412 1.45369 44.5508 1.51231C44.9025 1.54748 45.2542 1.57093 45.6059 1.61782C46.1921 1.68816 46.7782 1.77022 47.3644 1.88746C48.443 2.08675 49.5098 2.34467 50.5532 2.64947C52.382 3.18875 54.1522 3.88042 55.8404 4.78312C56.7665 5.2755 57.6575 5.82649 58.4781 6.47128C58.9471 6.84642 59.4043 7.23329 59.7794 7.70223C59.8849 7.83118 59.9787 7.94842 60.0491 8.0891C60.1194 8.20633 60.178 8.33529 60.2132 8.46424C60.2249 8.51114 60.2601 8.56975 60.2249 8.60492C60.1663 8.65182 60.1194 8.58148 60.0842 8.55803C58.7829 7.67878 57.3879 6.99883 55.9342 6.42439C54.375 5.81477 52.7806 5.36928 51.1393 5.02931C50.389 4.8769 49.627 4.74795 48.865 4.63072C48.3257 4.54865 47.7747 4.49004 47.2355 4.43142C46.7782 4.38453 46.3328 4.36108 45.8756 4.32591C44.5391 4.2204 43.1909 4.23212 41.8544 4.24385C41.28 4.25557 40.7173 4.27902 40.1428 4.31419C39.8263 4.33763 39.5098 4.34936 39.1933 4.3728C38.7829 4.40797 38.3726 4.44314 37.9623 4.49004C37.6692 4.51348 37.3761 4.54865 37.0831 4.58382C36.6845 4.63071 36.2859 4.67761 35.8756 4.73622C35.4418 4.79484 35.008 4.86518 34.5743 4.93552C33.8474 5.05275 33.1206 5.18171 32.4054 5.32239C31.1979 5.55686 30.0022 5.82649 28.8181 6.11958C27.1417 6.54162 25.4887 7.02227 23.8474 7.54982C22.0537 8.13599 20.2835 8.76905 18.5367 9.46073C18.1733 9.61313 17.7982 9.75381 17.4113 9.8476C17.2941 9.87104 17.1886 9.89449 17.0713 9.90621C17.0244 9.91794 16.9658 9.91794 16.9189 9.90621C16.5555 9.89449 16.321 9.71864 16.2155 9.36694C16.1217 9.07386 16.11 8.76905 16.1452 8.46424C16.2155 7.84291 16.2976 7.22157 16.3797 6.60024C16.4265 6.16647 16.4734 5.74443 16.5321 5.31067C16.579 4.84174 16.6376 4.38452 16.6845 3.91559C16.7196 3.52872 16.7548 3.14185 16.79 2.75498C16.8251 2.39156 16.8251 2.03986 16.9189 1.67644C16.9893 1.38335 17.0948 1.11372 17.2589 0.867526C17.552 0.433763 17.9506 0.140679 18.4781 0.0351695C18.5485 0.0234461 18.6188 0.0117233 18.6892 0Z" fill="#B8B8BB"/>
<path d="M0.0250146 24.2087C0.0484613 24.1032 0.0132916 24.0094 0.00156832 23.9157C-0.010155 23.8219 0.0484613 23.7398 0.0250146 23.6343C0.0367379 23.435 0.0953557 23.2474 0.189142 23.0833C0.576012 22.3565 1.18562 21.9461 1.99453 21.8641C2.70966 21.8055 3.27238 22.0985 3.67097 22.6964C3.75303 22.8254 3.82337 22.9661 3.88199 23.095C3.99922 23.3412 4.11646 23.5874 4.23369 23.8336C4.36265 24.0798 4.51505 24.3142 4.6909 24.537C5.195 25.1701 5.85151 25.5335 6.66042 25.639C7.28176 25.721 7.90309 25.6742 8.48926 25.4631C8.89958 25.3107 9.25128 25.088 9.55608 24.7715C10.0719 24.2439 10.2595 23.5874 10.1774 22.8606C10.1305 22.3916 9.94295 21.9579 9.69676 21.5475C9.42713 21.1021 9.07543 20.7152 8.70028 20.3518C8.48926 20.1525 8.26652 19.9532 8.03205 19.7656C7.34037 19.2029 6.63697 18.6402 5.9453 18.0774C5.3943 17.6202 4.86675 17.1396 4.37437 16.6237C4.16335 16.401 3.95233 16.1665 3.76476 15.9203C3.31927 15.3342 3.04963 14.6894 2.9324 13.9743C2.87378 13.564 2.86206 13.1419 2.90895 12.7199C2.95585 12.1923 3.0848 11.6882 3.2841 11.1958C3.57718 10.4924 4.01095 9.89455 4.57367 9.367C5.55843 8.45258 6.71904 7.86642 8.03205 7.59678C8.712 7.46782 9.39196 7.40921 10.0719 7.44438C11.0332 7.49127 11.9828 7.64367 12.8855 7.99537C13.1317 8.08916 13.3779 8.20639 13.6006 8.34707C14.1751 8.69877 14.4916 9.2146 14.5737 9.88283C14.6323 10.3869 14.5502 10.8559 14.3392 11.3131C14.0227 11.9813 13.3193 12.1806 12.8152 12.0868C12.4049 12.0048 12.0532 11.8289 11.7483 11.5593C11.5959 11.4303 11.4553 11.2779 11.3263 11.1255C11.256 11.0434 11.1856 10.9614 11.1153 10.8793C10.5877 10.2814 9.93123 9.90628 9.15749 9.75387C8.18445 9.55458 7.34037 9.82421 6.67214 10.5628C6.13287 11.1489 6.02736 11.8289 6.33217 12.5675C6.42595 12.8019 6.55491 13.0012 6.70731 13.2005C6.89489 13.435 7.10591 13.646 7.31693 13.8453C7.92654 14.4432 8.58305 14.9825 9.23955 15.5335C9.82572 16.0259 10.4236 16.5065 11.0098 16.9989C11.6311 17.5147 12.1938 18.0892 12.651 18.7457C13.0496 19.3201 13.3544 19.9532 13.5186 20.6448C13.6475 21.1958 13.6592 21.7586 13.6006 22.3213C13.542 22.8957 13.4013 23.4584 13.1669 23.986C12.8386 24.7246 12.3697 25.3576 11.7835 25.9086C10.7988 26.8348 9.64987 27.4444 8.34858 27.7961C7.66863 27.9836 6.96523 28.0774 6.26183 28.1126C5.83979 28.1361 5.42947 28.1361 5.00743 28.1009C3.85854 28.0071 2.79172 27.6671 1.85385 26.9754C1.05667 26.3893 0.482225 25.639 0.153972 24.7128C0.0953553 24.5487 0.0367379 24.3846 0.0250146 24.2087ZM70.3064 13.9391C70.2947 13.9743 70.2947 14.0094 70.3415 14.0329V14.4667C70.2947 14.4784 70.2947 14.5135 70.3064 14.5604V14.6425H70.3181V14.6894C70.2829 15.3459 70.1423 15.9907 70.0367 16.6355C69.6968 18.6753 69.3685 20.7269 69.0754 22.7668C68.8996 23.9625 68.7355 25.1466 68.6417 26.3541C68.6065 26.7879 68.5127 27.2334 68.6417 27.6671C68.6768 27.7961 68.6299 27.8899 68.5127 27.9602C68.0321 28.2767 67.528 28.4878 66.9535 28.5464C66.0625 28.6284 65.2536 28.0657 65.0074 27.1865C64.8902 26.7644 64.8785 26.3307 64.9254 25.8969C64.9605 25.5452 64.984 25.1935 65.0309 24.8066C64.8316 25.0411 64.6323 25.2404 64.4447 25.4514C63.7999 26.1783 63.0731 26.8113 62.2876 27.374C61.5842 27.8781 60.8222 28.3002 59.9547 28.4643C59.3099 28.5933 58.7003 28.5464 58.0907 28.265C57.4811 27.9719 57.1059 27.4795 56.848 26.8817C56.7894 26.7644 56.7425 26.6472 56.7073 26.5182C56.6721 26.401 56.637 26.401 56.5549 26.4831C56.2735 26.7644 55.9687 27.0341 55.6522 27.292C55.1716 27.7023 54.6557 28.0657 54.0813 28.3119C53.5186 28.5581 52.9441 28.6167 52.358 28.394C51.6077 28.1243 51.2442 27.5382 51.0801 26.7996C50.9746 26.2955 50.9981 25.7797 51.0332 25.2638C51.2325 22.8957 51.678 20.5628 51.9945 18.2064C52.0649 17.6437 52.1587 17.081 52.1469 16.5065C52.1352 16.1431 52.0063 16.061 51.6897 16.2369C51.3146 16.4479 51.0215 16.7644 50.7519 17.0927C49.603 18.476 48.6651 19.9766 48.0789 21.6882C47.7976 22.5089 47.6921 23.3529 47.5983 24.2087C47.5045 25.0411 47.4107 25.8852 47.3404 26.7293C47.3169 27.0106 47.3404 27.292 47.3287 27.5733C47.3287 27.714 47.2935 27.8312 47.1645 27.9016C46.5315 28.265 45.8515 28.4643 45.1129 28.3119C44.3744 28.1595 43.9641 27.6671 43.753 26.9754C43.6475 26.612 43.6358 26.2369 43.671 25.8617C43.8351 24.1149 44.0461 22.3682 44.2337 20.6097C44.3392 19.6015 44.4682 18.605 44.5502 17.5968C44.5854 17.1865 44.6675 16.7761 44.5737 16.3658C44.5151 16.1196 44.4213 16.061 44.1985 16.1783C43.9523 16.3189 43.7296 16.4948 43.5537 16.7058C42.2524 18.2298 41.1973 19.9063 40.576 21.8406C40.3415 22.5675 40.2595 23.3178 40.154 24.0681C40.0133 25.0411 39.8843 26.0259 39.7788 27.0106C39.7554 27.2216 39.7671 27.4327 39.7671 27.6437C39.7671 27.7609 39.7437 27.8781 39.6381 27.9485C38.9699 28.394 37.7741 28.5581 37.059 28.0423C36.6487 27.7492 36.4494 27.3506 36.3322 26.8817C36.2149 26.4362 36.2618 25.9907 36.297 25.5452C36.4025 24.3846 36.5432 23.2357 36.6721 22.0868C36.848 20.5862 37.0004 19.0739 37.1762 17.5733C37.2231 17.2099 37.2231 16.8348 37.2583 16.4713C37.2583 16.4362 37.27 16.3893 37.2349 16.3776C37.1762 16.3424 37.1411 16.401 37.1059 16.4244C36.7425 16.6941 36.3791 16.9754 36.0274 17.2568C35.2536 17.8781 34.5268 18.5464 33.8703 19.2849C33.7413 19.4256 33.6827 19.5897 33.671 19.7773C33.5889 20.7972 33.4834 21.8172 33.4013 22.8371C33.3193 23.7633 33.2372 24.6894 33.1551 25.6155C33.0145 27.1982 32.8386 28.7808 32.5807 30.3635C32.2642 32.2978 31.5139 34.0563 30.2712 35.5686C29.1223 36.952 27.7272 38.0657 26.1329 38.9098C25.2419 39.3787 24.3158 39.707 23.331 39.9063C23.0965 39.9532 22.8621 39.9649 22.6276 39.9766H22.4517H22.3462C22.2759 39.9883 22.1938 39.9532 22.1235 40.0001H21.127C21.0684 39.9532 21.0098 39.9883 20.9512 39.9766H20.8574C20.7988 39.9766 20.7519 39.9883 20.6932 39.9649C20.2595 39.8946 19.8374 39.789 19.4271 39.6132C17.9265 38.9801 16.7894 37.5851 16.4963 36.0024C16.2618 34.7363 16.4377 33.5405 17.0121 32.3799C17.3521 31.6999 17.7859 31.0786 18.2782 30.5042C18.8527 29.8242 19.4857 29.2029 20.154 28.6167C20.5408 28.2767 20.9277 27.9485 21.3146 27.6202C21.3498 27.5968 21.3849 27.5616 21.4084 27.5382C21.4435 27.5147 21.4435 27.4795 21.4084 27.4444C21.3849 27.4209 21.3732 27.3975 21.3498 27.3858C20.8456 26.8465 20.5643 26.2017 20.4705 25.4749C20.4588 25.3576 20.4353 25.2404 20.4236 25.1349C20.365 25.1232 20.3533 25.17 20.3298 25.2052C20.0133 25.6155 19.6968 26.0141 19.3568 26.3893C19.0403 26.741 18.7003 27.0575 18.3251 27.3506C17.9148 27.6671 17.4693 27.9368 16.9652 28.0892C16.7073 28.1712 16.4377 28.2181 16.1563 28.2416C15.9101 28.2533 15.6639 28.2181 15.4295 28.1478C14.9605 27.9954 14.6088 27.6906 14.4095 27.2451C14.2102 26.7879 14.1516 26.3072 14.2102 25.8031C14.2806 25.3342 14.3392 24.8652 14.4095 24.3846C14.4682 23.9391 14.5385 23.4936 14.5971 23.0599C14.6675 22.5909 14.7261 22.122 14.7964 21.6413C14.8668 21.1841 14.9254 20.7269 14.9957 20.2697C15.0543 19.8125 15.1247 19.3553 15.1833 18.8981C15.2536 18.4174 15.324 17.925 15.3826 17.4444C15.4529 16.952 15.5115 16.4596 15.5702 15.9672C15.617 15.5686 15.6757 15.1701 15.7226 14.7597C15.7812 14.1736 15.875 13.5874 15.8867 12.9895C15.8867 12.9192 15.9101 12.8723 15.9687 12.8254C16.2384 12.6495 16.5315 12.5206 16.8363 12.462C17.1997 12.3799 17.5514 12.3916 17.9031 12.4737C18.4306 12.6026 18.7941 12.9192 19.0168 13.4116C19.134 13.6695 19.1927 13.9508 19.2396 14.2205C19.3099 14.6191 19.2513 15.0176 19.2161 15.4045C19.1692 15.8735 19.1223 16.3424 19.0637 16.7996C19.0051 17.292 18.9347 17.7726 18.8761 18.2533C18.8175 18.7339 18.7472 19.2146 18.6768 19.6835C18.6182 20.129 18.5479 20.5862 18.4893 21.0317C18.4189 21.4772 18.3603 21.9344 18.29 22.3799C18.2196 22.8254 18.161 23.2826 18.0907 23.7281C18.0789 23.8453 18.0555 23.9508 18.0438 24.0681C18.032 24.1384 18.0438 24.2087 18.0555 24.2791C18.1024 24.4315 18.1962 24.4784 18.3369 24.4198C18.4072 24.3846 18.4775 24.3494 18.5479 24.3025C18.9465 24.0563 19.2864 23.7281 19.5913 23.3647C20.0719 22.7902 20.4471 22.1572 20.7636 21.4772C20.7988 21.4069 20.8222 21.3482 20.8339 21.2779C21.3029 19.6015 22.1118 18.1126 23.2372 16.7879C23.9875 15.8969 24.8316 15.1232 25.8046 14.4784C26.9418 13.7281 28.1845 13.2357 29.5326 13.0012C30.4119 12.8488 31.2911 12.8137 32.1821 12.8723C32.5455 12.8957 32.8972 12.9309 33.2489 13.013C33.4365 13.0599 33.6124 13.1185 33.7765 13.2123C34.1399 13.4116 34.3275 13.7164 34.3158 14.1267C34.3158 14.3611 34.2689 14.5956 34.2337 14.8301C34.1634 15.3693 34.0813 15.8969 34.0109 16.4362C34.0813 16.4479 34.1165 16.3776 34.1516 16.3424C34.7143 15.7797 35.3005 15.2287 35.9101 14.7011C36.4611 14.2205 37.0356 13.7515 37.6335 13.3295C37.8914 13.1536 38.1493 12.9895 38.4189 12.8254C38.8058 12.5909 39.2161 12.5675 39.6499 12.6847C40.1774 12.8371 40.5526 13.1536 40.787 13.6343C40.9043 13.8805 40.9746 14.1384 41.0098 14.3963C41.0449 14.6659 41.0567 14.9239 41.0332 15.1935C40.9981 15.4514 40.9981 15.7093 40.9863 15.9672C40.9863 16.0141 40.9746 16.061 40.9863 16.1196C41.0567 16.0962 41.0801 16.0376 41.1153 15.9907C41.4787 15.5218 41.8656 15.0763 42.2759 14.6542C42.6979 14.2205 43.1551 13.8219 43.6592 13.4819C44.1516 13.1419 44.6909 12.8723 45.2653 12.7082C45.5584 12.6261 45.8632 12.5792 46.1563 12.5675C46.3908 12.5557 46.6135 12.5792 46.848 12.6261C47.4224 12.7668 47.8445 13.095 48.1141 13.6226C48.2782 13.9391 48.3603 14.2791 48.4072 14.6308C48.4541 14.9708 48.4658 15.3107 48.4189 15.639C48.3955 15.8266 48.3838 16.0141 48.372 16.2017C48.372 16.2603 48.3486 16.3072 48.372 16.3658C48.3838 16.3658 48.3955 16.3658 48.3955 16.3658C48.4424 16.3072 48.4893 16.2603 48.5362 16.2017C48.923 15.6976 49.3216 15.2052 49.7671 14.748C50.2126 14.3025 50.6698 13.8805 51.1856 13.5171C51.6663 13.1771 52.1821 12.884 52.7566 12.7082C53.0379 12.6261 53.3193 12.5792 53.6124 12.5557C53.9289 12.5323 54.2454 12.5792 54.5502 12.6847C55.1012 12.8723 55.4881 13.2357 55.7226 13.775C55.8398 14.0446 55.9101 14.3377 55.9453 14.6308C56.0156 15.1818 55.9687 15.7445 55.9219 16.2955C55.8281 17.1513 55.6874 18.0071 55.5702 18.8629C55.4646 19.6249 55.3591 20.3869 55.2536 21.1607C55.1598 21.8289 55.066 22.4971 54.9723 23.1771C54.9254 23.5171 54.8785 23.8688 54.8433 24.2087C54.8316 24.2908 54.8316 24.3729 54.8316 24.4432C54.8316 24.4901 54.8433 24.5253 54.855 24.5722C54.8785 24.6425 54.9488 24.6777 55.0309 24.6542C55.1129 24.6308 55.1833 24.5839 55.2536 24.5253C55.4764 24.3377 55.6757 24.1267 55.8398 23.8922C56.2853 23.2709 56.5901 22.5792 56.7542 21.8289C57.1762 19.8477 58.0438 18.0892 59.3568 16.5534C59.9664 15.8383 60.6346 15.1935 61.3849 14.6425C62.5924 13.7515 63.9289 13.1654 65.406 12.9192C66.1212 12.8019 66.8363 12.7433 67.5631 12.8019C68.0203 12.8371 68.4658 12.884 68.9113 12.9895C69.1692 13.0481 69.4154 13.1302 69.6499 13.2474C69.7906 13.3178 69.9195 13.3881 70.025 13.4936C70.154 13.646 70.2595 13.775 70.3064 13.9391ZM29.3802 24.5956C29.392 24.5018 29.392 24.408 29.392 24.3142C29.3802 24.3142 29.3685 24.3025 29.3568 24.3025C29.3099 24.3494 29.263 24.408 29.2161 24.4549C28.6768 25.0763 28.1141 25.6859 27.5045 26.2251C26.8949 26.7644 26.2501 27.2451 25.535 27.6202C24.7612 28.0188 23.9523 28.265 23.0731 28.2533C23.0145 28.2533 22.9676 28.265 22.9207 28.3119C22.8621 28.3705 22.8034 28.4409 22.7448 28.4995C22.1235 29.1443 21.5256 29.8125 21.0215 30.5511C20.6932 31.0317 20.4002 31.5358 20.2009 32.0868C20.025 32.5675 19.9078 33.0716 19.9312 33.5874C19.943 33.9157 19.9781 34.2439 20.0485 34.5722C20.2478 35.4631 20.6815 36.2251 21.4201 36.7879C21.9594 37.2099 22.5807 37.4678 23.2489 37.5499C23.9289 37.6319 24.5854 37.5382 25.2302 37.3154C26.4142 36.9168 27.4928 35.7562 27.821 34.7246C27.8679 34.5722 27.9265 34.4198 27.9617 34.2674C28.2548 33.2943 28.4424 32.2978 28.6065 31.2896C28.7472 30.4338 28.8761 29.5663 28.9699 28.6988C29.052 27.9485 29.134 27.1982 29.2161 26.4362C29.263 25.8383 29.3216 25.2169 29.3802 24.5956ZM30.3415 16.4713C30.3533 16.3776 30.365 16.272 30.3884 16.1665C30.3884 16.1314 30.3767 16.0962 30.3415 16.0845C30.3181 16.0727 30.3064 16.0727 30.2829 16.061C29.7437 15.9203 29.1927 15.8266 28.6417 15.8383C28.3134 15.85 27.9969 15.9086 27.6921 16.0376C27.2466 16.2252 26.8714 16.5182 26.5549 16.8699C26.168 17.292 25.8632 17.7726 25.6053 18.2885C24.9371 19.578 24.6206 20.9614 24.4682 22.3916C24.433 22.7081 24.4213 23.0247 24.4095 23.2826C24.3861 23.6226 24.3861 23.9157 24.4213 24.197C24.433 24.3142 24.4682 24.4432 24.5151 24.5487C24.5619 24.6659 24.6557 24.7363 24.7847 24.7128C24.855 24.7011 24.9254 24.7011 24.9957 24.6777C25.2185 24.6308 25.4177 24.537 25.617 24.4198C25.8984 24.2674 26.1563 24.0798 26.4025 23.8805C27.1645 23.2591 27.8328 22.5557 28.4072 21.7703C29.2044 20.68 29.7788 19.4842 30.0836 18.1712C30.1891 17.6202 30.2478 17.0458 30.3415 16.4713ZM66.3908 16.0962C66.4142 15.9672 66.3908 15.9555 66.2618 15.9321C65.9336 15.8735 65.5936 15.8148 65.2536 15.7797C64.7847 15.7445 64.3158 15.7679 63.8585 15.9203C63.2489 16.1079 62.7566 16.4713 62.3462 16.9637C62.1 17.2451 61.9007 17.5616 61.7249 17.9016C61.3732 18.5581 61.1036 19.238 60.9043 19.9414C60.5877 21.0669 60.4353 22.2275 60.4236 23.3998C60.4236 23.6108 60.4236 23.8336 60.4236 24.0446C60.4236 24.197 60.4588 24.3494 60.5057 24.4901C60.5877 24.748 60.6932 24.8183 60.9512 24.7597C61.1622 24.7128 61.3615 24.6308 61.5608 24.537C61.8539 24.3846 62.1235 24.1853 62.3814 23.9743C62.78 23.646 63.1551 23.2709 63.4951 22.8957C64.7144 21.5475 65.5584 19.9883 65.9805 18.2064C66.0625 17.8547 66.1212 17.503 66.1915 17.1513C66.2618 16.7879 66.3322 16.4362 66.3908 16.0962Z" fill="#B8B8BB"/>
</svg>
