<svg width="117" height="28" viewBox="0 0 117 28" fill="none" xmlns="http://www.w3.org/2000/svg">
<path d="M115.562 6.43458C115.041 5.13028 114.257 4.0877 113.302 3.04338C112.344 2.08689 111.128 1.30431 109.91 0.782584C108.605 0.174777 107.301 0 105.823 0C104.345 0 103.041 0.174777 101.649 0.782584C100.433 1.30431 99.3891 2.08689 98.3457 3.04338C97.3892 4.0877 96.6927 5.13028 96.0849 6.43458C95.4762 7.73889 95.2153 9.13015 95.2153 10.5214C95.2153 11.9135 95.4762 13.3048 96.0849 14.6952C96.6927 15.9134 97.3892 16.956 98.3457 18.0003C99.3891 18.9568 100.433 19.7394 101.649 20.2611C103.041 20.782 104.345 21.1306 105.823 21.1306C107.301 21.1306 108.605 20.782 109.91 20.2611C111.214 19.7394 112.344 18.9568 113.302 18.0003C114.257 16.956 115.041 15.9134 115.562 14.6952C116.084 13.3048 116.345 11.9135 116.345 10.5214C116.345 9.13015 116.084 7.73889 115.562 6.43458ZM113.736 10.5214C113.736 11.5657 113.476 12.6083 113.128 13.6526C112.779 14.5222 112.084 15.3917 111.475 16.0865C110.693 16.869 109.91 17.3908 108.954 17.8255C107.911 18.1733 106.866 18.4351 105.823 18.4351C104.692 18.4351 103.737 18.1733 102.779 17.8255C101.737 17.3908 100.954 16.869 100.259 16.0865C99.4752 15.3917 98.9543 14.5222 98.5196 13.6526C98.0848 12.6083 97.9109 11.5657 97.9109 10.5214C97.9109 9.47797 98.0848 8.43539 98.5196 7.39107C98.9543 6.52154 99.4752 5.652 100.259 4.95724C100.954 4.26074 101.737 3.65293 102.779 3.21816C103.737 2.78339 104.692 2.60861 105.823 2.60861C106.866 2.60861 107.911 2.78339 108.954 3.21816C109.91 3.65293 110.693 4.26074 111.475 4.95724C112.084 5.652 112.779 6.52154 113.128 7.39107C113.476 8.43539 113.736 9.47797 113.736 10.5214Z" fill="#B8B8BB"/>
<path d="M112.432 13.3047C112.779 12.4352 112.953 11.4787 112.953 10.5213C112.953 9.56483 112.779 8.6953 112.432 7.7388C111.997 6.95622 111.563 6.08668 110.867 5.47887C110.258 4.78237 109.389 4.34761 108.605 3.91284C107.65 3.65284 106.78 3.39111 105.823 3.39111C104.867 3.39111 103.911 3.65284 103.041 3.91284C102.172 4.34761 101.475 4.78237 100.779 5.47887C100.171 6.08668 99.5629 6.95622 99.3012 7.7388C98.8664 8.6953 98.6934 9.56483 98.6934 10.5213C98.6934 11.4787 98.9542 12.4352 99.3012 13.3047C99.5629 14.0873 100.171 14.9568 100.779 15.5646C101.475 16.2611 102.172 16.7829 103.041 17.1307C103.911 17.4776 104.867 17.6524 105.823 17.6524C106.78 17.6524 107.65 17.4776 108.605 17.1307C109.389 16.7829 110.258 16.2611 110.867 15.5646C111.563 14.9568 111.997 14.0873 112.432 13.3047ZM104.084 6.34841C104.692 6.08668 105.215 6.08668 105.823 6.08668C106.431 6.08668 106.954 6.08668 107.562 6.34841C108.17 6.6084 108.605 6.95622 109.04 7.39099C109.389 7.7388 109.736 8.26053 109.91 8.78225C110.258 9.30484 110.258 9.91265 110.258 10.5213C110.258 11.1309 110.258 11.7387 109.91 12.2604C109.736 12.783 109.389 13.3047 109.04 13.6525C108.605 14.0873 108.17 14.4342 107.562 14.6951C106.954 14.9568 106.431 15.0438 105.823 15.0438C105.215 15.0438 104.692 14.9568 104.084 14.6951C103.476 14.4342 103.041 14.0873 102.606 13.6525C102.172 13.3047 101.91 12.783 101.649 12.2604C101.475 11.7387 101.302 11.1309 101.302 10.5213C101.302 9.91265 101.475 9.30484 101.649 8.78225C101.91 8.26053 102.172 7.7388 102.606 7.39099C103.041 6.95622 103.476 6.6084 104.084 6.34841Z" fill="#B8B8BB"/>
<path d="M116.345 24.6949V22.0002H96.5197L91.9981 13.8256C92.8677 13.13 93.3885 12.2605 93.9111 11.304C94.3459 10.2614 94.6068 9.13014 94.6068 8.08756C94.6068 6.95629 94.3459 5.9998 93.9981 5.04418C93.6494 4.08769 93.0416 3.3051 92.3451 2.6086C91.6495 1.91384 90.7799 1.3043 89.9104 0.869526C88.9548 0.434757 87.9113 0.261719 86.7809 0.261719H82.868C82.0845 0.261719 81.4759 0.434757 80.8681 0.696488C80.3455 0.869526 79.8246 1.3043 79.302 1.73906C78.8672 2.17383 78.5203 2.78338 78.2594 3.3051C77.9977 3.91291 77.9116 4.52246 77.9116 5.21722V20.7819H80.5202V5.30417C80.5202 4.95722 80.6063 4.60941 80.6941 4.34768C80.7802 4.08769 80.955 3.91291 81.215 3.65292C81.4759 3.39119 81.6498 3.21815 81.9984 3.13033C82.1724 3.04337 82.5193 2.95642 82.868 2.95642L86.7809 2.87033C87.5626 2.87033 88.1713 3.04337 88.8669 3.39119C89.4756 3.65292 89.9982 3.91291 90.433 4.43463C90.9547 4.95722 91.3025 5.39199 91.5634 6.08676C91.8242 6.6963 91.9981 7.39106 91.9981 8.08756C91.9981 9.13014 91.6495 9.99968 91.1286 10.8692C90.606 11.7388 89.9104 12.3483 89.0408 12.7831C88.8669 12.7831 88.6939 12.9561 88.6061 13.0431C88.6061 13.13 88.6061 13.2178 88.6939 13.3048L95.0415 24.6949H116.345Z" fill="#B8B8BB"/>
<path d="M89.9102 4.95708C89.4755 4.52231 89.0407 4.26058 88.5199 4.08754C87.9973 3.82581 87.3895 3.65277 86.7808 3.65277H82.8679C82.5192 3.65277 82.3453 3.73973 82.0844 3.91276C81.9983 3.91276 81.7375 4.08754 81.5635 4.26058C81.4757 4.34753 81.3027 4.60926 81.2149 4.7823C81.1288 5.04403 81.1288 5.21707 81.1288 5.4788V20.7818H83.7374V6.95615C83.7374 6.78311 83.8235 6.69615 83.9113 6.52138C83.9983 6.34834 84.1722 6.34834 84.3461 6.34834L86.7808 6.26139C87.1277 6.26139 87.3016 6.34834 87.5625 6.43442C87.7364 6.52138 87.9112 6.69615 88.0851 6.86919C88.1712 6.95615 88.3459 7.13092 88.432 7.39092C88.5199 7.56569 88.6059 7.82569 88.6059 8.08742C88.6059 8.26045 88.5199 8.52218 88.432 8.69522C88.3459 8.95695 88.1712 9.12999 88.0851 9.30477C87.7364 9.65172 87.3016 9.82649 86.7808 9.82649H85.8234C85.2156 9.82649 84.7808 10.1743 84.5191 10.696C84.1722 11.2169 84.1722 11.8256 84.5191 12.4351L89.9102 22H50.2602C50.1732 22 50.0863 22 49.9115 21.9131C49.9115 21.9131 49.8254 21.7383 49.7385 21.6513L44.2595 3.65277C44.1734 3.218 43.9117 2.78323 43.5647 2.34846C43.3039 1.91369 43.0421 1.65196 42.6952 1.30415C42.2604 1.04416 41.8257 0.782425 41.3909 0.609387C40.8683 0.43461 40.3466 0.347656 39.8257 0.347656C39.391 0.347656 38.7823 0.43461 38.3475 0.609387C37.9127 0.782425 37.478 0.956333 37.0432 1.30415C36.6084 1.56588 36.3476 1.91369 35.9989 2.34846C35.7389 2.78323 35.478 3.218 35.3911 3.65277L29.9121 21.6513L29.6521 22H0V24.6947H30.0869C30.5217 24.6947 30.9564 24.6086 31.3912 24.26C31.826 23.9121 31.9999 23.6522 32.086 23.1296L37.9127 4.34753C37.9997 3.91276 38.1727 3.56495 38.6075 3.30496C38.9562 3.04323 39.391 2.87019 39.8257 2.87019C40.3466 2.87019 40.6953 3.04323 41.0431 3.30496C41.3909 3.56495 41.6509 3.91276 41.8257 4.34753L47.4777 23.1296C47.9124 24.1739 48.6072 24.6947 49.4767 24.6947H94.3458L87.5625 12.3482C87.9973 12.3482 88.5199 12.1734 88.9546 11.9134C89.3894 11.5656 89.8242 11.3038 90.1711 10.8691C90.4328 10.5213 90.7798 10.0865 90.8676 9.56476C91.1285 9.12999 91.1285 8.60827 91.1285 8.08742C91.1285 7.47787 91.1285 6.95615 90.8676 6.34834C90.6059 5.82662 90.2589 5.39185 89.9102 4.95708Z" fill="#B8B8BB"/>
<path d="M58.3465 0.261719C56.8674 0.261719 55.5631 0.609534 54.2588 1.13126C53.1293 1.65211 51.9989 2.34861 51.0424 3.3051C50.0859 4.26073 49.3902 5.39199 48.8685 6.52152C48.3468 7.82583 48.0859 9.13014 48.0859 10.5214C48.0859 11.9135 48.3468 13.2178 48.8685 14.5221C49.3902 15.7386 50.0859 16.7829 51.0424 17.7386C51.9989 18.6951 53.1293 19.3916 54.2588 19.9124C55.5631 20.4341 56.8674 20.7819 58.3465 20.7819H64.6933C64.1724 20.4341 63.7376 20.0863 63.3029 19.6516C62.9542 19.1298 62.6072 18.6951 62.3455 18.1733H58.3465C57.2161 18.1733 56.2596 18.0003 55.3031 17.5655C54.4336 17.2177 53.564 16.696 52.8684 15.9134C52.1719 15.2169 51.6502 14.4343 51.2154 13.4778C50.7806 12.6083 50.6946 11.5657 50.6946 10.5214C50.6946 9.47795 50.7806 8.52233 51.2154 7.56584C51.6502 6.6963 52.1719 5.82676 52.8684 5.13026C53.564 4.43463 54.4336 3.91291 55.3031 3.47814C56.3466 3.13033 57.3022 2.87033 58.3465 2.87033H61.8246V0.261719H58.3465Z" fill="#B8B8BB"/>
<path d="M55.3035 7.56575C55.7383 7.13098 56.1731 6.86925 56.6079 6.69622C57.2165 6.43448 57.7374 6.3484 58.3469 6.3484H61.8251V3.65283H58.3469C57.3026 3.65283 56.4331 3.82587 55.5635 4.17456C54.781 4.52237 53.9992 5.04409 53.3897 5.6519C52.7819 6.26145 52.2602 7.04316 51.9993 7.82575C51.5645 8.69528 51.3906 9.56482 51.3906 10.5213C51.3906 11.4787 51.5645 12.3482 51.9993 13.2178C52.2602 14.0873 52.7819 14.7821 53.3897 15.3916C53.9992 15.9994 54.781 16.4342 55.5635 16.7829C56.4331 17.2176 57.3026 17.3037 58.3469 17.3037H61.8251V14.7821H58.3469C57.7374 14.7821 57.2165 14.6951 56.6079 14.4342C56.1731 14.1742 55.7383 13.9125 55.3035 13.4777C54.8688 13.1299 54.6079 12.6952 54.434 12.1734C54.1731 11.6517 53.9992 11.1309 53.9992 10.5213C53.9992 9.99959 54.1731 9.47787 54.434 8.87006C54.6079 8.43529 54.8688 8.00052 55.3035 7.56575Z" fill="#B8B8BB"/>
<path d="M76.52 6.3484V3.65283H67.6507C67.3898 3.65283 67.2159 3.73979 66.9551 3.91282C66.7812 3.91282 66.6073 4.0876 66.4325 4.26064C66.2586 4.34759 66.1725 4.60932 65.9977 4.78236C65.9116 5.04409 65.9116 5.21713 65.9116 5.47886V10.1744H73.3888L74.1722 8.00052H68.5202V6.95621C68.5202 6.78317 68.6063 6.69622 68.6941 6.52144C68.7811 6.3484 69.0411 6.3484 69.1289 6.3484H76.52Z" fill="#B8B8BB"/>
<path d="M76.5205 2.87033V0.261719H67.6512C66.9556 0.261719 66.3469 0.434757 65.7382 0.696488C65.1287 0.869526 64.6078 1.3043 64.173 1.73906C63.7383 2.17383 63.3035 2.78338 63.1296 3.3051C62.8687 3.91291 62.6948 4.52246 62.6948 5.21722V15.8265C62.6948 16.4343 62.8687 17.1308 63.1296 17.7386C63.3035 18.2603 63.7383 18.8698 64.173 19.3046C64.6078 19.7394 65.1287 20.0863 65.7382 20.3472C66.3469 20.6089 66.9556 20.7819 67.6512 20.7819H76.5205V18.1733H67.6512C67.3025 18.1733 67.0425 18.0873 66.6938 18.0003C66.433 17.8255 66.173 17.6525 65.9121 17.4777C65.7382 17.2177 65.5634 16.956 65.4773 16.696C65.3034 16.4343 65.3034 16.0864 65.3034 15.8265V5.30417C65.3034 4.95722 65.3034 4.60941 65.4773 4.34768C65.5634 4.08769 65.7382 3.91291 65.9121 3.65292C66.173 3.39119 66.433 3.21815 66.6938 3.13033C67.0425 3.04337 67.3025 2.95642 67.6512 2.95642L76.5205 2.87033Z" fill="#B8B8BB"/>
<path d="M68.6941 14.5221C68.5202 14.4342 68.5202 14.3473 68.5202 14.0873V13.4778H72.2593L73.1288 10.8691H65.9116V15.6516C65.9116 15.9133 65.9116 16.0864 65.9977 16.3481C66.1725 16.5211 66.2586 16.6959 66.4325 16.869C66.6073 17.0429 66.7812 17.1307 66.9551 17.2176C67.2159 17.3037 67.3898 17.3037 67.6507 17.3037H76.52V14.7821H69.1289C68.955 14.7821 68.7811 14.6951 68.6941 14.5221Z" fill="#B8B8BB"/>
<path d="M45.8254 22.26H46.0854L46.1732 22.173V22H45.8254C45.0428 22 44.3463 21.8252 43.6516 21.5652C42.9551 21.2165 42.4342 20.8687 41.8255 20.347C41.3029 19.9122 40.8682 19.3914 40.5212 18.6949C40.2604 18.0871 39.9986 17.3036 39.9117 16.608V16.521L39.8256 16.4341C39.8256 16.4341 39.7386 16.4341 39.6517 16.521V16.608C39.5639 17.3036 39.3908 18.0871 39.0421 18.6949C38.6943 19.3914 38.2596 19.9122 37.7378 20.347C37.217 20.8687 36.6083 21.2165 35.9127 21.5652C35.2162 21.8252 34.5214 22 33.7388 22H33.3901V22.173C33.4771 22.26 33.5649 22.26 33.5649 22.26H33.7388C34.5214 22.26 35.2162 22.4348 35.9127 22.6948C36.6083 22.9556 37.217 23.3043 37.7378 23.8252C38.2596 24.2599 38.6943 24.8686 39.0421 25.4782C39.3908 26.1729 39.5639 26.8685 39.6517 27.652V27.7381H39.8256L39.9117 27.652C39.9986 26.8685 40.2604 26.1729 40.5212 25.4782C40.8682 24.8686 41.3029 24.2599 41.8255 23.8252C42.4342 23.3043 42.9551 22.9556 43.6516 22.6948C44.3463 22.4348 45.0428 22.26 45.8254 22.26Z" fill="#B8B8BB"/>
<path d="M21.7382 0.261719C21.0435 0.261719 20.4339 0.434757 19.8261 0.696488C19.2174 0.869526 18.6948 1.3043 18.2601 1.73906C17.8253 2.17383 17.4783 2.78338 17.1305 3.3051C16.9558 3.91291 16.7827 4.52246 16.7827 5.21722V15.8265C16.7827 16.4343 16.9558 17.1308 17.1305 17.7386C17.4783 18.2603 17.8253 18.8698 18.2601 19.3046C18.6948 19.7394 19.2174 20.0863 19.8261 20.3472C20.4339 20.6089 21.0435 20.7819 21.7382 20.7819H28.5215L29.391 18.1733H21.7382C21.3913 18.1733 21.1304 18.0873 20.8687 18.0003C20.5217 17.8255 20.347 17.6525 20.087 17.4777C19.8261 17.2177 19.6522 16.956 19.5644 16.696C19.4774 16.4343 19.3913 16.0864 19.3913 15.8265V5.30417C19.3913 4.95722 19.4774 4.60941 19.5644 4.34768C19.6522 4.08769 19.8261 3.91291 20.087 3.65292C20.347 3.39119 20.5217 3.21815 20.8687 3.13033C21.1304 3.04337 21.3913 2.95642 21.7382 2.95642H31.4779L32.2605 0.261719H21.7382Z" fill="#B8B8BB"/>
<path d="M21.7386 3.65283C21.4786 3.65283 21.3038 3.73979 21.0438 3.91282C20.8691 3.91282 20.696 4.0876 20.5221 4.26064C20.3473 4.34759 20.1743 4.60932 20.1743 4.78236C20.0873 5.04409 19.9995 5.21713 19.9995 5.47886V10.1744H27.4784L28.1732 8.00052H22.6959V6.95621C22.6959 6.78317 22.696 6.69622 22.7829 6.52144C22.9559 6.3484 23.1307 6.3484 23.2177 6.3484H30.434L31.2166 3.65283H21.7386Z" fill="#B8B8BB"/>
<path d="M13.4778 3.3051C12.5213 2.34861 11.3918 1.65211 10.1745 1.13126C8.87016 0.609534 7.56585 0.261719 6.17459 0.261719H4.87028C4.26074 0.261719 3.56598 0.434757 3.04338 0.696488C2.34862 0.869526 1.8269 1.3043 1.39213 1.73906C0.957362 2.17383 0.609546 2.78338 0.347815 3.3051C0.0878234 3.91291 0 4.52246 0 5.21722V20.7819H6.17459C7.56585 20.7819 8.87016 20.4341 10.1745 19.9124C11.3918 19.3916 12.5213 18.6951 13.4778 17.7386C14.3474 16.7829 15.13 15.7386 15.6517 14.5221C16.1743 13.2178 16.4343 11.9135 16.4343 10.5214C16.4343 9.13014 16.1743 7.82583 15.6517 6.52152C15.13 5.39199 14.3474 4.26073 13.4778 3.3051ZM11.5657 5.13026C12.2614 5.82676 12.7831 6.6963 13.2179 7.56584C13.6526 8.52233 13.8257 9.47795 13.8257 10.5214C13.8257 11.5657 13.6526 12.6083 13.2179 13.4778C12.87 14.4343 12.2614 15.2169 11.6518 15.9134C10.9571 16.696 10.0875 17.2177 9.21797 17.5655C8.26061 18.0003 7.21804 18.1733 6.17459 18.1733H2.52166V5.21722C2.52166 4.95723 2.60861 4.60941 2.69644 4.34768C2.78339 4.08769 3.04338 3.73987 3.21816 3.65292C3.47815 3.39119 3.65293 3.21815 4.00075 3.04337C4.26074 2.95642 4.52247 2.87033 4.87028 2.87033H6.17459C7.13108 2.87033 8.17366 3.04337 9.13015 3.47814C10.0875 3.91291 10.8692 4.43463 11.5657 5.13026Z" fill="#B8B8BB"/>
<path d="M12.5215 7.82575C12.1737 7.04316 11.7389 6.26145 11.0441 5.6519C10.4346 5.04409 9.65288 4.52237 8.8703 4.17456C8.00076 3.82587 7.13122 3.65283 6.17473 3.65283H4.87042C4.69565 3.65283 4.43565 3.65283 4.26088 3.82587C4.00089 3.91282 3.91306 4.0876 3.65307 4.26064C3.56612 4.34759 3.47829 4.52237 3.30526 4.78236C3.2183 4.95714 3.13135 5.21713 3.13135 5.39191L3.2183 17.3037H6.17473C7.13122 17.3037 8.00076 17.2176 8.8703 16.7829C9.65288 16.4342 10.4346 15.9994 11.0441 15.3916C11.7389 14.7821 12.1737 14.0873 12.5215 13.2178C12.8702 12.3482 13.131 11.4787 13.131 10.5213C13.131 9.56482 12.8702 8.69528 12.5215 7.82575ZM10.4346 10.5213C10.4346 11.1309 10.2616 11.6517 10.0877 12.1734C9.91288 12.6952 9.56506 13.1299 9.21811 13.4777C8.78335 13.9125 8.34858 14.1742 7.82598 14.4342C7.30426 14.6951 6.78341 14.7821 6.17473 14.7821H5.73996V6.95621C5.73996 6.78317 5.82692 6.69622 5.91387 6.52144C6.08691 6.3484 6.17473 6.3484 6.43472 6.3484H6.52168C7.04427 6.3484 7.56599 6.52144 8.00076 6.69622C8.52248 6.95621 8.95725 7.30402 9.30507 7.65271C9.65288 8.00052 9.91288 8.43529 10.0877 8.95702C10.2616 9.47787 10.4346 9.99959 10.4346 10.5213Z" fill="#B8B8BB"/>
<path d="M19.9995 15.6516C19.9995 15.9133 20.0873 16.0864 20.1743 16.3481C20.1743 16.5211 20.3473 16.6959 20.5221 16.869C20.696 17.0429 20.8691 17.1307 21.0438 17.2176C21.3038 17.3037 21.4786 17.3037 21.7386 17.3037H29.6523L30.434 14.7821H23.2177C23.0429 14.7821 22.9559 14.6951 22.7829 14.5221C22.6959 14.4342 22.6081 14.3473 22.6081 14.0873L22.6959 13.4778H26.4341L27.3036 10.8691H19.9995V15.6516Z" fill="#B8B8BB"/>
<path d="M116.345 27.9998V25.3912H49.5635C48.9557 25.3912 48.347 25.1295 47.9122 24.7816C47.4774 24.4338 47.0427 23.9991 46.9548 23.3904H45.7384C45.3036 23.3904 44.781 23.4773 44.2593 23.6521L44.4341 24.0869C44.608 24.6086 44.8688 25.1295 45.1288 25.6512C45.5636 26.0859 45.9123 26.5207 46.347 26.8685C46.7818 27.2172 47.3027 27.4772 47.8244 27.7381C48.347 27.825 49.0417 27.9998 49.6513 27.9998H116.345Z" fill="#B8B8BB"/>
<path d="M45.7385 20.7819H46.1732L41.216 4.60932C41.1299 4.34759 40.956 4.0876 40.6952 3.91282C40.4334 3.65283 40.1734 3.65283 39.8256 3.65283C39.4769 3.65283 39.2169 3.73979 38.9561 3.91282C38.6943 4.0876 38.5213 4.34759 38.5213 4.69541L33.5649 20.7819H33.9119C34.8692 20.7819 35.7388 20.6088 36.5205 19.9993L38.9561 11.7387C39.0422 11.4787 39.1291 11.3909 39.3039 11.3039C39.4769 11.1309 39.6517 11.0439 39.8256 11.0439C39.9987 11.0439 40.1734 11.1309 40.3465 11.3039C40.5212 11.3039 40.6082 11.4787 40.6952 11.7387L43.2168 20.0862C43.5646 20.261 43.9994 20.434 44.4342 20.6088C44.8689 20.7819 45.3037 20.7819 45.7385 20.7819Z" fill="#B8B8BB"/>
<path d="M0 25.3912V27.9998H30.0869C30.7817 27.9998 31.3034 27.825 31.826 27.7381C32.4346 27.4772 32.8694 27.2172 33.3903 26.8685C33.825 26.5207 34.2598 26.0859 34.6085 25.6512C34.8694 25.1295 35.1293 24.6086 35.3041 24.0869L35.3911 23.6521C34.9563 23.4773 34.4346 23.3904 33.912 23.3904H32.6955C32.6077 23.9991 32.2607 24.5217 31.826 24.7816C31.3912 25.1295 30.7817 25.3912 30.1738 25.3912H0Z" fill="#B8B8BB"/>
</svg>
