<svg width="108" height="24" viewBox="0 0 108 24" fill="none" xmlns="http://www.w3.org/2000/svg">
<path fill-rule="evenodd" clip-rule="evenodd" d="M17.9569 0.777319H0.17301C0.086505 0.777319 0 0.863824 0 0.949715C0 1.03561 0.086505 1.12212 0.17301 1.20862C0.345407 1.29513 0.431913 1.20862 0.604923 1.29513C0.777321 1.38163 0.863826 1.46752 1.03622 1.55403C1.20923 1.72642 1.29512 1.81293 1.46814 2.07183C1.64053 2.24484 1.72704 2.41724 1.72704 2.67614C1.81354 2.84915 1.81354 2.93504 1.89943 3.19456V23.3945H11.9138C12.0862 23.3945 12.1727 23.308 12.1727 23.1356C12.0862 22.9632 11.9997 22.9632 11.8273 22.8767C11.6549 22.7902 11.4825 22.7901 11.2236 22.6178L10.7917 22.1865C10.6193 22.0141 10.5328 21.9276 10.4469 21.7552C10.3604 21.5815 10.2739 21.4091 10.2739 21.2361C10.1874 20.9772 10.1874 20.8048 10.1874 20.5459V12.6899H12.6911C13.123 12.7764 13.3819 12.7764 13.7267 12.7764C13.9856 12.8629 14.1586 12.8629 14.331 12.9488C14.6758 13.0353 14.9354 13.0353 15.1943 13.2077C15.5397 13.2942 15.6262 13.3801 16.0575 13.4666C16.4029 13.6402 16.4029 13.7267 16.6618 13.8991C16.9207 13.9856 17.0937 14.0715 17.2661 14.3304C17.525 14.4169 17.6115 14.5893 17.7839 14.7617C17.9569 14.9341 18.0428 15.0206 18.1293 15.193C18.3023 15.4519 18.3882 15.5378 18.4747 15.7967C18.5612 15.9703 18.5612 16.1427 18.6471 16.3158C18.6471 16.4023 18.7336 16.4882 18.906 16.4882C18.9925 16.4882 19.1649 16.4016 19.0784 16.3158C18.3017 12.7758 18.3882 13.2936 17.4385 8.97753C17.4355 8.93264 17.4163 8.89036 17.3845 8.85855C17.3526 8.82673 17.3104 8.80753 17.2655 8.80452H17.0066C16.8336 8.89102 16.9201 9.23643 16.9201 9.58184C16.8336 9.84074 16.8336 10.0138 16.6612 10.2727C16.4888 10.5316 16.4023 10.6181 16.2299 10.7046C15.9703 10.877 15.8845 10.9635 15.6256 11.05C15.4532 11.1365 15.3667 11.1365 15.1936 11.1365H10.1868V2.24484H12.8629C13.2948 2.24484 13.5537 2.33135 13.985 2.41724C14.4169 2.50375 14.5893 2.50374 15.0212 2.67614C15.3667 2.76265 15.539 2.84915 15.8845 3.02155C16.2299 3.19456 16.4888 3.28045 16.8342 3.45346C17.0072 3.62586 17.1796 3.71236 17.4385 3.97127C17.6109 4.14428 17.6974 4.23017 17.8698 4.48907C18.1287 4.66147 18.2152 4.83448 18.3882 5.17989C18.4747 5.43879 18.5606 5.69769 18.6471 5.87009C18.6471 5.95659 18.8201 5.95659 18.906 5.95659C18.906 5.95659 19.0784 5.95659 19.0784 5.87009C18.5612 3.36696 18.5612 3.28106 17.9569 0.777319ZM29.6106 20.5465V12.6905H32.1143C32.5462 12.777 32.7186 12.777 33.1499 12.777C33.4088 12.8635 33.4947 12.8635 33.7542 12.9494C34.0996 13.0359 34.272 13.0359 34.6175 13.2083C34.9629 13.2948 35.0494 13.3807 35.3942 13.4672C35.7396 13.6408 35.8261 13.7273 36.085 13.8997C36.3439 13.9862 36.4304 14.0721 36.6893 14.331C36.8623 14.4175 36.9482 14.5899 37.1212 14.7623L37.5531 15.1936C37.6396 15.4525 37.7261 15.5384 37.812 15.7973C37.8979 15.971 37.9844 16.1434 37.9844 16.3164C37.9844 16.4029 38.0709 16.4888 38.3292 16.4888C38.4157 16.4888 38.5022 16.4023 38.5022 16.3164C37.7255 12.7764 37.812 13.2942 36.8623 8.97814C36.7758 8.89164 36.7758 8.80513 36.6034 8.80513H36.431C36.258 8.89164 36.3445 9.23705 36.258 9.58245C36.258 9.84136 36.1715 10.0144 36.0856 10.2733C35.9132 10.5322 35.8267 10.6187 35.5678 10.7052C35.3948 10.8776 35.2224 10.9641 35.05 11.0506C34.877 11.1371 34.7046 11.1371 34.5322 11.1371H29.5247V2.24484H32.2873C32.7192 2.24484 32.9781 2.33135 33.4094 2.41724C33.7549 2.50375 34.0138 2.50374 34.3592 2.67614C34.7046 2.76265 34.877 2.84915 35.2224 3.02155C35.6543 3.19456 35.8267 3.28045 36.1721 3.45346C36.431 3.62586 36.604 3.71236 36.7764 3.97127C37.0353 4.14428 37.1218 4.23017 37.2942 4.48907C37.4666 4.66147 37.6396 4.83448 37.8126 5.17989C37.8985 5.43879 37.985 5.69769 38.0715 5.87009C38.0715 5.95659 38.158 5.95659 38.2439 5.95659C38.3298 5.95659 38.5028 5.95659 38.5028 5.87009C37.985 3.36634 37.985 3.28045 37.3801 0.776706H19.5968C19.5103 0.776706 19.4244 0.86321 19.4244 0.949102C19.4244 1.03499 19.5109 1.1215 19.5968 1.20801C19.6833 1.29451 19.8557 1.20801 20.0287 1.29451C20.2017 1.38102 20.2876 1.46691 20.3741 1.55341C20.633 1.72581 20.7189 1.81232 20.8919 2.07122C21.0643 2.24423 21.0643 2.41663 21.1508 2.67553C21.2374 2.84854 21.2374 2.93443 21.3239 3.19395V23.3938H37.3807L38.5034 18.3011L38.4169 18.1287H38.2439C38.0715 18.1287 38.0715 18.3011 37.985 18.4735C37.8126 18.9048 37.8126 18.9913 37.6396 19.2502C37.3807 19.5962 37.2942 19.6827 37.1218 19.9416C36.8629 20.114 36.6899 20.2864 36.4316 20.4594C35.9997 20.7183 35.8273 20.8907 35.3954 21.0631C34.9641 21.322 34.7052 21.4079 34.2733 21.4956C33.7555 21.6668 33.496 21.6668 32.9788 21.7545C32.7199 21.841 32.5468 21.841 32.2879 21.841C31.1658 21.9276 29.6118 21.9276 29.6118 21.9276C29.6106 21.4091 29.6106 20.5465 29.6106 20.5465ZM43.8551 7.76952V20.46C43.8551 20.7189 43.8551 20.9778 43.9416 21.2367C44.0281 21.5815 44.114 21.7558 44.3729 22.1006C44.4594 22.273 44.6318 22.4454 44.8048 22.5319C45.0637 22.7908 45.2361 22.7908 45.5822 22.8767C45.7545 22.9632 45.8411 23.0491 45.8411 23.1356C45.8411 23.308 45.7545 23.3945 45.5822 23.3945H40.7477V3.53935C40.6612 3.19456 40.6612 2.93504 40.4888 2.67614C40.4023 2.33135 40.3158 2.07183 40.0569 1.81293C39.798 1.55403 39.7121 1.46813 39.4525 1.38163C39.2801 1.29512 39.1078 1.20923 38.9347 1.20923C38.7617 1.20923 38.7617 1.20923 38.7617 0.950329C38.7617 0.863823 38.8482 0.777933 39.0206 0.777933H48.1718C48.5166 0.777933 48.7761 0.777931 49.035 0.950329C49.2939 1.03683 49.4669 1.03684 49.7258 1.20923C49.9847 1.38163 50.0706 1.46813 50.3301 1.64053C50.5025 1.89943 50.589 2.07245 50.762 2.33135C52.402 5.1805 53.0928 6.47501 54.5609 9.23766C54.6474 9.41006 54.8198 9.49656 54.9922 9.66896C55.1646 9.75546 55.337 9.84197 55.5959 9.84197C55.8548 9.84197 56.0272 9.92847 56.2873 9.75546C56.5462 9.66896 56.6321 9.58245 56.8051 9.32355C56.9775 8.97814 57.064 8.80513 57.064 8.46034C57.4953 5.61119 57.6677 4.92099 58.2733 1.03622C58.3598 0.777322 58.4457 0.777319 58.5322 0.777319H67.5097V20.2011C67.5097 20.7189 67.5097 20.9778 67.6821 21.4963C67.8545 21.841 67.9422 21.9276 68.2011 22.3589C68.3735 22.5312 68.5459 22.6178 68.8048 22.7902C68.9772 22.8767 69.1496 22.8767 69.3226 22.8767C69.4091 22.9632 69.495 23.0491 69.495 23.1356C69.495 23.308 69.3226 23.3945 69.2361 23.3945H59.3083V7.94253L52.9547 24H52.8725L43.8551 7.76952ZM85.0335 7.33822L84.6022 1.55403C84.4298 1.46752 84.3433 1.38163 84.0844 1.29513C83.5653 1.03622 83.2205 0.949716 82.6162 0.777319C82.0125 0.518417 81.58 0.431915 80.8898 0.34541C80.2068 0.188594 79.5149 0.0732453 78.818 0H77.0915C76.4013 0.0865053 75.97 0.0865035 75.2786 0.258901C74.7608 0.431298 74.416 0.517804 73.8982 0.776706C73.3792 0.949103 73.1203 1.1215 72.7755 1.38102C72.2577 1.72581 71.9129 1.89882 71.4804 2.41663C71.0491 2.84854 70.8767 3.10683 70.5313 3.62524C70.2724 4.05716 70.1865 4.31606 70.0135 4.83386C69.8398 5.35167 69.7533 5.61057 69.7533 6.21488C69.6668 6.7333 69.6668 7.0781 69.7533 7.68241C69.7533 8.20082 69.8398 8.54562 70.0135 9.15054C70.1858 9.58184 70.2723 9.84074 70.4447 10.2727C70.7036 10.7046 70.8761 10.9629 71.2215 11.3948C71.4804 11.8267 71.6528 11.9991 71.9994 12.431C72.4307 12.8623 72.7761 13.1212 73.2933 13.4666C73.7246 13.8126 73.9847 13.9856 74.5025 14.2445C75.0203 14.5034 75.2792 14.6758 75.8842 14.9347C76.402 15.2795 76.8333 15.4525 77.3511 15.7973C77.6959 16.0575 77.956 16.1434 78.3014 16.4888C78.5603 16.7477 78.6462 16.9201 78.8192 17.2655C78.9057 17.5244 78.9057 17.6968 78.9057 17.9569C78.9057 18.3017 78.9057 18.5606 78.7333 18.8195C78.5609 19.0784 78.3885 19.2508 78.1296 19.4232C77.8707 19.5968 77.6106 19.6833 77.2658 19.7692C76.8345 19.9416 76.4891 19.8557 75.9719 19.7692C75.5394 19.7692 75.367 19.5968 74.9357 19.4232C74.4179 19.2508 74.159 19.0784 73.7264 18.733C73.3816 18.4741 72.9497 18.0428 72.4325 17.6115C71.9147 17.0066 71.7411 16.6612 71.2233 16.1434C71.0509 15.8845 70.8785 15.5384 70.7055 15.4519C70.619 15.4519 70.4466 15.5384 70.4466 15.6256V21.4956C70.7055 21.7545 70.8779 21.9269 71.2233 22.1858C71.7411 22.5306 72.0871 22.7036 72.6914 22.9625C73.2957 23.2215 73.6405 23.3073 74.332 23.5662C74.9357 23.7399 75.2811 23.8264 75.886 23.9123C76.2155 23.9779 76.4443 23.9951 76.6891 23.9988C76.694 23.9988 76.6989 23.9975 76.7044 23.9988H76.7786C76.7829 23.9988 76.7885 23.9975 76.794 23.9988H78.8174C79.3352 23.9123 79.6812 23.9123 80.199 23.7399C80.6303 23.6521 80.8027 23.6521 81.2346 23.481C81.8395 23.3073 82.0984 23.1349 82.6162 22.7895C83.134 22.4441 83.4788 22.2717 83.9114 21.8404C84.3427 21.4956 84.6881 21.0625 85.0329 20.4588C85.5519 19.6821 85.8108 19.2496 85.9832 18.387C86.0697 17.8692 86.1556 17.6103 86.1556 17.1777C86.2421 16.401 86.328 15.9697 86.2421 15.2783C86.1556 14.5016 85.9832 14.0703 85.7243 13.3789C85.4642 12.6022 85.2053 12.1709 84.774 11.48C84.2561 10.7898 83.9972 10.4444 83.3058 9.92663C82.788 9.40822 82.4432 9.23582 81.753 8.8039C81.0616 8.37261 80.6303 8.2861 79.9401 7.94069C79.1621 7.50878 78.7309 7.42289 78.1272 6.99097C77.6946 6.73207 77.4357 6.55906 77.1768 6.21365C76.9179 5.95475 76.7455 5.78236 76.659 5.43695V4.74675C76.7455 4.40134 76.9179 4.14244 77.1768 3.96943C77.5216 3.62402 77.8683 3.62402 78.2996 3.53751C78.7308 3.53751 78.9898 3.53751 79.4211 3.62402C79.9401 3.71052 80.199 3.79642 80.7162 4.05593C81.234 4.22833 81.4929 4.40073 81.9254 4.65963C82.3567 5.00504 82.6156 5.17805 82.961 5.52284C83.5647 6.04126 83.8248 6.30016 84.3427 6.90386C84.5151 7.07625 84.5151 7.33577 84.774 7.33577C84.8611 7.33822 85.0335 7.42411 85.0335 7.33822ZM93.7533 0.173009L105.494 21.668L105.667 21.8417C105.839 22.0141 105.925 22.1006 106.184 22.273C106.443 22.4454 106.529 22.5319 106.875 22.7043C107.135 22.7908 107.307 22.7908 107.479 22.8767C107.652 22.8767 107.738 22.8767 107.824 23.0491C107.824 23.2215 107.738 23.3938 107.652 23.3938H98.3283C98.0694 23.3938 97.9835 23.3073 97.7246 23.3073C97.3798 23.2208 97.2056 23.1349 96.8608 22.9625C96.516 22.7036 96.343 22.5313 96.0841 22.2723C95.8252 21.9276 95.7393 21.7545 95.4804 21.4085C93.7539 18.3017 93.6674 18.0428 91.8545 14.5893C91.6821 14.3304 91.5097 14.2445 91.2496 14.0715C90.9907 13.8991 90.8183 13.8991 90.5594 13.8126C90.2146 13.8126 90.0416 13.8126 89.7827 13.8991C89.4366 13.9856 89.2636 13.9856 89.0047 14.2439C88.6599 14.4163 88.5734 14.5887 88.401 14.8476C88.2286 15.1065 88.1421 15.4513 87.9697 15.7114C87.8832 15.7967 87.7973 15.8838 87.6249 15.7967C87.5384 15.7967 87.4513 15.6255 87.5384 15.5378C89.6968 10.0138 89.6103 10.1861 93.5815 0.172396L93.7533 0.173009Z" fill="#B8B8BB"/>
</svg>
