<svg width="95" height="24" viewBox="0 0 95 24" fill="none" xmlns="http://www.w3.org/2000/svg">
<path d="M57.552 12.9691C57.0066 12.5044 56.3913 12.1287 55.7288 11.8559C55.0864 11.5725 54.4018 11.3965 53.7024 11.3349C54.4434 11.2199 55.1397 10.9071 55.7179 10.4295C56.3256 9.95208 56.7932 9.31951 57.0714 8.59851C57.3609 7.81641 57.5028 6.98741 57.49 6.15355C57.49 4.17732 56.8078 2.71841 55.4435 1.77681C54.0791 0.835203 52.2642 0.366986 49.9985 0.372112H32.459V23.628H50.8946C52.7479 23.628 54.2983 23.3773 55.5458 22.876C56.7933 22.3747 57.7029 21.6342 58.2745 20.6543C58.8481 19.6755 59.135 18.5014 59.135 17.1318C59.1448 16.3105 59.0077 15.4941 58.7303 14.721C58.4953 14.0449 58.0919 13.4398 57.5582 12.9629M37.9489 4.7458H48.2171C49.0357 4.7458 49.6771 4.83262 50.1412 5.00626C50.5932 5.17036 50.981 5.47454 51.2481 5.87448C51.5214 6.27488 51.6653 6.74943 51.6607 7.23417C51.6607 8.10239 51.4264 8.74631 50.9582 9.16595C50.49 9.58559 49.706 9.79541 48.6063 9.79541H37.9427L37.9489 4.7458ZM52.8326 18.2109C52.4884 18.5842 52.0437 18.8502 51.552 18.9768C50.8501 19.1548 50.127 19.2352 49.4032 19.2156H37.9427V14.1272H49.5194C50.8032 14.1272 51.7536 14.3339 52.3706 14.7473C52.9877 15.1608 53.2977 15.8047 53.3008 16.6791C53.3008 17.353 53.1458 17.8667 52.8357 18.2202" fill="#B8B8BB"/>
<path d="M87.4931 0.365967L79.3164 18.0915L71.3133 0.365967H64.0776V23.6342H69.4032V8.10705L76.4652 23.6342H81.9784L89.2435 8.10705V23.6342H94.597V0.365967H87.4931Z" fill="#B8B8BB"/>
<path d="M26.3566 10.0682H12.8682V14.4605H21.5721C21.4498 15.1075 21.2275 15.7315 20.9132 16.3101C20.3251 17.3519 19.3897 18.1406 18.107 18.676C16.9566 19.155 15.5054 19.4 13.7581 19.4512C12.076 19.4217 10.6279 19.1659 9.41705 18.676C8.13643 18.153 7.19948 17.3747 6.6062 16.3411C6.01292 15.3075 5.71628 13.8662 5.71628 12.0171C5.71628 10.1752 6.01034 8.73282 6.59845 7.68992C7.18656 6.64703 8.12248 5.8584 9.4062 5.32403C10.5566 4.84496 12.0078 4.6 13.755 4.54884C15.4367 4.57778 16.8811 4.83618 18.0884 5.32403C18.9043 5.63972 19.6398 6.13274 20.2419 6.76744H26.6667C26.5122 6.34246 26.3299 5.92812 26.1209 5.52713C25.1907 3.75659 23.6832 2.3938 21.5984 1.43876C19.5137 0.483721 17.0899 0.00413437 14.3271 0C14.1333 0 13.9442 0 13.755 0C11.0109 0.0434109 8.62326 0.489406 6.59225 1.33798C4.45375 2.23514 2.82067 3.54935 1.69302 5.28062C0.565375 7.01189 0.00103359 9.25736 0 12.0171C0 14.5556 0.465116 16.7096 1.39535 18.4791C2.32558 20.2486 3.83307 21.6114 5.91783 22.5674C8.00258 23.5225 10.4227 24 13.1783 24C13.3721 24 13.5612 24 13.7504 24C16.4946 23.9566 18.8822 23.5106 20.9132 22.662C23.0496 21.7638 24.6827 20.4496 25.8124 18.7194C26.9421 16.9891 27.5065 14.7437 27.5054 11.9829C27.5059 11.3434 27.4733 10.7043 27.4078 10.0682H26.3566Z" fill="#B8B8BB"/>
</svg>
