<svg width="162" height="23" viewBox="0 0 162 23" fill="none" xmlns="http://www.w3.org/2000/svg">
<path d="M42.6607 0H38.7569V5.43016H36.8533V8.8909H38.7569V22.2382H42.6607V8.8909H45.0073V5.43016H42.6607V0Z" fill="white"/>
<path d="M102.41 4.87333C100.673 4.87333 99.0281 5.39968 97.6464 6.31202V0.00460815H93.747V13.0668C93.7383 13.2379 93.7295 13.4133 93.7295 13.5888C93.7295 18.2514 97.5718 22.2428 102.414 22.2428C106.932 22.2428 111.038 18.8698 111.038 13.5318C111.033 8.53584 107.015 4.87333 102.41 4.87333ZM102.41 18.6593C99.9448 18.6593 97.6289 16.6635 97.6289 13.5844C97.6289 10.1807 100.388 8.45249 102.41 8.45249C104.844 8.45249 107.134 10.6544 107.134 13.6151C107.134 16.1942 105.257 18.6593 102.41 18.6593Z" fill="white"/>
<path d="M121.24 4.78101C116.223 4.78101 112.674 9.00495 112.674 13.6105C112.674 18.3608 116.429 22.2338 121.267 22.2338C125.078 22.2338 128.188 19.5056 129.127 16.5712H125.021C124.289 17.9222 122.999 18.6547 121.267 18.6547C118.481 18.6547 116.955 16.3651 116.78 15.3124H129.421C129.539 14.786 129.653 14.1105 129.653 13.3473C129.662 9.24181 126.403 4.78101 121.24 4.78101ZM116.666 12.1762C117.398 9.15409 119.832 8.36457 121.271 8.36457C123.205 8.36457 125.232 9.5664 125.67 12.1762H116.666Z" fill="white"/>
<path d="M83.7077 4.78101C78.6898 4.78101 75.1414 9.00495 75.1414 13.6105C75.1414 18.3608 78.896 22.2338 83.734 22.2338C87.5456 22.2338 90.6555 19.5056 91.5941 16.5712H87.4886C86.7561 17.9222 85.4666 18.6547 83.734 18.6547C80.9487 18.6547 79.4223 16.3651 79.2469 15.3124H91.888C92.0064 14.786 92.1205 14.1105 92.1205 13.3473C92.1249 9.24181 88.8703 4.78101 83.7077 4.78101ZM79.1328 12.1762C79.8653 9.15409 82.2997 8.36457 83.7384 8.36457C85.6727 8.36457 87.6992 9.5664 88.1378 12.1762H79.1328Z" fill="white"/>
<path d="M136.022 0H132.123V22.2338H136.022V0Z" fill="white"/>
<path d="M13.4087 6.27717C12.0358 5.38237 10.3998 4.87358 8.68475 4.87358C4.02218 4.87358 0 8.65889 0 13.5846C0 18.2472 3.84234 22.2387 8.68475 22.2387C13.2026 22.2387 17.3081 18.8657 17.3081 13.5276C17.3081 13.3741 17.3037 13.2206 17.2949 13.0671H17.3081V0.00485229H13.4087V6.27717ZM8.68913 18.6595C6.22407 18.6595 3.90814 16.6638 3.90814 13.5846C3.90814 10.1809 6.66708 8.45274 8.68913 8.45274C11.1235 8.45274 13.4131 10.6546 13.4131 13.6153C13.4087 16.1945 11.5314 18.6595 8.68913 18.6595Z" fill="white"/>
<path d="M74.1141 4.76784C69.1972 4.83363 65.7189 8.96109 65.6662 13.4921H65.6619V22.2338H69.5612V12.1586C70.285 9.17601 72.6667 8.36894 74.1097 8.34701V4.76784H74.1141Z" fill="white"/>
<path d="M59.1751 22.2382H63.0744V13.5842C63.0744 8.24612 58.9689 4.87311 54.4511 4.87311C49.6131 4.87311 45.7664 8.86457 45.7664 13.5271C45.7664 18.4573 49.7842 22.2382 54.4511 22.2382C56.1661 22.2382 57.7978 21.7294 59.1751 20.8346V22.2382ZM59.1751 13.4964C59.1751 16.4571 56.8855 18.659 54.4511 18.659C52.4291 18.659 49.6701 16.9265 49.6701 13.5271C49.6701 10.448 51.986 8.45227 54.4511 8.45227C57.2978 8.44788 59.1751 10.9129 59.1751 13.4964Z" fill="white"/>
<path d="M32.0276 22.2382H35.927V13.5842C35.927 8.24612 31.8215 4.87311 27.3036 4.87311C22.4656 4.87311 18.6189 8.86457 18.6189 13.5271C18.6189 18.4573 22.6367 22.2382 27.3036 22.2382C29.0187 22.2382 30.6503 21.7294 32.0276 20.8346V22.2382ZM32.0276 13.4964C32.0276 16.4571 29.738 18.659 27.3036 18.659C25.2816 18.659 22.5227 16.9265 22.5227 13.5271C22.5227 10.448 24.8386 8.45227 27.3036 8.45227C30.1503 8.44788 32.0276 10.9129 32.0276 13.4964Z" fill="white"/>
<path d="M147.975 13.5663C147.975 10.9697 149.861 8.49586 152.72 8.49586C155.19 8.49586 157.51 10.4872 157.528 13.5663H161.449C161.431 8.89062 157.576 4.89915 152.72 4.89915C148.207 4.89915 144.101 8.25462 144.053 13.5663H147.975Z" fill="white"/>
<path d="M150.759 13.5665C150.759 16.1632 148.873 18.637 146.014 18.637C143.544 18.637 141.224 16.6457 141.206 13.5665H137.285C137.302 18.2422 141.158 22.2337 146.014 22.2337C150.527 22.2337 154.632 18.8782 154.681 13.5665H150.759Z" fill="white"/>
</svg>
