<svg width="129" height="32" viewBox="0 0 129 32" fill="none" xmlns="http://www.w3.org/2000/svg">
<path d="M82.4566 11.5891H86.0783L88.5803 18.6798H88.6101L91.1264 11.5891H94.7338V22.4554H92.3395V14.1209H92.3098L89.454 22.4554H87.6277L84.8796 14.1209H84.8499V22.4554H82.4556V11.5891H82.4566Z" fill="white"/>
<path d="M99.0476 13.7076H95.9478V11.5891H104.543V13.7076H101.443V22.4554H99.0486V13.7076H99.0476Z" fill="white"/>
<path d="M108.425 17.8205L104.342 11.5891H107.32L109.622 15.6569L112.062 11.5891H114.901L110.819 17.8205V22.4554H108.425V17.8205Z" fill="white"/>
<path d="M117.459 31.999H79.9522C75.5655 31.999 71.9971 28.4306 71.9971 24.0439V10.0245C71.9971 5.63777 75.5665 2.06934 79.9522 2.06934H86.6697C87.4018 2.06934 87.9955 2.66305 87.9955 3.39519C87.9955 4.12734 87.4018 4.72105 86.6697 4.72105H79.9522C77.0277 4.72105 74.6488 7.1 74.6488 10.0245V24.0429C74.6488 26.9673 77.0277 29.3463 79.9522 29.3463H117.458C120.382 29.3463 122.761 26.9673 122.761 24.0429H125.413C125.414 28.4296 121.844 31.999 117.459 31.999Z" fill="white"/>
<path d="M124.039 17.4688C121.845 17.4688 120.061 19.253 120.061 21.4463C120.061 23.6397 121.845 25.4239 124.039 25.4239C126.232 25.4239 128.016 23.6397 128.016 21.4463C128.016 19.253 126.232 17.4688 124.039 17.4688ZM124.039 23.2141C123.063 23.2141 122.271 22.4215 122.271 21.4463C122.271 20.4712 123.063 19.6785 124.039 19.6785C125.014 19.6785 125.806 20.4712 125.806 21.4463C125.806 22.4215 125.014 23.2141 124.039 23.2141Z" fill="white"/>
<path d="M11.8866 1.05835V15.9483H8.77649V14.3723C7.90284 15.5228 6.62518 16.2047 5.06963 16.2047C2.1308 16.2047 0 13.8186 0 10.4316C0 7.06623 2.1308 4.6801 5.06963 4.6801C6.62518 4.6801 7.90284 5.362 8.77649 6.51149V1.05835H11.8866ZM8.77649 10.4316C8.77649 8.60025 7.60445 7.30003 5.96482 7.30003C4.23905 7.30003 3.02496 8.59922 3.02496 10.4316C3.02496 12.2845 4.23905 13.5848 5.96482 13.5848C7.60445 13.5848 8.77649 12.2856 8.77649 10.4316Z" fill="white"/>
<path d="M14.4653 1.71956C14.4653 0.845914 15.2108 0.057373 16.1696 0.057373C17.0853 0.057373 17.8307 0.845914 17.8307 1.71956C17.8307 2.65679 17.0853 3.4238 16.1696 3.4238C15.2108 3.42277 14.4653 2.65576 14.4653 1.71956ZM14.5925 4.93628H17.7026V15.9492H14.5925V4.93628Z" fill="white"/>
<path d="M31.5073 4.93619V14.7781C31.5073 17.6113 29.0576 19.6139 25.5845 19.6139C23.6465 19.6139 21.8141 18.9966 20.7281 18.1445L21.8141 15.9501C22.539 16.589 23.8167 16.994 25.0943 16.994C27.097 16.994 28.3746 16.0783 28.3746 14.6509V13.4368C27.502 14.5012 26.1803 15.1411 24.7324 15.1411C21.9627 15.1411 19.8545 12.9682 19.8545 9.90123C19.8545 6.8332 21.9638 4.68188 24.7324 4.68188C26.2233 4.68188 27.6292 5.38429 28.3746 6.42919V4.93619H31.5073ZM28.3757 9.89918C28.3757 8.36516 27.2682 7.30078 25.7127 7.30078C24.1581 7.30078 23.0497 8.36516 23.0497 9.89918C23.0497 11.4332 24.1581 12.5191 25.7127 12.5191C27.2682 12.5191 28.3757 11.4332 28.3757 9.89918Z" fill="white"/>
<path d="M34.0864 1.71956C34.0864 0.845914 34.8319 0.057373 35.7907 0.057373C36.7064 0.057373 37.4518 0.845914 37.4518 1.71956C37.4518 2.65679 36.7064 3.4238 35.7907 3.4238C34.8319 3.42277 34.0864 2.65576 34.0864 1.71956ZM34.2146 4.93628H37.3247V15.9492H34.2146V4.93628Z" fill="white"/>
<path d="M46.5698 15.2458C45.931 15.8211 44.9302 16.2046 44.035 16.2046C42.097 16.2046 40.7332 14.8203 40.7332 12.8392V7.44962H39.2207V4.93634H40.7332V1.91138H43.7151V4.93634H46.1012V7.44962H43.7151V12.349C43.7151 13.073 44.1837 13.5847 44.7589 13.5847C45.1845 13.5847 45.6111 13.436 45.8244 13.2227L46.5698 15.2458Z" fill="white"/>
<path d="M58.2657 9.36606V15.9482H55.2623V14.8407C54.4738 15.7349 53.2176 16.2045 52.0241 16.2045C49.681 16.2045 47.8701 14.7987 47.8701 12.6894C47.8701 10.5166 49.8943 9.02562 52.4496 9.02562C53.3448 9.02562 54.3241 9.21738 55.2613 9.57935V9.36606C55.2613 8.19401 54.5373 7.17168 52.7265 7.17168C51.7041 7.17168 50.7454 7.51212 49.8717 7.96022L48.8279 5.89402C50.3834 5.10548 51.8949 4.67993 53.4289 4.67993C56.3062 4.67993 58.2657 6.49081 58.2657 9.36606ZM55.2623 12.4772V11.4548C54.5589 11.1995 53.7498 11.0498 52.8977 11.0498C51.7687 11.0498 50.8746 11.7101 50.8746 12.6053C50.8746 13.5005 51.6631 14.0542 52.7275 14.0542C53.92 14.0532 55.049 13.4995 55.2623 12.4772Z" fill="white"/>
<path d="M60.8867 1.05835H63.9968V15.9483H60.8867V1.05835Z" fill="white"/>
<path d="M46.6181 27.4193V31.8378H44.7252V27.8357C44.7252 26.9764 44.1879 26.3857 43.4086 26.3857C42.5893 26.3857 41.9586 26.9764 41.9586 27.728V31.8368H39.998V22.4502H41.9586V25.7407C42.3883 25.1368 43.1532 24.7338 44.0402 24.7338C45.5445 24.7338 46.6181 25.8484 46.6181 27.4193Z" fill="white"/>
<path d="M54.8375 24.8948V31.8378H52.8769V30.9652C52.4606 31.5969 51.6823 31.9998 50.782 31.9998C49.2777 31.9998 48.2041 30.8852 48.2041 29.3143V24.8958H50.097V28.897C50.097 29.7562 50.6343 30.3469 51.4136 30.3469C52.2329 30.3469 52.8636 29.7562 52.8636 29.0046L52.8769 29.0446V24.8948H54.8375Z" fill="white"/>
<path d="M63.9969 28.3598C63.9969 30.4947 62.6536 31.999 60.8007 31.999C59.8338 31.999 59.0278 31.5827 58.4782 30.8577V31.838H56.5176V22.4514H58.4782V25.8619C59.0288 25.1503 59.8348 24.734 60.8007 24.734C62.6547 24.734 63.9969 26.2372 63.9969 28.3598ZM62.0907 28.3598C62.0907 27.2052 61.3257 26.3859 60.2378 26.3859C59.2841 26.3859 58.5858 27.0842 58.4782 28.0912V28.6285C58.5858 29.6488 59.2841 30.3471 60.2378 30.3471C61.3247 30.3471 62.0907 29.5278 62.0907 28.3598Z" fill="white"/>
<path d="M3.79134 23.4929C1.70257 23.4929 0.00244141 25.192 0.00244141 27.2818C0.00244141 29.3706 1.70155 31.0707 3.79134 31.0707C5.8801 31.0707 7.58023 29.3716 7.58023 27.2818C7.58023 25.192 5.88112 23.4929 3.79134 23.4929ZM3.79134 28.9645C2.86231 28.9645 2.10761 28.2088 2.10761 27.2808C2.10761 26.3528 2.86231 25.5971 3.79134 25.5971C4.72036 25.5971 5.47506 26.3528 5.47506 27.2808C5.47506 28.2098 4.72036 28.9645 3.79134 28.9645Z" fill="white"/>
<path d="M35.9978 26.0967H5.9502V28.6223H35.9978V26.0967Z" fill="white"/>
<path d="M122.762 11.8805V10.0245C122.762 7.1 120.383 4.72105 117.458 4.72105H95.9196C95.1875 4.72105 94.5938 4.12734 94.5938 3.39519C94.5938 2.66305 95.1875 2.06934 95.9196 2.06934H117.457C121.844 2.06934 125.412 5.63777 125.412 10.0245V11.8794C125.414 11.8805 122.762 11.9133 122.762 11.8805Z" fill="white"/>
<path d="M95.3352 6.63031C97.1661 6.63031 98.6503 5.14606 98.6503 3.31515C98.6503 1.48425 97.1661 0 95.3352 0C93.5043 0 92.02 1.48425 92.02 3.31515C92.02 5.14606 93.5043 6.63031 95.3352 6.63031Z" fill="white"/>
<path d="M124.088 13.2135C124.82 13.2135 125.413 12.6199 125.413 11.8876C125.413 11.1554 124.82 10.5618 124.088 10.5618C123.355 10.5618 122.762 11.1554 122.762 11.8876C122.762 12.6199 123.355 13.2135 124.088 13.2135Z" fill="white"/>
</svg>
