<svg width="160" height="64" viewBox="0 0 160 64" fill="none" xmlns="http://www.w3.org/2000/svg">
<path d="M47.2287 37.0507H51.9772C51.3002 39.0633 50.0283 40.8146 48.3362 42.0654C46.6807 43.2384 44.7306 43.9038 42.7154 43.9851C40.2115 44.0885 37.7168 43.689 36.1012 41.5358C34.6912 39.6568 34.3772 37.3608 34.6695 35.0741C34.9481 32.9047 35.6799 30.7586 36.9747 28.9956C37.2807 28.5787 37.6163 28.1862 37.9806 27.8215C39.0618 26.7345 40.3611 25.896 41.7883 25.363C42.849 24.9786 43.9656 24.7753 45.0913 24.7614C45.3973 24.7324 49.2096 24.4304 51.5 27.393C52.8381 29.1234 52.9351 31.0361 52.9374 31.7376H48.2026C48.0804 31.0849 47.7733 30.4833 47.3189 30.006C46.2262 28.876 44.7328 28.9956 44.5136 29.0166C43.945 29.0224 43.3822 29.1269 42.849 29.3255C40.6716 30.1384 39.7765 32.309 39.5322 33.0011C39.233 33.8826 39.1143 34.8175 39.1828 35.7477C39.2547 36.7662 39.3541 38.1505 40.4136 39.0401C41.2813 39.7683 42.3546 39.7915 42.849 39.7648C44.6986 39.7857 46.3986 38.7335 47.2287 37.0519V37.0507Z" fill="white"/>
<path d="M53.761 43.9759L56.435 28.1097C56.524 27.2317 56.9213 26.4176 57.5539 25.8137C57.8199 25.5652 58.1213 25.3585 58.449 25.204C58.9308 24.9833 59.4537 24.8719 59.9812 24.8777H70.499L69.9281 28.5638H60.7405L60.1696 32.5565H67.5544L66.9995 35.9383H59.3772L58.7025 40.2074H68.0202L67.4973 43.9725L53.761 43.9759Z" fill="white"/>
<path d="M94.9053 43.9482L97.5792 28.0831C97.6683 27.2051 98.0656 26.391 98.6982 25.7871C98.9642 25.5385 99.2656 25.3318 99.5933 25.1774C100.074 24.9556 100.597 24.8429 101.126 24.8476H111.643L111.072 28.5337H101.881L101.317 32.5298H108.702L108.147 35.9105H100.522L99.8468 40.1831H109.165L108.642 43.947H94.9053V43.9482Z" fill="white"/>
<path d="M70.6274 43.9607L73.475 27.6648C73.6348 27.0086 73.9591 26.407 74.4146 25.9158C74.4865 25.8391 74.5573 25.7683 74.6304 25.7021C75.239 25.1539 76.0268 24.8532 76.8397 24.8601H79.2248L82.0061 38.0309L88.4398 26.5545C88.6682 26.1318 89.1249 25.4722 89.9081 25.1133C90.399 24.8903 90.8215 24.8729 91.2599 24.8601C92.1368 24.8346 93.2842 24.8218 94.6589 24.8601L91.4335 43.9607H86.9338L88.868 32.2927L82.9845 43.9607H79.2099L77.1959 31.985L75.1408 43.9607H70.6274Z" fill="white"/>
<path d="M110.32 43.9515L117.855 34.1405L113.288 24.8497H118.634L121.428 30.6297L125.296 25.8752C125.916 25.1737 126.815 24.7963 127.741 24.8497H131.428L124.101 34.4006L128.749 43.9515H123.402L120.433 38.0077L116.74 42.7344C116.452 43.0735 116.103 43.3546 115.712 43.5613L115.598 43.6205C115.125 43.8435 114.609 43.9561 114.089 43.9515H110.32Z" fill="white"/>
<path d="M0 43.9515L15.8097 22.4667C17.1113 20.9964 18.9313 20.1092 20.8734 20H26.1528L9.74137 42.134C8.64529 43.3302 7.09823 43.9922 5.49065 43.9515H0Z" fill="white"/>
<path d="M11.3789 43.9515L27.1887 22.4667C28.4902 20.9964 30.3102 20.1092 32.2523 20H37.5317L21.1226 42.134C20.0265 43.3302 18.4794 43.9922 16.8718 43.9515H11.3789Z" fill="white"/>
</svg>
