<svg width="160" height="64" viewBox="0 0 160 64" fill="none" xmlns="http://www.w3.org/2000/svg">
<path d="M18.18 29.9589L0 35.4441V45.9998H25.1891V38.6766" fill="#F5F5F5"/>
<path d="M27.3237 46L87.3439 45.9978V18L27.3237 18.0051V46ZM61.2058 41.3837H59.7448V32.4031H61.2058V41.3837ZM73.479 32.4023V33.5268H73.5082C73.9458 32.5644 74.7092 32.2256 75.7596 32.2256C76.5785 32.2256 77.5238 32.5644 77.8423 33.3823C78.3449 32.4199 79.1652 32.2256 79.9841 32.2256C80.9323 32.2256 82.4452 32.4381 82.4452 34.5564V41.3837H80.9827V35.1632C80.9827 34.2519 80.7358 33.421 79.5597 33.421C79.0089 33.421 78.8416 33.4356 78.453 33.7547C78.0271 34.1132 77.957 35.0055 77.957 35.3457V41.3837H76.5076V35.1632C76.5076 34.2519 76.2593 33.421 75.0883 33.421C74.6361 33.421 74.0291 33.6838 73.8201 34.0248C73.5484 34.471 73.479 35.0055 73.479 35.3457V41.3837H72.0165V34.2731C72.0165 33.6459 71.9837 33.0274 71.9289 32.4023H73.479ZM63.6106 32.4023H65.0497V38.6396C65.0497 39.7079 65.5501 40.4403 66.5911 40.4403C67.3757 40.4403 68.3465 39.8583 68.3465 38.3702V32.4023H69.8141V39.5108C69.8141 40.1424 69.8455 40.7645 69.9039 41.3837H68.3465V40.2957H68.2932C67.8176 41.1187 66.9527 41.5655 66.0184 41.5655C64.4427 41.5655 63.6106 40.7813 63.6106 39.2479V32.4023ZM59.6528 28.5447H61.2906V30.1037H59.6528V28.5447ZM52.5867 32.4023V33.5597H52.6612C53.2324 32.552 53.9096 32.2256 55.0704 32.2256C56.9989 32.2256 57.4854 33.3823 57.4854 35.1632V41.3837H56.0193V35.1632C56.0193 34.1986 55.6759 33.421 54.4319 33.421C52.8211 33.421 52.5867 34.8419 52.5867 36.073V41.3837H51.1351V34.2731C51.1351 33.6459 51.1001 33.0274 51.0548 32.4023H52.5867ZM45.538 32.4023H47.0027V33.7547H47.0378C47.6419 32.3885 48.3943 32.2256 49.8224 32.2256V33.7386C49.6975 33.7211 49.5522 33.7006 49.4229 33.6838C49.2957 33.6685 49.1789 33.6459 49.0342 33.6459C47.4074 33.6459 47.0027 34.8748 47.0027 36.0927V41.3837H45.538V32.4023ZM40.3909 32.2256C42.9535 32.2256 43.5956 33.632 43.5956 36.609V37.375H38.5464C38.5464 39.8737 39.2236 40.3695 40.3537 40.3695C41.3559 40.3695 41.8717 39.5663 41.925 38.6769H43.5284C43.5073 40.6543 42.2778 41.5655 40.3909 41.5655C38.4931 41.5655 36.9802 40.9931 36.9802 37.0391C36.9802 34.3994 37.2834 32.2256 40.3909 32.2256ZM30.1924 28.5447H37.9299V29.9635H34.872V41.3837H33.2459V29.9635H30.1924V28.5447Z" fill="#F5F5F5"/>
<path d="M40.2524 33.332C39.3261 33.332 38.562 33.7715 38.5466 36.2717H42.0494C42.0494 33.646 41.3174 33.332 40.2524 33.332Z" fill="#F5F5F5"/>
<path d="M0 33.6108L9.60244 23.5787L25.1891 32.3629V18.0081H0" fill="#F5F5F5"/>
</svg>
