<svg width="160" height="64" viewBox="0 0 160 64" fill="none" xmlns="http://www.w3.org/2000/svg">
<path d="M132.9 23.4C132.301 21.9 131.4 20.701 130.301 19.5C129.2 18.4 127.801 17.5 126.4 16.9C124.9 16.201 123.4 16 121.7 16C120.001 16 118.501 16.201 116.9 16.9C115.501 17.5 114.301 18.4 113.101 19.5C112.001 20.701 111.2 21.9 110.501 23.4C109.801 24.9 109.501 26.5 109.501 28.1C109.501 29.701 109.801 31.301 110.501 32.9C111.2 34.301 112.001 35.5 113.101 36.701C114.301 37.801 115.501 38.701 116.9 39.301C118.501 39.9 120.001 40.301 121.7 40.301C123.4 40.301 124.9 39.9 126.4 39.301C127.9 38.701 129.2 37.801 130.301 36.701C131.4 35.5 132.301 34.301 132.9 32.9C133.501 31.301 133.801 29.701 133.801 28.1C133.801 26.5 133.501 24.9 132.9 23.4ZM130.801 28.1C130.801 29.301 130.501 30.5 130.101 31.701C129.7 32.701 128.9 33.701 128.2 34.5C127.301 35.4 126.4 36 125.301 36.5C124.101 36.9 122.9 37.201 121.7 37.201C120.4 37.201 119.301 36.9 118.2 36.5C117.001 36 116.101 35.4 115.301 34.5C114.4 33.701 113.801 32.701 113.301 31.701C112.801 30.5 112.601 29.301 112.601 28.1C112.601 26.9 112.801 25.701 113.301 24.5C113.801 23.5 114.4 22.5 115.301 21.701C116.101 20.9 117.001 20.201 118.2 19.701C119.301 19.201 120.4 19 121.7 19C122.9 19 124.101 19.201 125.301 19.701C126.4 20.201 127.301 20.9 128.2 21.701C128.9 22.5 129.7 23.5 130.101 24.5C130.501 25.701 130.801 26.9 130.801 28.1Z" fill="white"/>
<path d="M129.301 31.3009C129.7 30.3009 129.9 29.2009 129.9 28.0999C129.9 26.9999 129.7 25.9999 129.301 24.8999C128.801 23.9999 128.301 22.9999 127.501 22.3009C126.801 21.4999 125.801 20.9999 124.9 20.4999C123.801 20.2009 122.801 19.8999 121.7 19.8999C120.601 19.8999 119.501 20.2009 118.501 20.4999C117.501 20.9999 116.7 21.4999 115.9 22.3009C115.2 22.9999 114.501 23.9999 114.2 24.8999C113.7 25.9999 113.501 26.9999 113.501 28.0999C113.501 29.2009 113.801 30.3009 114.2 31.3009C114.501 32.2009 115.2 33.2009 115.9 33.8999C116.7 34.7009 117.501 35.3009 118.501 35.7009C119.501 36.0999 120.601 36.3009 121.7 36.3009C122.801 36.3009 123.801 36.0999 124.9 35.7009C125.801 35.3009 126.801 34.7009 127.501 33.8999C128.301 33.2009 128.801 32.2009 129.301 31.3009ZM119.7 23.3009C120.4 22.9999 121.001 22.9999 121.7 22.9999C122.4 22.9999 123.001 22.9999 123.7 23.3009C124.4 23.5999 124.9 23.9999 125.4 24.4999C125.801 24.8999 126.2 25.4999 126.4 26.0999C126.801 26.7009 126.801 27.3999 126.801 28.0999C126.801 28.8009 126.801 29.4999 126.4 30.0999C126.2 30.7009 125.801 31.3009 125.4 31.7009C124.9 32.2009 124.4 32.5999 123.7 32.8999C123.001 33.2009 122.4 33.3009 121.7 33.3009C121.001 33.3009 120.4 33.2009 119.7 32.8999C119.001 32.5999 118.501 32.2009 118.001 31.7009C117.501 31.3009 117.2 30.7009 116.9 30.0999C116.7 29.4999 116.501 28.8009 116.501 28.0999C116.501 27.3999 116.7 26.7009 116.9 26.0999C117.2 25.4999 117.501 24.8999 118.001 24.4999C118.501 23.9999 119.001 23.5999 119.7 23.3009Z" fill="white"/>
<path d="M133.801 44.4V41.301H111.001L105.801 31.9C106.801 31.1 107.4 30.1 108.001 29C108.501 27.801 108.801 26.5 108.801 25.301C108.801 24 108.501 22.9 108.101 21.801C107.7 20.701 107.001 19.801 106.2 19C105.4 18.201 104.4 17.5 103.4 17C102.301 16.5 101.101 16.301 99.8011 16.301H95.3011C94.4001 16.301 93.7001 16.5 93.0011 16.801C92.4001 17 91.8011 17.5 91.2001 18C90.7001 18.5 90.3011 19.201 90.0011 19.801C89.7001 20.5 89.6011 21.201 89.6011 22V39.9H92.6011V22.1C92.6011 21.701 92.7001 21.301 92.8011 21C92.9001 20.701 93.1011 20.5 93.4001 20.201C93.7001 19.9 93.9001 19.701 94.3011 19.6C94.5011 19.5 94.9001 19.4 95.3011 19.4L99.8011 19.301C100.7 19.301 101.4 19.5 102.2 19.9C102.9 20.201 103.501 20.5 104.001 21.1C104.601 21.701 105.001 22.201 105.301 23C105.601 23.701 105.801 24.5 105.801 25.301C105.801 26.5 105.4 27.5 104.801 28.5C104.2 29.5 103.4 30.201 102.4 30.701C102.2 30.701 102.001 30.9 101.9 31C101.9 31.1 101.9 31.201 102.001 31.301L109.301 44.4H133.801Z" fill="white"/>
<path d="M103.4 21.7009C102.9 21.2009 102.4 20.8999 101.801 20.7009C101.2 20.3999 100.501 20.2009 99.801 20.2009H95.301C94.9 20.2009 94.7 20.3009 94.4 20.4999C94.301 20.4999 94.001 20.7009 93.801 20.8999C93.7 20.9999 93.501 21.3009 93.4 21.4999C93.301 21.8009 93.301 21.9999 93.301 22.3009V39.8999H96.301V23.9999C96.301 23.8009 96.4 23.7009 96.501 23.4999C96.601 23.3009 96.801 23.3009 97.001 23.3009L99.801 23.2009C100.2 23.2009 100.4 23.3009 100.7 23.3999C100.9 23.4999 101.101 23.7009 101.301 23.8999C101.4 23.9999 101.601 24.2009 101.7 24.4999C101.801 24.7009 101.9 24.9999 101.9 25.3009C101.9 25.4999 101.801 25.8009 101.7 25.9999C101.601 26.3009 101.4 26.4999 101.301 26.7009C100.9 27.0999 100.4 27.3009 99.801 27.3009H98.7C98.001 27.3009 97.501 27.7009 97.2 28.3009C96.801 28.8999 96.801 29.5999 97.2 30.3009L103.4 41.3009H57.801C57.701 41.3009 57.601 41.3009 57.4 41.2009C57.4 41.2009 57.301 40.9999 57.201 40.8999L50.9 20.2009C50.801 19.7009 50.5 19.2009 50.101 18.7009C49.801 18.2009 49.5 17.8999 49.101 17.4999C48.601 17.2009 48.101 16.8999 47.601 16.7009C47 16.4999 46.4 16.3999 45.801 16.3999C45.301 16.3999 44.601 16.4999 44.101 16.7009C43.601 16.8999 43.101 17.0999 42.601 17.4999C42.101 17.8009 41.801 18.2009 41.4 18.7009C41.101 19.2009 40.801 19.7009 40.701 20.2009L34.4 40.8999L34.101 41.3009H0V44.3999H34.601C35.101 44.3999 35.601 44.3009 36.101 43.8999C36.601 43.4999 36.801 43.2009 36.9 42.5999L43.601 20.9999C43.701 20.4999 43.9 20.0999 44.4 19.8009C44.801 19.4999 45.301 19.3009 45.801 19.3009C46.4 19.3009 46.801 19.4999 47.201 19.8009C47.601 20.0999 47.9 20.4999 48.101 20.9999L54.601 42.5999C55.101 43.8009 55.9 44.3999 56.9 44.3999H108.501L100.7 30.2009C101.2 30.2009 101.801 29.9999 102.301 29.7009C102.801 29.3009 103.301 28.9999 103.7 28.4999C104.001 28.0999 104.4 27.5999 104.501 26.9999C104.801 26.4999 104.801 25.8999 104.801 25.3009C104.801 24.5999 104.801 23.9999 104.501 23.3009C104.2 22.7009 103.801 22.2009 103.4 21.7009Z" fill="white"/>
<path d="M67.101 16.301C65.4 16.301 63.9 16.701 62.4 17.301C61.101 17.9 59.801 18.701 58.701 19.801C57.601 20.9 56.801 22.201 56.201 23.5C55.601 25 55.301 26.5 55.301 28.1C55.301 29.701 55.601 31.201 56.201 32.701C56.801 34.1 57.601 35.301 58.701 36.4C59.801 37.5 61.101 38.301 62.4 38.9C63.9 39.5 65.4 39.9 67.101 39.9H74.4C73.801 39.5 73.301 39.1 72.801 38.6C72.4 38 72.001 37.5 71.7 36.9H67.101C65.801 36.9 64.701 36.701 63.601 36.201C62.601 35.801 61.601 35.201 60.801 34.301C60 33.5 59.4 32.6 58.9 31.5C58.4 30.5 58.301 29.301 58.301 28.1C58.301 26.9 58.4 25.801 58.9 24.701C59.4 23.701 60 22.701 60.801 21.9C61.601 21.1 62.601 20.5 63.601 20C64.801 19.6 65.9 19.301 67.101 19.301H71.101V16.301H67.101Z" fill="white"/>
<path d="M63.6011 24.7009C64.1011 24.2009 64.6011 23.8999 65.1011 23.7009C65.8011 23.3999 66.4001 23.3009 67.1011 23.3009H71.1011V20.2009H67.1011C65.9001 20.2009 64.9001 20.3999 63.9001 20.8009C63.0001 21.2009 62.1011 21.8009 61.4001 22.4999C60.7011 23.2009 60.1011 24.0999 59.8011 24.9999C59.3011 25.9999 59.1011 26.9999 59.1011 28.0999C59.1011 29.2009 59.3011 30.2009 59.8011 31.2009C60.1011 32.2009 60.7011 32.9999 61.4001 33.7009C62.1011 34.3999 63.0001 34.8999 63.9001 35.3009C64.9001 35.8009 65.9001 35.8999 67.1011 35.8999H71.1011V32.9999H67.1011C66.4001 32.9999 65.8011 32.8999 65.1011 32.5999C64.6011 32.3009 64.1011 31.9999 63.6011 31.4999C63.1011 31.0999 62.8011 30.5999 62.6011 29.9999C62.3011 29.3999 62.1011 28.8009 62.1011 28.0999C62.1011 27.4999 62.3011 26.8999 62.6011 26.2009C62.8011 25.7009 63.1011 25.2009 63.6011 24.7009Z" fill="white"/>
<path d="M88.001 23.3009V20.2009H77.801C77.501 20.2009 77.301 20.3009 77.001 20.4999C76.801 20.4999 76.601 20.7009 76.4 20.8999C76.2 20.9999 76.101 21.3009 75.9 21.4999C75.801 21.8009 75.801 21.9999 75.801 22.3009V27.7009H84.4L85.301 25.2009H78.801V23.9999C78.801 23.8009 78.9 23.7009 79.001 23.4999C79.101 23.3009 79.4 23.3009 79.501 23.3009H88.001Z" fill="white"/>
<path d="M88.0011 19.301V16.301H77.8011C77.0011 16.301 76.3011 16.5 75.6011 16.801C74.9001 17 74.3011 17.5 73.8011 18C73.3011 18.5 72.8011 19.201 72.6011 19.801C72.3011 20.5 72.1011 21.201 72.1011 22V34.201C72.1011 34.9 72.3011 35.701 72.6011 36.4C72.8011 37 73.3011 37.701 73.8011 38.201C74.3011 38.701 74.9001 39.1 75.6011 39.4C76.3011 39.701 77.0011 39.9 77.8011 39.9H88.0011V36.9H77.8011C77.4001 36.9 77.1011 36.801 76.7001 36.701C76.4001 36.5 76.1011 36.301 75.8011 36.1C75.6011 35.801 75.4001 35.5 75.3011 35.201C75.1011 34.9 75.1011 34.5 75.1011 34.201V22.1C75.1011 21.701 75.1011 21.301 75.3011 21C75.4001 20.701 75.6011 20.5 75.8011 20.201C76.1011 19.9 76.4001 19.701 76.7001 19.6C77.1011 19.5 77.4001 19.4 77.8011 19.4L88.0011 19.301Z" fill="white"/>
<path d="M79.001 32.701C78.801 32.6 78.801 32.5 78.801 32.201V31.5H83.101L84.101 28.5H75.801V34C75.801 34.301 75.801 34.5 75.9 34.801C76.101 35 76.2 35.201 76.4 35.4C76.601 35.6 76.801 35.701 77.001 35.801C77.301 35.9 77.501 35.9 77.801 35.9H88.001V33H79.501C79.301 33 79.101 32.9 79.001 32.701Z" fill="white"/>
<path d="M52.7009 41.5999H52.9999L53.1009 41.4999V41.3009H52.7009C51.8009 41.3009 50.9999 41.0999 50.2009 40.8009C49.3999 40.3999 48.8009 39.9999 48.1009 39.3999C47.4999 38.8999 46.9999 38.3009 46.6009 37.4999C46.3009 36.8009 45.9999 35.8999 45.8999 35.0999V34.9999L45.8009 34.8999C45.8009 34.8999 45.7009 34.8999 45.6009 34.9999V35.0999C45.4999 35.8999 45.3009 36.8009 44.8999 37.4999C44.4999 38.3009 43.9999 38.8999 43.3999 39.3999C42.8009 39.9999 42.1009 40.3999 41.3009 40.8009C40.4999 41.0999 39.7009 41.3009 38.8009 41.3009H38.3999V41.4999C38.4999 41.5999 38.6009 41.5999 38.6009 41.5999H38.8009C39.7009 41.5999 40.4999 41.8009 41.3009 42.0999C42.1009 42.3999 42.8009 42.8009 43.3999 43.3999C43.9999 43.8999 44.4999 44.5999 44.8999 45.3009C45.3009 46.0999 45.4999 46.8999 45.6009 47.8009V47.8999H45.8009L45.8999 47.8009C45.9999 46.8999 46.3009 46.0999 46.6009 45.3009C46.9999 44.5999 47.4999 43.8999 48.1009 43.3999C48.8009 42.8009 49.3999 42.3999 50.2009 42.0999C50.9999 41.8009 51.8009 41.5999 52.7009 41.5999Z" fill="white"/>
<path d="M25 16.301C24.201 16.301 23.5 16.5 22.801 16.801C22.101 17 21.5 17.5 21 18C20.5 18.5 20.101 19.201 19.701 19.801C19.5 20.5 19.301 21.201 19.301 22V34.201C19.301 34.9 19.5 35.701 19.701 36.4C20.101 37 20.5 37.701 21 38.201C21.5 38.701 22.101 39.1 22.801 39.4C23.5 39.701 24.201 39.9 25 39.9H32.801L33.801 36.9H25C24.601 36.9 24.301 36.801 24 36.701C23.601 36.5 23.4 36.301 23.101 36.1C22.801 35.801 22.601 35.5 22.5 35.201C22.4 34.9 22.301 34.5 22.301 34.201V22.1C22.301 21.701 22.4 21.301 22.5 21C22.601 20.701 22.801 20.5 23.101 20.201C23.4 19.9 23.601 19.701 24 19.6C24.301 19.5 24.601 19.4 25 19.4H36.201L37.101 16.301H25Z" fill="white"/>
<path d="M25 20.2009C24.701 20.2009 24.5 20.3009 24.201 20.4999C24 20.4999 23.801 20.7009 23.601 20.8999C23.4 20.9999 23.201 21.3009 23.201 21.4999C23.101 21.8009 23 21.9999 23 22.3009V27.7009H31.601L32.4 25.2009H26.101V23.9999C26.101 23.8009 26.101 23.7009 26.201 23.4999C26.4 23.3009 26.601 23.3009 26.701 23.3009H35L35.9 20.2009H25Z" fill="white"/>
<path d="M15.5 19.801C14.4 18.701 13.101 17.9 11.701 17.301C10.201 16.701 8.701 16.301 7.101 16.301H5.601C4.9 16.301 4.101 16.5 3.5 16.801C2.701 17 2.101 17.5 1.601 18C1.101 18.5 0.701 19.201 0.4 19.801C0.101 20.5 0 21.201 0 22V39.9H7.101C8.701 39.9 10.201 39.5 11.701 38.9C13.101 38.301 14.4 37.5 15.5 36.4C16.5 35.301 17.4 34.1 18 32.701C18.601 31.201 18.9 29.701 18.9 28.1C18.9 26.5 18.601 25 18 23.5C17.4 22.201 16.5 20.9 15.5 19.801ZM13.301 21.9C14.101 22.701 14.701 23.701 15.201 24.701C15.701 25.801 15.9 26.9 15.9 28.1C15.9 29.301 15.701 30.5 15.201 31.5C14.801 32.6 14.101 33.5 13.4 34.301C12.601 35.201 11.601 35.801 10.601 36.201C9.5 36.701 8.301 36.9 7.101 36.9H2.9V22C2.9 21.701 3 21.301 3.101 21C3.201 20.701 3.5 20.301 3.701 20.201C4 19.9 4.201 19.701 4.601 19.5C4.9 19.4 5.201 19.301 5.601 19.301H7.101C8.201 19.301 9.4 19.5 10.5 20C11.601 20.5 12.5 21.1 13.301 21.9Z" fill="white"/>
<path d="M14.4001 24.9999C14.0001 24.0999 13.5001 23.2009 12.7011 22.4999C12.0001 21.8009 11.1011 21.2009 10.2011 20.8009C9.20107 20.3999 8.20107 20.2009 7.10107 20.2009H5.60107C5.40007 20.2009 5.10107 20.2009 4.90007 20.3999C4.60107 20.4999 4.50007 20.7009 4.20107 20.8999C4.10107 20.9999 4.00007 21.2009 3.80107 21.4999C3.70107 21.7009 3.60107 21.9999 3.60107 22.2009L3.70107 35.8999H7.10107C8.20107 35.8999 9.20107 35.8009 10.2011 35.3009C11.1011 34.8999 12.0001 34.3999 12.7011 33.7009C13.5001 32.9999 14.0001 32.2009 14.4001 31.2009C14.8011 30.2009 15.1011 29.2009 15.1011 28.0999C15.1011 26.9999 14.8011 25.9999 14.4001 24.9999ZM12.0001 28.0999C12.0001 28.8009 11.8011 29.3999 11.6011 29.9999C11.4001 30.5999 11.0001 31.0999 10.6011 31.4999C10.1011 31.9999 9.60107 32.3009 9.00007 32.5999C8.40007 32.8999 7.80107 32.9999 7.10107 32.9999H6.60107V23.9999C6.60107 23.8009 6.70107 23.7009 6.80107 23.4999C7.00007 23.3009 7.10107 23.3009 7.40007 23.3009H7.50007C8.10107 23.3009 8.70107 23.4999 9.20107 23.7009C9.80107 23.9999 10.3011 24.3999 10.7011 24.8009C11.1011 25.2009 11.4001 25.7009 11.6011 26.3009C11.8011 26.8999 12.0001 27.4999 12.0001 28.0999Z" fill="white"/>
<path d="M23 34C23 34.301 23.101 34.5 23.201 34.801C23.201 35 23.4 35.201 23.601 35.4C23.801 35.6 24 35.701 24.201 35.801C24.5 35.9 24.701 35.9 25 35.9H34.101L35 33H26.701C26.5 33 26.4 32.9 26.201 32.701C26.101 32.6 26 32.5 26 32.201L26.101 31.5H30.4L31.4 28.5H23V34Z" fill="white"/>
<path d="M133.801 48.2009V45.2009H56.9999C56.3009 45.2009 55.6009 44.8999 55.1009 44.4999C54.6009 44.0999 54.1009 43.5999 53.9999 42.8999H52.6009C52.1009 42.8999 51.4999 42.9999 50.8999 43.2009L51.1009 43.7009C51.3009 44.3009 51.6009 44.8999 51.8999 45.4999C52.3999 45.9999 52.8009 46.4999 53.3009 46.8999C53.8009 47.3009 54.3999 47.5999 54.9999 47.8999C55.6009 47.9999 56.3999 48.2009 57.1009 48.2009H133.801Z" fill="white"/>
<path d="M52.6011 39.8999H53.1011L47.4001 21.3009C47.3011 20.9999 47.1011 20.7009 46.8011 20.4999C46.5001 20.2009 46.2011 20.2009 45.8011 20.2009C45.4001 20.2009 45.1011 20.3009 44.8011 20.4999C44.5001 20.7009 44.3011 20.9999 44.3011 21.3999L38.6011 39.8999H39.0001C40.1011 39.8999 41.1011 39.7009 42.0001 38.9999L44.8011 29.4999C44.9001 29.2009 45.0001 29.0999 45.2011 28.9999C45.4001 28.8009 45.6011 28.7009 45.8011 28.7009C46.0001 28.7009 46.2011 28.8009 46.4001 28.9999C46.6011 28.9999 46.7011 29.2009 46.8011 29.4999L49.7011 39.0999C50.1011 39.3009 50.6011 39.4999 51.1011 39.7009C51.6011 39.8999 52.1011 39.8999 52.6011 39.8999Z" fill="white"/>
<path d="M0 45.2009V48.2009H34.601C35.4 48.2009 36 47.9999 36.601 47.8999C37.301 47.5999 37.801 47.3009 38.4 46.8999C38.9 46.4999 39.4 45.9999 39.801 45.4999C40.101 44.8999 40.4 44.3009 40.601 43.7009L40.701 43.2009C40.201 42.9999 39.601 42.8999 39 42.8999H37.601C37.5 43.5999 37.101 44.2009 36.601 44.4999C36.101 44.8999 35.4 45.2009 34.701 45.2009H0Z" fill="white"/>
</svg>
